<?xml version="1.0" standalone="no"?>
<!DOCTYPE svg PUBLIC "-//W3C//DTD SVG 1.1//EN" "http://www.w3.org/Graphics/SVG/1.1/DTD/svg11.dtd" >
<svg>
<metadata>
Created by FontForge 20090914 at Wed May 10 08:09:56 2017
 By www-data
Copyright (c) &#208;&#144;&#208;&#187;&#208;&#181;&#208;&#186;&#209;&#129;&#208;&#176;&#208;&#189;&#208;&#180;&#209;&#128;&#208;&#176; &#208;&#147;&#208;&#190;&#209;&#132;&#208;&#188;&#208;&#176;&#208;&#189;&#208;&#189; (Alexandra Gophmann) (&#208;&#186;&#208;&#184;&#209;&#128;&#208;&#184;&#208;&#187;&#208;&#187;&#208;&#184;&#208;&#183;&#208;&#176;&#209;&#134;&#208;&#184;&#209;&#143;), 2005. All rights reserved.
</metadata>
<defs>
<font id="LudvigvanBethoveen" horiz-adv-x="418" >
  <font-face 
    font-family="Ludvig van Bethoveen"
    font-weight="400"
    font-stretch="normal"
    units-per-em="2048"
    panose-1="2 0 4 0 0 0 0 0 0 0"
    ascent="1638"
    descent="-410"
    x-height="593.999"
    cap-height="1552"
    bbox="-501.998 -526.828 3384 2032.82"
    underline-thickness="102"
    underline-position="-154"
    unicode-range="U+0020-U+F002"
  />
<missing-glyph horiz-adv-x="1024" 
d="M128 0v1638h768v-1638h-768zM256 128h512v1382h-512v-1382z" />
    <glyph glyph-name=".notdef" horiz-adv-x="1024" 
d="M128 0v1638h768v-1638h-768zM256 128h512v1382h-512v-1382z" />
    <glyph glyph-name="space" unicode=" " horiz-adv-x="512" 
 />
    <glyph glyph-name="exclam" unicode="!" horiz-adv-x="455" 
d="M1030 1511c0 -22 -24.666 -67 -73.999 -135l-667 -917c-32.667 -45.333 -53.334 -68 -62.001 -68c-6.66699 0 -10 4 -10 12s17 37.667 51 89l625 927c54 80.667 91 121 111 121c17.333 0 26 -9.66699 26 -29zM209.001 305c0 -32.667 -16.333 -49 -49 -49
s-49 16.333 -49 49s16.333 49 49 49s49 -16.333 49 -49z" />
    <glyph glyph-name="quotedbl" unicode="&#x22;" horiz-adv-x="455" 
d="M1049 1442c0 -13.333 -31.001 -53 -93.001 -119c-49.333 -53.333 -83.333 -80 -102 -80c-5.33301 0 -8.66602 2 -9.99902 6c0 4 14.333 33 43 87c34 62 52.333 96 55 102c8 16 14.333 24 19 24c0.666992 0 27 -4.66699 79 -14c6 -1.33301 9 -3.33301 9 -6zM859.999 1442
c0 -13.333 -30.668 -53 -92.001 -119c-49.333 -53.333 -83.333 -80 -102 -80c-5.33301 0 -9 2 -11 6c0 4 14.667 33 44 87l55 102c7.33301 16 13.333 24 18 24c0.666992 0 27.334 -4.66699 80.001 -14c5.33301 -1.33301 8 -3.33301 8 -6z" />
    <glyph glyph-name="numbersign" unicode="#" horiz-adv-x="721" 
d="M879 1061c0 -7.33301 -10.333 -26.333 -31 -57l-159 -242h110c21.333 0 32 -7.66699 32 -23c0 -18.667 -19.667 -28 -59 -28h-117l-62 -95h116c21.333 0 32 -7.33301 32 -22c0 -19.333 -19.667 -29 -59 -29h-123l-180 -274c-20 -30 -35 -45 -45 -45
c-6.66699 0 -10 4 -10 12c0 4 4.66699 13.667 14 29l177 278h-136l-180 -274c-20 -30 -35 -45 -45 -45c-7.33301 0 -11 4 -11 12c0 4 5 13.667 15 29l177 278h-112c-24.667 0 -37 7.66699 -37 23c0 18.667 18 28 54 28h127l60 95h-114c-24.667 0 -37 7.33301 -37 22
c0 19.333 18 29 54 29h130l181 285c14 21.333 27 32 39 32s18 -6 18 -18c0 -7.33301 -10 -26.333 -30 -57l-159 -242h131l181 285c14 21.333 27 32 39 32c12.667 0 19 -6 19 -18zM608 711h-133l-62 -95h135z" />
    <glyph glyph-name="dollar" unicode="$" horiz-adv-x="645" 
d="M850 946c0 -28 -8.66602 -50.332 -25.999 -66.999c-14.667 -14 -30.667 -21 -48 -21c-32.667 0 -49 14.333 -49 43c0 29.333 13 45.666 39 48.999c16.667 2.66699 25 11 25 25c0 27.333 -21.333 46.333 -64 57l-160 -246c28.667 -119.333 43 -193 43 -221
c0 -96.667 -30.5 -173 -91.5 -229s-140.833 -84 -239.5 -84c-24.667 0 -50.667 2.66699 -78 8l-123 -186c-12 -18 -21.667 -27 -29 -27c-9.33301 0 -14 4 -14 12c0 5.33301 4 14.333 12 27l119 184c-24.667 7.33301 -49.334 23.666 -74.001 48.999
c-31.333 32 -47 67 -47 105c0 24.667 9.5 46.5 28.5 65.5s40.167 28.5 63.5 28.5c32.667 0 49 -15 49 -45c0 -28 -14.333 -45 -43 -51c-21.333 -4 -32 -15 -32 -33c0 -33.333 25.667 -61.333 77 -84l283 418c-19.333 84 -29 138.667 -29 164
c0 48.667 16.333 91.334 49 128.001c40.667 45.333 99.667 68 177 68c17.333 0 33 -2.66699 47 -8l86 125c8 12.667 14.667 19 20 19c8.66699 0 13 -4.33301 13 -13c0 -5.33301 -3 -12 -9 -20l-77 -119c68 -26 102 -66.333 102 -121zM694.001 1042
c-10.667 3.33301 -20.667 5 -30 5c-80.667 0 -121 -44 -121 -132c0 -24 3.33301 -52 10 -84zM494.001 549.001c0 28.667 -4.33301 69.667 -13 123l-252 -373c24.667 -2.66699 39 -4 43 -4c68.667 0 124 27 166 81c37.333 48 56 105.667 56 173z" />
    <glyph glyph-name="percent" unicode="%" horiz-adv-x="1024" 
d="M735 1034c0 -74 -53.668 -177 -161.001 -309c-75.333 -92 -150.666 -138 -225.999 -138c-74.667 0 -112 37 -112 111s51.5 159.667 154.5 257s193.833 146 272.5 146c48 0 72 -22.333 72 -67zM987.999 1098c0 -10 -25.333 -49 -76 -117l-549 -737
c-22 -30 -37 -45 -45 -45c-6.66699 0 -10 4 -10 12c0 6 5 15.667 15 29l608 843c16 22 29 33 39 33c12 0 18 -6 18 -18zM1061 665c0 -74 -53.667 -176.667 -161 -308c-75.333 -92.667 -151 -139 -227 -139c-74.667 0 -112 37 -112 111s51.667 159.667 155 257
s194.333 146 273 146c48 0 72 -22.333 72 -67zM713.999 1033c0 29.333 -14.666 44 -43.999 44c-62.667 0 -137.334 -48.333 -224.001 -145s-130 -177.667 -130 -243c0 -47.333 20 -71 60 -71c56 0 122 47 198 141c93.333 116 140 207.333 140 274zM1039 664
c0 29.333 -14.667 44 -44 44c-62 0 -136.333 -48.167 -223 -144.5s-130 -177.5 -130 -243.5c0 -46.667 20 -70 60 -70c56 0 122 47 198 141c92.667 115.333 139 206.333 139 273z" />
    <glyph glyph-name="ampersand" unicode="&#x26;" horiz-adv-x="1366" 
d="M1341 203c0 -8.66699 -6 -16.002 -18 -22.002l-63 -31c-76 -41.333 -149.333 -62 -220 -62c-104 0 -176.333 56 -217 168c-101.333 -112 -197.333 -168 -288 -168c-48.667 0 -88.5 14.5 -119.5 43.5s-46.5 64.5 -46.5 106.5c0 66.667 30.667 133.334 92 200.001
c60 64 163.667 143.333 311 238c6.66699 98 35.334 185.333 86.001 262c52.667 79.333 112 119 178 119c50.667 0 76 -22 76 -66c0 -39.333 -21 -82.666 -63 -129.999c-34.667 -38.667 -95.667 -92.334 -183 -161.001c-4 -65.333 -6 -91 -6 -77c0 -73.333 9 -150 27 -230
c87.333 100.667 153.666 169.334 198.999 206.001c43.333 34.667 82 52 116 52c40 0 60 -17.667 60 -53c0 -42 -20 -63 -60 -63c-27.333 0 -41 12 -41 36c0 8.66699 4.33301 19 13 31c-42.667 0 -133.667 -86.667 -273 -260c43.333 -136.667 109 -205 197 -205
c43.333 0 106 21.333 188 64c21.333 10.667 34.333 16 39 16c10.667 0 16 -4.66699 16 -14zM1061 982.998c0 26 -11.668 39 -35.001 39c-31.333 0 -63.666 -25.667 -96.999 -77c-36.667 -56 -57.667 -120.333 -63 -193c58 38.667 106 81.334 144 128.001
c34 43.333 51 77.666 51 102.999zM804.999 304.998c-22 94 -33 189.667 -33 287v35c-111.333 -80.667 -190 -148 -236 -202s-69 -107 -69 -159c0 -61.333 34.667 -92 104 -92c82.667 0 160.667 43.667 234 131z" />
    <glyph glyph-name="quotesingle" unicode="'" horiz-adv-x="266" 
d="M860 1442c0 -13.333 -30.668 -53 -92.001 -119c-49.333 -53.333 -83.333 -80 -102 -80c-5.33301 0 -9 2 -11 6c0 4 14.667 33 44 87l55 102c7.33301 16 13.333 24 18 24c0.666992 0 27.334 -4.66699 80.001 -14c5.33301 -1.33301 8 -3.33301 8 -6z" />
    <glyph glyph-name="parenleft" unicode="(" horiz-adv-x="530" 
d="M1208 1626c0 -8 -12.333 -23.667 -37 -47c-320 -308 -547.333 -560 -682 -756c-145.333 -210 -241.333 -436 -288 -678c-6 -30 -15.667 -45 -29 -45c-16.667 0 -25 14.333 -25 43c0 260 138 554.667 414 884c126 149.333 318.667 339.333 578 570
c30.667 27.333 49 41 55 41c9.33301 0 14 -4 14 -12z" />
    <glyph glyph-name="parenright" unicode=")" horiz-adv-x="530" 
d="M932 1595c0 -222 -94.998 -462.667 -284.998 -722c-116.667 -160 -294.667 -353.333 -534 -580c-134 -127.333 -210.667 -191 -230 -191c-8 0 -12 4.33301 -12 13c0 6.66699 12.333 21.667 37 45c321.333 306 548.666 555 681.999 747c147.333 212 243 440.667 287 686
c5.33301 30 14.666 45 27.999 45c18 0 27 -14.333 27 -43z" />
    <glyph glyph-name="asterisk" unicode="*" horiz-adv-x="721" 
d="M1137 1362c0 -16.667 -27 -36.667 -81 -60c-50 -21.333 -85.333 -32 -106 -32c-6.66699 0 -10 3.33301 -10 10c0 8 25.5 27.667 76.5 59s82.833 47 95.5 47c16.667 0 25 -8 25 -24zM977 1464c0 -27.333 -9.5 -63.5 -28.5 -108.5s-34.167 -67.5 -45.5 -67.5
c-5.33301 0 -8 5 -8 15c0 34.667 4 70.667 12 108c11.333 52 27 78 47 78c15.333 0 23 -8.33301 23 -25zM1094 1159c0 -23.333 -13 -35.001 -39 -35.001c-14 0 -38 13.833 -72 41.5s-51 46.834 -51 57.501c0 6.66699 4.66699 10 14 10c13.333 0 44 -9.66699 92 -29
c37.333 -14.667 56 -29.667 56 -45zM866 1278c0 -6.66699 -4.66699 -10 -14 -10c-13.333 0 -44 9.33301 -92 28c-36.667 14.667 -55 29.667 -55 45c0 23.333 12.667 35 38 35c14 0 38 -13.667 72 -41s51 -46.333 51 -57zM905 1196c0 -35.333 -3.99902 -71.333 -11.999 -108
c-10.667 -52 -26.334 -78 -47.001 -78c-15.333 0 -23 8 -23 24c0 27.333 9.5 63.5 28.5 108.5s34.167 67.5 45.5 67.5c5.33301 0 8 -4.66699 8 -14zM858.001 1219c0 -8.66699 -25.5 -28.667 -76.5 -60s-82.833 -47 -95.5 -47c-16 0 -24 8.33301 -24 25c0 16 26.667 36 80 60
c50 21.333 85.333 32 106 32c6.66699 0 10 -3.33301 10 -10z" />
    <glyph glyph-name="plus" unicode="+" horiz-adv-x="1024" 
d="M903 504h-246v-246h-65v246h-246v65h246v246h65v-246h246v-65z" />
    <glyph glyph-name="comma" unicode="," horiz-adv-x="266" 
d="M248 418c0 -5.33301 -44.332 -45 -132.999 -119c-62.667 -52 -98.334 -78 -107.001 -78c-3.33301 0 -5.33301 1.33301 -6 4c0 3.33301 21.333 32.333 64 87c45.333 57.333 70.333 91.333 75 102c8 16 14.333 24 19 24c-10 0 13.667 -4 71 -12
c11.333 -1.33301 17 -4 17 -8z" />
    <glyph glyph-name="hyphen" unicode="-" horiz-adv-x="530" 
d="M584 604l-85.002 -117c-14 -18.667 -32.333 -28 -55 -28h-174c-14 0 -27.667 -5 -41 -15l-65 -51h-10l86 121c12.667 18 30.334 27 53.001 27h172c18.667 0 34.334 5 47.001 15l63 48h9z" />
    <glyph glyph-name="hyphen" unicode="&#x2010;" horiz-adv-x="530" 
d="M584 604l-85.002 -117c-14 -18.667 -32.333 -28 -55 -28h-174c-14 0 -27.667 -5 -41 -15l-65 -51h-10l86 121c12.667 18 30.334 27 53.001 27h172c18.667 0 34.334 5 47.001 15l63 48h9z" />
    <glyph glyph-name="hyphen" unicode="&#xad;" horiz-adv-x="530" 
d="M584 604l-85.002 -117c-14 -18.667 -32.333 -28 -55 -28h-174c-14 0 -27.667 -5 -41 -15l-65 -51h-10l86 121c12.667 18 30.334 27 53.001 27h172c18.667 0 34.334 5 47.001 15l63 48h9z" />
    <glyph glyph-name="period" unicode="." horiz-adv-x="266" 
d="M168 305c0 -32.667 -16.333 -49 -49 -49s-49 16.333 -49 49s16.333 49 49 49s49 -16.333 49 -49z" />
    <glyph glyph-name="slash" unicode="/" horiz-adv-x="834" 
d="M1290 1544c0 -14.667 -24.333 -57 -73 -127l-898 -1270c-50.667 -72 -82.667 -108 -96 -108c-12 0 -18 6.66699 -18 20c0 10 38 70.333 114 181l840 1210c55.333 79.333 91 119 107 119s24 -8.33301 24 -25z" />
    <glyph glyph-name="zero" unicode="0" horiz-adv-x="645" 
d="M887 969c0 -120.667 -87.333 -288 -262 -502c-122.667 -150 -245.667 -225 -369 -225c-54.667 0 -98.667 16.5 -132 49.5s-50 76.5 -50 130.5c0 120.667 84 260 252 418s316 237 444 237c78 0 117 -36 117 -108zM852 967c0 47.333 -23.999 71.001 -71.999 71.001
c-100.667 0 -221.667 -78.333 -363 -235s-212 -288.334 -212 -395.001c0 -76.667 32.667 -115 98 -115c91.333 0 198.666 76.333 321.999 229c151.333 188 227 336.333 227 445z" />
    <glyph glyph-name="one" unicode="1" horiz-adv-x="530" 
d="M838 1042c0 -6.66699 -11.666 -23.667 -34.999 -51c-56.667 -66.667 -118.667 -153 -186 -259c-74 -116.667 -123.333 -190.667 -148 -222c-138.667 -178.667 -303.334 -268 -494.001 -268c-62.667 0 -94 9.33301 -94 28c0 15.333 18.667 23 56 23
c96.667 0 194.334 41.333 293.001 124c92.667 78.667 199 205.334 319 380.001c-106.667 -92 -180.334 -138 -221.001 -138c-11.333 0 -17 4.33301 -17 13c0 11.333 15.667 23.666 47 36.999l4 2c53.333 22 111.333 66 174 132c79.333 84.667 136.333 139.667 171 165
c46 34 82 51 108 51c15.333 0 23 -5.66699 23 -17z" />
    <glyph glyph-name="two" unicode="2" horiz-adv-x="606" 
d="M799 973c0 -61.333 -27.335 -127.334 -82.002 -198.001c-51.333 -66.667 -115.666 -123.667 -192.999 -171c-24.667 -15.333 -112.667 -62.666 -264 -141.999c-98.667 -52 -160.667 -94 -186 -126c53.333 8 85.333 12 96 12c32 0 72 -9.5 120 -28.5
s76.333 -28.5 85 -28.5c16 0 46.667 13 92 39c26 14.667 43.667 22 53 22c12.667 0 19 -6 19 -18c0 -20.667 -24.667 -43 -74 -67c-42.667 -20.667 -72.667 -31 -90 -31c-14 0 -36 6.66699 -66 20c-54 24.667 -93.667 37 -119 37c-42 0 -102 -17 -180 -51
c-9.33301 -4 -16 -6 -20 -6c-14 0 -21 6.66699 -21 20c0 20 19 53.667 57 101c36 46 77.333 89.333 124 130c56 50 146 107.333 270 172c130.667 68.667 218.334 124 263.001 166s67 89.333 67 142c0 42 -21.333 63 -64 63c-65.333 0 -135.166 -27.5 -209.499 -82.5
s-111.5 -104.5 -111.5 -148.5c0 -24.667 13.667 -37 41 -37c56.667 0 103.667 35.333 141 106c19.333 37.333 33.666 56 42.999 56c12 0 18 -5 18 -15c0 -16.667 -11 -41.334 -33 -74.001c-18.667 -28 -36.334 -49.667 -53.001 -65c-38 -35.333 -78.333 -53 -121 -53
c-56 0 -84 26.667 -84 80c0 56 42.833 116.333 128.5 181s167.834 97 246.501 97c30 0 55.333 -9.66699 76 -29s31 -43.666 31 -72.999z" />
    <glyph glyph-name="three" unicode="3" horiz-adv-x="758" 
d="M883 958c0 -94 -63 -177.001 -189 -249.001c32.667 -37.333 49 -79.666 49 -126.999c0 -82 -40.667 -158.333 -122 -229c-85.333 -74 -183.666 -111 -294.999 -111c-62 0 -113 18.833 -153 56.5s-60 84.834 -60 141.501c0 60 26.333 117.667 79 173s108 83 166 83
c38 0 70.167 -12.833 96.5 -38.5s39.5 -56.5 39.5 -92.5c0 -46.667 -14.333 -85.334 -43 -116.001s-62.334 -46 -101.001 -46c-23.333 0 -35 7 -35 21c0 15.333 14.333 25 43 29c57.333 8 86 42.667 86 104s-28 92 -84 92c-48 0 -93 -23.5 -135 -70.5
s-63 -95.167 -63 -144.5c0 -36.667 14.833 -68.667 44.5 -96s67.167 -41 112.5 -41c79.333 0 154.166 35.667 224.499 107s105.5 148.333 105.5 231c0 16.667 -3.33301 33 -10 49c-26.667 -9.33301 -52 -14 -76 -14c-56 0 -84 19.667 -84 59c0 31.333 25.333 47 76 47
c34.667 0 69.334 -11 104.001 -33c114.667 55.333 172 125.666 172 210.999c0 67.333 -37.333 101 -112 101c-48.667 0 -98.334 -17.333 -149.001 -52c-54 -36 -81 -74 -81 -114c0 -34 18 -51 54 -51c46.667 0 74.667 30.667 84 92c2.66699 17.333 8.66699 26 18 26
c12.667 0 19 -7.33301 19 -22c0 -39.333 -13 -72.333 -39 -99c-23.333 -25.333 -50.666 -38 -81.999 -38c-28 0 -51.833 9.16699 -71.5 27.5s-29.5 40.5 -29.5 66.5c0 50 30 97.667 90 143s123.667 68 191 68c46 0 84.167 -13.667 114.5 -41s45.5 -61.666 45.5 -102.999z
M610 722.999c-19.333 10.667 -38.332 16 -56.999 16c-16.667 0 -25 -4 -25 -12c0 -9.33301 11 -14 33 -14c17.333 0 33.666 3.33301 48.999 10z" />
    <glyph glyph-name="four" unicode="4" horiz-adv-x="834" 
d="M1016 1057c0 -10.667 -6.33203 -21.668 -18.999 -33.001c-57.333 -52 -103.666 -113.333 -138.999 -184c-59.333 -118.667 -120.666 -228 -183.999 -328l37 -4c10 0 33 4.66699 69 14c10.667 2.66699 17 4 19 4c9.33301 0 14 -4.66699 14 -14
c0 -13.333 -13.167 -25.5 -39.5 -36.5s-55.5 -16.5 -87.5 -16.5c-14.667 0 -30.334 0.666992 -47.001 2c-49.333 -63.333 -109.333 -115 -180 -155c-75.333 -42.667 -149 -64 -221 -64c-83.333 0 -125 10 -125 30c0 11.333 10 17 30 17c158 0 278.333 66 361 198
c-54 20.667 -107.333 35 -160 43c-56 -44.667 -105 -67 -147 -67c-33.333 0 -50 14.333 -50 43c0 44.667 55.333 69.334 166 74.001c17.333 23.333 66.666 110.666 147.999 261.999c20 38 55 83 105 135s83.333 78 100 78c10.667 0 16 -5.66699 16 -17
c0 -9.33301 -9.66699 -23.666 -29 -42.999c-42.667 -42.667 -83 -106 -121 -190c-44 -98 -91 -174.667 -141 -230c40.667 -4.66699 92.667 -16.667 156 -36c24 20.667 77.667 92 161 214c85.333 124.667 134.666 194 147.999 208c74 73.333 122.333 110 145 110
c10 0 15 -4.66699 15 -14zM276.001 534.999c-52.667 0 -79 -8.33301 -79 -25c0 -4 3.33301 -6 10 -6c22 0 45 10.333 69 31z" />
    <glyph glyph-name="five" unicode="5" horiz-adv-x="721" 
d="M971 1038c0 -10.667 -6.33301 -15.999 -19 -15.999c-3.33301 0 -10 1.66699 -20 5s-20.333 5 -31 5c-9.33301 0 -43.333 -8.5 -102 -25.5s-102.334 -25.5 -131.001 -25.5c-26 0 -53.333 4 -82 12c-20 -47.333 -52.333 -102 -97 -164c6 1.33301 15 2 27 2
c60.667 0 112 -19.667 154 -59s63 -84.333 63 -135c0 -90 -52 -178.333 -156 -265s-212.333 -130 -325 -130c-50 0 -90.167 11.167 -120.5 33.5s-45.5 52.166 -45.5 89.499c0 48 20.333 99 61 153c42.667 57.333 86.667 86 132 86c18 0 36 -5.83301 54 -17.5
s27 -24.834 27 -39.501c0 -11.333 -6 -17 -18 -17c-6 0 -11.333 3.66699 -16 11c-10 13.333 -22.333 20 -37 20c-32.667 0 -67.167 -23.5 -103.5 -70.5s-54.5 -89.833 -54.5 -128.5c0 -22 9.5 -40.667 28.5 -56s43.5 -23 73.5 -23c84.667 0 171.834 45.833 261.501 137.5
s134.5 180.834 134.5 267.501c0 68.667 -43 103 -129 103c-11.333 0 -27 -3 -47 -9c-54.667 -74.667 -101.334 -112 -140.001 -112c-22.667 0 -34 11.667 -34 35c0 42.667 47.667 80 143 112c52 81.333 90.333 149 115 203c-10 7.33301 -15 20.333 -15 39
c0 31.333 13 47 39 47s39 -17.667 39 -53c8 -2.66699 18.333 -4 31 -4c18.667 0 55.834 9.16699 111.501 27.5s93.5 27.5 113.5 27.5c21.333 0 45 -6.66699 71 -20c29.333 -14.667 44 -30 44 -46z" />
    <glyph glyph-name="six" unicode="6" horiz-adv-x="721" 
d="M926 975c0 -28 -9.1709 -51.333 -27.5039 -70s-39.166 -28 -62.499 -28c-46.667 0 -70 20.333 -70 61c0 13.333 5.33301 20 16 20c7.33301 0 14 -7.5 20 -22.5s17.333 -22.5 34 -22.5c31.333 0 47 18.667 47 56c0 44.667 -22 67 -66 67c-100 0 -220.167 -77 -360.5 -231
s-210.5 -287 -210.5 -399c0 -76.667 30.667 -115 92 -115c82.667 0 168 46.333 256 139c86 90 129 173.333 129 250c0 48 -19 72 -57 72c-49.333 0 -101.166 -24.667 -155.499 -74s-87.833 -103.333 -100.5 -162c-7.33301 -32.667 -17 -49 -29 -49
c-10.667 0 -16 8.33301 -16 25c0 56.667 34.333 120.667 103 192c71.333 74 140 111 206 111c61.333 0 92 -35 92 -105c0 -102.667 -54.667 -203.667 -164 -303c-106 -96.667 -209 -145 -309 -145c-53.333 0 -96.666 16 -129.999 48s-50 72 -50 120
c0 125.333 81.667 267 245 425c166.667 160 320.334 240 461.001 240c29.333 0 54.5 -9.66699 75.5 -29s31.5 -43 31.5 -71z" />
    <glyph glyph-name="seven" unicode="7" horiz-adv-x="645" 
d="M946 1026c0 -17.333 -9.33398 -33.6699 -28.001 -49.0029l-64 -45c-83.333 -59.333 -171.333 -170.666 -264 -333.999c-78.667 -137.333 -140 -227.666 -184 -270.999c-57.333 -56.667 -128.333 -85 -213 -85c-88 0 -132 10 -132 30c0 14 13.667 21 41 21
c70 0 131.667 25.333 185 76c26 24.667 90.333 107.334 193 248.001c96.667 133.333 185 234.333 265 303c-34 0 -76.167 7.5 -126.5 22.5s-87.166 22.5 -110.499 22.5c-54.667 0 -110 -30.333 -166 -91c-11.333 -12 -20.333 -18 -27 -18c-8 0 -12 4 -12 12
c0 10.667 12.333 31.667 37 63s49.334 56.333 74.001 75c43.333 32.667 87 49 131 49c27.333 0 69.333 -8.5 126 -25.5s100 -25.5 130 -25.5c30.667 0 64 10.667 100 32c9.33301 5.33301 17.666 8 24.999 8c13.333 0 20 -6 20 -18z" />
    <glyph glyph-name="eight" unicode="8" horiz-adv-x="606" 
d="M840 969c0 -57.333 -28 -112.335 -84 -165.002c-53.333 -51.333 -120.333 -88.666 -201 -111.999c20.667 -64.667 31 -113.667 31 -147c0 -80.667 -29 -151.334 -87 -212.001s-128.667 -91 -212 -91c-62 0 -110.667 16.333 -146 49
c-32.667 30.667 -49 70.334 -49 119.001c0 110 110 206 330 288c-2.66699 24.667 -4 38.334 -4 41.001c0 76.667 35.667 153.5 107 230.5s143.333 115.5 216 115.5c66 0 99 -38.667 99 -116zM801 974.998c0 49.333 -25.333 74.001 -76 74.001
c-53.333 0 -99 -28.333 -137 -85c-35.333 -51.333 -53 -106.333 -53 -165c0 -22.667 2.66699 -43.334 8 -62.001c71.333 24 130.333 55.333 177 94c54 45.333 81 93.333 81 144zM465 476.999c0 40 -10.333 96.668 -31 170.001c-106 -40 -181 -78 -225 -114
c-48 -38.667 -72 -84 -72 -136c0 -30.667 13.167 -57.334 39.5 -80.001s60.5 -34 102.5 -34c54.667 0 99.667 19.667 135 59c34 37.333 51 82.333 51 135z" />
    <glyph glyph-name="nine" unicode="9" horiz-adv-x="721" 
d="M821 907c0 -154.667 -74.999 -314.999 -224.999 -480.999c-111.333 -122.667 -239.666 -184 -384.999 -184c-114.667 0 -172 43 -172 129c0 27.333 8.16699 51.166 24.5 71.499s38.166 30.5 65.499 30.5c44 0 66 -23.333 66 -70c0 -18.667 -7 -28 -21 -28
c-9.33301 0 -15 5.66699 -17 17l-2 27c-2.66699 14 -11.334 21 -26.001 21c-36.667 0 -55 -22.333 -55 -67c0 -54.667 33.333 -82 100 -82c105.333 0 224.666 74.333 357.999 223c157.333 174.667 236 317.334 236 428.001c0 54.667 -30.667 82 -92 82
c-71.333 0 -152.333 -46.667 -243 -140s-136 -177 -136 -251c0 -50.667 26 -76 78 -76c47.333 0 87.833 22.667 121.5 68s53.834 102.666 60.501 171.999c2 17.333 8 26 18 26c11.333 0 17 -8.66699 17 -26c0 -72.667 -22.167 -136.667 -66.5 -192s-95.166 -83 -152.499 -83
c-34.667 0 -62.834 10.5 -84.501 31.5s-32.5 48.167 -32.5 81.5c0 87.333 49.5 180.5 148.5 279.5s190.833 148.5 275.5 148.5c40 0 73.5 -15 100.5 -45s40.5 -67 40.5 -111z" />
    <glyph glyph-name="colon" unicode=":" horiz-adv-x="266" 
d="M334 571c0 -32.667 -16.333 -49 -49 -49s-49 16.333 -49 49c0 33.333 16.333 50 49 50s49 -16.667 49 -50zM172 305c0 -32.667 -16.333 -49 -49 -49s-49 16.333 -49 49s16.333 49 49 49s49 -16.333 49 -49z" />
    <glyph glyph-name="semicolon" unicode=";" horiz-adv-x="266" 
d="M332 571c0 -32.667 -16.333 -49 -49 -49c-31.333 0 -47 15.667 -47 47c0 34.667 16.333 52 49 52c31.333 0 47 -16.667 47 -50zM233 418c0 -5.33301 -44.333 -45 -133 -119c-62 -52 -97.333 -78 -106 -78c-4 0 -6 1.33301 -6 4c0 3.33301 21.333 32.333 64 87
c44.667 57.333 69.667 91.333 75 102c8 16 14 24 18 24c-9.33301 0 14.667 -4 72 -12c10.667 -1.33301 16 -4 16 -8z" />
    <glyph glyph-name="less" unicode="&#x3c;" horiz-adv-x="1024" 
d="M904 264l-556 256v66l556 255v-82l-488 -205l488 -209v-81z" />
    <glyph glyph-name="equal" unicode="=" horiz-adv-x="1024" 
d="M903 586h-557v65h557v-65zM903 422h-557v65h557v-65z" />
    <glyph glyph-name="greater" unicode="&#x3e;" horiz-adv-x="1024" 
d="M904 520l-556 -256v81l488 209l-488 205v82l555 -255z" />
    <glyph glyph-name="question" unicode="?" horiz-adv-x="682" 
d="M1227 1327c0 -65.333 -27.666 -127.001 -82.999 -185.001c-43.333 -45.333 -117.333 -100.333 -222 -165c-188.667 -116.667 -295.667 -184.334 -321 -203.001c-126.667 -92.667 -249.334 -212.667 -368.001 -360c-9.33301 -12.667 -18 -19 -26 -19
c-9.33301 0 -14 4.33301 -14 13c0 18.667 32.667 62.334 98 131.001l155 166c90.667 82 241 191 451 327c106.667 69.333 180 132.333 220 189c30.667 44 46 93.667 46 149c0 91.333 -53 137 -159 137c-108 0 -202.333 -34 -283 -102c-78 -66 -117 -139.667 -117 -221
c0 -57.333 34.333 -86 103 -86c70 0 127.333 35.333 172 106c10.667 18 21.334 27 32.001 27c7.33301 0 11 -4 11 -12c0 -15.333 -13 -37.333 -39 -66c-53.333 -58.667 -116.333 -88 -189 -88c-42.667 0 -78.334 15.333 -107.001 46c-26.667 28 -40 60.333 -40 97
c0 82.667 47 158.334 141 227.001s195 103 303 103c65.333 0 120.333 -18.667 165 -56c47.333 -40 71 -91.667 71 -155zM211.001 302.999c0 -32.667 -15.667 -49 -47 -49c-32.667 0 -49 16.333 -49 49s16.333 49 49 49c31.333 0 47 -16.333 47 -49z" />
    <glyph glyph-name="at" unicode="@" horiz-adv-x="1382" 
d="M1270 870c0 -101.333 -35.667 -197.331 -107 -287.998s-149 -136 -233 -136c-35.333 0 -65.166 7.66699 -89.499 23s-37.833 32.333 -40.5 51c-40 -36.667 -74 -55 -102 -55c-42.667 0 -64 21.333 -64 64c0 52 23.333 104.667 70 158
c53.333 61.333 105.666 92 156.999 92c21.333 0 40.333 -4.5 57 -13.5s25 -18.833 25 -29.5l27 34h100l-161 -197c-20.667 -24.667 -31 -43.334 -31 -56.001c0 -26.667 18 -40 54 -40c77.333 0 148 45 212 135c60.667 85.333 91 171.333 91 258
c0 51.333 -17.667 93.333 -53 126c-32 30.667 -70.333 46 -115 46c-145.333 0 -283.333 -65.333 -414 -196s-196 -268.667 -196 -414c0 -108 52.333 -162 157 -162c101.333 0 193 30 275 90c18.667 14 29 21 31 21c9.33301 0 14 -4.66699 14 -14
c0 -6.66699 -7.66699 -16.334 -23 -29.001c-79.333 -68 -185 -102 -317 -102c-72 0 -131 21.333 -177 64s-69 99.667 -69 171c0 129.333 71.667 260.666 215 393.999c152 141.333 316.667 212 494 212c66 0 118.667 -21.667 158 -65c36.667 -39.333 55 -86.666 55 -141.999z
M924 709.002c0 22.667 -16.667 34 -50 34c-12.667 0 -30 -11.333 -52 -34c-85.333 -90 -128 -154 -128 -192c0 -12 5 -18 15 -18c30 0 68.333 28.667 115 86z" />
    <glyph glyph-name="A" unicode="A" horiz-adv-x="1518" 
d="M2169 1485c0 -14.667 -28.6689 -49.666 -86.002 -104.999c-354 -340 -589 -688 -705 -1044c68 32.667 140.333 81.667 217 147c40 34.667 62.667 52 68 52c8 0 12 -5.66699 12 -17c0 -14 -36.333 -49.333 -109 -106c-77.333 -60 -145.333 -102.333 -204 -127
c-22 -76.667 -33 -149.667 -33 -219c0 -117.333 34 -219 102 -305c72 -92 163 -138 273 -138c94 0 178.167 40.167 252.5 120.5s111.5 170.5 111.5 270.5c0 52 -15 93.333 -45 124s-68 46 -114 46c-82 0 -154.167 -37 -216.5 -111s-93.5 -159.667 -93.5 -257
c0 -18 -4.66699 -27 -14 -27c-7.33301 0 -12.166 4.5 -14.499 13.5s-3.5 25.833 -3.5 50.5c0 96 34.833 181.333 104.5 256s148.167 112 235.5 112c57.333 0 105 -20.333 143 -61s57 -90.667 57 -150c0 -115.333 -43.333 -216.333 -130 -303
c-83.333 -83.333 -176.333 -125 -279 -125c-125.333 0 -231.666 54.667 -318.999 164c-85.333 106 -128 231 -128 375c0 34 5.66699 78.333 17 133c-39.333 -8 -81 -12 -125 -12c-90 0 -177.333 21 -262 63c-98.667 -42 -206 -63 -322 -63c-151.333 0 -278 30.667 -380 92
c-98.667 59.333 -148 130.333 -148 213c0 81.333 42 152.166 126 212.499s184.667 90.5 302 90.5c96 0 187.333 -20.667 274 -62c68 104 157.333 156 268 156c107.333 0 199 -45 275 -135c20.667 20.667 74 80.667 160 180c135.333 157.333 259.333 277 372 359
c52.667 38 114 73 184 105s122 48 156 48c14 0 21 -5.33301 21 -16zM2114 1460c-68 -11.333 -146.334 -49.333 -235.001 -114c-79.333 -58.667 -151.166 -125.667 -215.499 -201s-121.833 -151.666 -172.5 -228.999c-75.333 -116.667 -126 -192.667 -152 -228
c14 -44.667 22.333 -92.334 25 -143.001c142 288 392 593 750 915zM1247 778.001c-23.333 37.333 -57.333 67.501 -102 90.501s-91 34.5 -139 34.5c-100 0 -179.333 -44.333 -238 -133c28 -16 56.5 -38.833 85.5 -68.5s43.5 -51.834 43.5 -66.501
c0 -11.333 -4.66699 -17 -14 -17s-19 7.66699 -29 23c-26 39.333 -60 71.333 -102 96c-16.667 -28.667 -25 -64 -25 -106c0 -78.667 25.333 -147.667 76 -207c153.333 79.333 301.333 197.333 444 354zM1323 496.002c0 34 -6.66602 81.668 -19.999 143.001
c-112.667 -133.333 -236.334 -236.333 -371.001 -309c68.667 -31.333 137.667 -47 207 -47c43.333 0 89 5.33301 137 16c6.66699 24.667 21 71 43 139c2.66699 19.333 4 38.666 4 57.999zM763.998 403.003c-52 71.333 -78.001 145.333 -78.001 222
c0 44 10.333 87.667 31 131c-84 38 -174.333 57 -271 57c-97.333 0 -184.333 -26.667 -261 -80s-115 -113.333 -115 -180c0 -64.667 34 -121.167 102 -169.5s148.667 -72.5 242 -72.5c114.667 0 231.334 30.667 350.001 92z" />
    <glyph glyph-name="B" unicode="B" horiz-adv-x="1821" 
d="M2511 1325c0 -8 -4.00195 -12.002 -12.002 -12.002c-2 0 -20.667 13 -56 39c-80.667 60 -171.334 90 -272 90c-95.333 0 -192.333 -26.667 -291 -80c62.667 -70 94 -146.333 94 -229c0 -138.667 -79.667 -242 -239 -310c30 -41.333 45 -85.666 45 -132.999
c0 -108 -46.5 -209 -139.5 -303s-192.167 -141 -297.5 -141c-46.667 0 -84.5 13.833 -113.5 41.5s-43.5 65.5 -43.5 113.5c0 68.667 30.667 131.667 92 189c82 76.667 154.333 115 217 115c15.333 0 23 -5 23 -15c0 -11.333 -13 -20 -39 -26
c-70.667 -18 -130.334 -53.167 -179.001 -105.5s-73 -104.833 -73 -157.5c0 -78.667 38 -118 114 -118c92.667 0 182.5 44.667 269.5 134s130.5 180.333 130.5 273c0 41.333 -15.667 81 -47 119c-35.333 -10.667 -72.333 -16 -111 -16c-70.667 0 -106 17.667 -106 53
c0 34 32 51 96 51c49.333 0 93.666 -15.667 132.999 -47c147.333 66 221 161.667 221 287c0 78.667 -28 146 -84 202c-113.333 -71.333 -218.333 -175.666 -315 -312.999c-50.667 -82 -134.667 -204.333 -252 -367c-110 -131.333 -233 -234 -369 -308
c-133.333 -72.667 -263.666 -109 -390.999 -109c-135.333 0 -253.166 32.5 -353.499 97.5s-150.5 141.5 -150.5 229.5c0 76.667 39.5 143 118.5 199s177.5 84 295.5 84c94 0 183.333 -22 268 -66c36.667 -18.667 77.334 -46 122.001 -82c51.333 -41.333 77 -71.333 77 -90
c0 -10.667 -4.66699 -16 -14 -16c-6 0 -15.667 7.66699 -29 23c-113.333 129.333 -256.666 194 -429.999 194c-102.667 0 -189 -23 -259 -69c-72 -46.667 -108 -105.667 -108 -177c0 -69.333 36 -126.333 108 -171c70 -44 157 -66 261 -66c292 0 595.667 188.333 911 565
c117.333 140.667 199.333 234.334 246 281.001c65.333 66 142.333 128.667 231 188c-87.333 61.333 -197 92 -329 92c-173.333 0 -342 -51.333 -506 -154c-170.667 -106.667 -256 -222.667 -256 -348c0 -52.667 17 -95.167 51 -127.5s81 -48.5 141 -48.5
c136 0 251 49.667 345 149c72.667 77.333 118.334 163 137.001 257c14.667 74.667 29 112 43 112c9.33301 0 14 -6 14 -18c0 -5.33301 -2.66699 -23 -8 -53c-24 -130.667 -79.333 -238.667 -166 -324c-110.667 -108 -235 -162 -373 -162
c-66.667 0 -121.334 21.333 -164.001 64c-39.333 40 -59 88.333 -59 145c0 129.333 83.5 252.166 250.5 368.499s347.833 174.5 542.5 174.5c150.667 0 275.334 -34.667 374.001 -104c107.333 58.667 212.666 88 315.999 88c66.667 0 132.667 -13.667 198 -41
c36.667 -15.333 71.334 -35.333 104 -60c30.667 -23.333 46 -40.333 46 -51zM1663 835.998c-29.333 17.333 -59.333 26 -90 26c-36.667 0 -55 -5.33301 -55 -16c0 -12.667 20.333 -19 61 -19c23.333 0 51.333 3 84 9z" />
    <glyph glyph-name="C" unicode="C" horiz-adv-x="1139" 
d="M1780 1411c0 -100 -106.001 -210.664 -318.001 -331.997c-128.667 -73.333 -266.334 -134.333 -413.001 -183c-163.333 -54 -311.666 -83 -444.999 -87c-64 -98 -96 -189.333 -96 -274c0 -102.667 24 -172.334 72 -209.001c72.667 161.333 161 292.666 265 393.999
c102 100 198 150 288 150c36 0 66.833 -13.833 92.5 -41.5s38.5 -61.5 38.5 -101.5c0 -121.333 -59.667 -233.333 -179 -336c-114 -99.333 -232.667 -149 -356 -149c-39.333 0 -81.666 7.33301 -126.999 22c-40.667 -120.667 -61 -219 -61 -295c0 -27.333 -7 -41 -21 -41
c-12 0 -18 13.667 -18 41c0 100.667 19.667 204.667 59 312c-118.667 61.333 -178 163 -178 305c0 75.333 22 151.666 66 228.999c-120.667 14 -223.334 53 -308.001 117c-88.667 66.667 -133 143.667 -133 231c0 102.667 61 189 183 259
c116.667 66.667 255.667 100 417 100c204 0 390.333 -41 559 -123c184.667 82 330.334 123 437.001 123c117.333 0 176 -37 176 -111zM1741 1415c0 44 -30.668 66 -92.001 66c-99.333 0 -231.333 -43.667 -396 -131c64.667 -44.667 104.334 -78 119.001 -100
c2.66699 -4 4 -7 4 -9c0 -8 -4 -12 -12 -12c-5.33301 0 -11.333 2.66699 -18 8c-55.333 43.333 -98.333 74 -129 92c-253.333 -140 -448 -299 -584 -477c252 12 517.667 96 797 252c207.333 116 311 219.667 311 311zM1120 1376c-166.667 68.667 -336.667 103 -510 103
c-154 0 -286.333 -30.167 -397 -90.5s-166 -134.833 -166 -223.5c0 -80.667 41.667 -151 125 -211c80.667 -58.667 180.334 -92.667 299.001 -102c135.333 204 351.666 378.667 648.999 524zM1225 729.003c0 27.333 -9 51.667 -27 73s-40.667 32 -68 32
c-80 0 -169 -49 -267 -147c-101.333 -102.667 -183.666 -230.667 -246.999 -384c38 -16 77 -24 117 -24c111.333 0 220.666 47.667 327.999 143c109.333 98 164 200.333 164 307z" />
    <glyph glyph-name="D" unicode="D" horiz-adv-x="1593" 
d="M2488 1434c0 -11.333 -5.33203 -16.9971 -15.999 -16.9971c-8 0 -31.333 9.66699 -70 29c-68 34 -144.333 51 -229 51c-138 0 -280.667 -47 -428 -141c42 -70.667 63 -144.334 63 -221.001c0 -98 -22.333 -201.667 -67 -311c-49.333 -120 -118.333 -227.333 -207 -322
c-159.333 -170.667 -341.666 -256 -546.999 -256c-66 0 -148.667 14.333 -248 43c-100 -31.333 -212 -47 -336 -47c-112 0 -205 9.33301 -279 28c-77.333 20 -116 46 -116 78c0 53.333 78 80 234 80c93.333 0 211.333 -19 354 -57c163.333 59.333 310 152.666 440 279.999
c55.333 54 157.666 175.333 306.999 364c122.667 154.667 235.334 271 338.001 349c-78.667 88.667 -193.334 133 -344.001 133c-217.333 0 -423.333 -72.333 -618 -217c-173.333 -129.333 -260 -276 -260 -440c0 -78 21 -139.333 63 -184c40 -42.667 92.667 -64 158 -64
c144.667 0 277 79 397 237c91.333 121.333 137 282.666 137 483.999c0 14.667 5 22 15 22c13.333 0 20 -24.333 20 -73c0 -175.333 -52.333 -334.333 -157 -477c-112.667 -153.333 -249.334 -230 -410.001 -230c-76.667 0 -139 24.667 -187 74
c-51.333 52.667 -77 123.667 -77 213c0 168 92.333 324.667 277 470c191.333 150.667 407.333 226 648 226c156.667 0 281.667 -49 375 -147c152 99.333 303 149 453 149c96 0 177.333 -18.333 244 -55c48.667 -27.333 73 -44.333 73 -51zM1767 1137
c0 61.333 -19.668 125.335 -59.001 192.002c-81.333 -68.667 -168.666 -180.334 -261.999 -335.001c-118 -194.667 -200.667 -321.334 -248 -380.001c-110.667 -136 -241.667 -236.333 -393 -301c76.667 -21.333 136 -32 178 -32c194 0 373.167 90 537.5 270
s246.5 375.333 246.5 586zM516 344.005c-124 27.333 -222.332 40.999 -294.999 40.999c-116 0 -174 -13 -174 -39c0 -13.333 21.167 -25.166 63.5 -35.499s88.166 -15.5 137.499 -15.5c68 0 157.333 16.333 268 49z" />
    <glyph glyph-name="E" unicode="E" horiz-adv-x="1174" 
d="M1597 1341c0 -125.333 -106.331 -245.666 -318.998 -360.999c-217.333 -117.333 -456.333 -179 -717 -185c-84.667 -108.667 -127 -209 -127 -301c0 -84 37 -143 111 -177c24 64.667 66.333 141.334 127 230.001c65.333 95.333 145.5 174.166 240.5 236.499
s182.167 93.5 261.5 93.5c74.667 0 112 -35 112 -105c0 -126 -66 -246.667 -198 -362c-128.667 -112 -257.334 -168 -386.001 -168c-38 0 -83 6 -135 18c-32.667 -91.333 -52.334 -176 -59.001 -254c-4 -43.333 -11.667 -65 -23 -65c-10.667 0 -16 7.33301 -16 22
c0 82 19.667 185 59 309c-64.667 23.333 -116 61.666 -154 114.999c-40.667 55.333 -61 121 -61 197c0 70 22.667 143.667 68 221c-108 17.333 -196 54.333 -264 111c-72.667 61.333 -109 135 -109 221c0 92 49.333 171.667 148 239c105.333 71.333 238.333 107 399 107
c191.333 0 383 -51.333 575 -154c100.667 102.667 204.667 154 312 154c44 0 80.833 -13.333 110.5 -40s44.5 -60.667 44.5 -102zM1556 1341c0 64.667 -36.668 97.001 -110.001 97.001c-97.333 0 -190.333 -43 -279 -129l64.5 -44c31 -21.333 47.833 -32.666 50.5 -33.999
c19.333 -12.667 29 -23.667 29 -33s-4.33301 -14 -13 -14c-5.33301 0 -13.333 4 -24 12c-63.333 47.333 -107.666 75.333 -132.999 84c-37.333 -50.667 -56 -92.334 -56 -125.001c0 -3.33301 0.333008 -8.83301 1 -16.5s1 -13.167 1 -16.5
c70 -8.66699 105 -28.334 105 -59.001c0 -24.667 -14.333 -37 -43 -37c-34 0 -62 18.333 -84 55c-87.333 -12.667 -175.333 -43 -264 -91c-82.667 -44.667 -151 -96 -205 -154c246 10 467.5 67.167 664.5 171.5s295.5 215.5 295.5 333.5zM1155 1065c0 10 -15.667 16 -47 18
c12.667 -17.333 25 -26 37 -26c6.66699 0 10 2.66699 10 8zM1106 1298c-189.333 97.333 -379 146 -569 146c-137.333 0 -254 -31.333 -350 -94c-93.333 -60 -140 -130.333 -140 -211c0 -79.333 36.667 -147.333 110 -204c67.333 -51.333 150.333 -83 249 -95
c54.667 74.667 137 138.667 247 192c124 59.333 256 90 396 92c0 64 19 122 57 174zM1243 768.001c0 46.667 -27.3359 70 -82.0029 70c-50 0 -109.667 -19.333 -179 -58c-71.333 -39.333 -133.666 -88.333 -186.999 -147c-95.333 -104 -165.666 -214 -210.999 -330
c36.667 -12 76 -18 118 -18c120.667 0 236.334 49 347.001 147c58 52 105 110 141 174c35.333 62 53 116 53 162z" />
    <glyph glyph-name="F" unicode="F" horiz-adv-x="1327" 
d="M2558 1534c0 -20 -50.667 -38.335 -152 -55.002c-97.333 -16.667 -197.666 -25 -301 -25c-70 0 -189.833 9.16699 -359.5 27.5s-287.167 27.5 -352.5 27.5c-192.667 0 -358 -47.167 -496 -141.5s-207 -208.166 -207 -341.499c0 -54 19 -99.167 57 -135.5
s86.667 -54.5 146 -54.5c119.333 0 220 53 302 159c73.333 94.667 110 197.334 110 308.001c0 65.333 6 98 18 98c16.667 0 25 -33.667 25 -101c0 -130 -42.333 -245 -127 -345c-88.667 -105.333 -196.667 -158 -324 -158c-73.333 0 -133.333 22.667 -180 68
s-70 100.333 -70 165c0 152.667 78.667 279 236 379c149.333 94 328 141 536 141c72 0 180.167 -9.16699 324.5 -27.5s266.833 -27.5 367.5 -27.5c182.667 0 318 15.667 406 47c11.333 4 19 6 23 6c12 0 18 -4.66699 18 -14zM1833 1423c0 -8 -9.00098 -19.333 -27.001 -34
c-87.333 -70.667 -191 -215 -311 -433c56.667 27.333 133.667 76 231 146l19 -21c-45.333 -60 -93 -132.333 -143 -217l-127 -33l45 80l-64 -22c-138 -243.333 -271 -410.333 -399 -501c-137.333 -97.333 -320.333 -146 -549 -146c-22 0 -39.667 0.666992 -53 2
c-76.667 -119.333 -119.667 -228.666 -129 -327.999c-2 -22 -9.66699 -33 -23 -33c-12 0 -18 8.33301 -18 25c0 95.333 41 208.666 123 339.999c-106.667 14.667 -194 49.334 -262 104.001c-72.667 58.667 -109 129.667 -109 213c0 85.333 41.833 158.666 125.5 219.999
s187.167 92 310.5 92c176 0 316 -61 420 -183c79.333 46.667 235 115.667 467 207l252 346c110.667 127.333 180.334 191 209.001 191c8 0 12 -5 12 -15zM1315 837.998c-188 -68 -321.335 -126 -400.002 -174c20.667 -31.333 31 -50.666 31 -57.999
c0 -9.33301 -5.33301 -14 -16 -14c-9.33301 0 -19 8.66699 -29 26c-2.66699 5.33301 -8 13.666 -16 24.999c-155.333 -103.333 -286.333 -219.333 -393 -348c126.667 9.33301 264.334 61.666 413.001 156.999c158.667 100.667 295.334 229.334 410.001 386.001z
M859.997 675.998c-102.667 105.333 -234.334 158.001 -395.001 158.001c-102.667 0 -192 -24.333 -268 -73c-80.667 -51.333 -121 -116 -121 -194c0 -76.667 36.667 -141.334 110 -194.001c68.667 -49.333 152.667 -76 252 -80c92.667 134 233.334 261.667 422.001 383z" />
    <glyph glyph-name="G" unicode="G" horiz-adv-x="1290" 
d="M1864 1280c0 -4 -23.999 -33.001 -71.999 -87.001c-68 -75.333 -137.667 -170.666 -209 -285.999c-93.333 -151.333 -164.666 -257.333 -213.999 -318c-53.333 -66 -116.333 -124.333 -189 -175c-164.667 -114.667 -354.667 -172 -570 -172
c-136.667 0 -253 29.667 -349 89c-103.333 64 -155 147.667 -155 251c0 79.333 44.333 148.666 133 207.999c86.667 58 186.667 87 300 87c108.667 0 209.667 -26.667 303 -80c32.667 -19.333 69 -49 109 -89c48.667 -48 73 -86 73 -114c0 -9.33301 -4.66699 -14 -14 -14
c-7.33301 0 -14.333 5.33301 -21 16c-42 74 -101.667 132.333 -179 175c-79.333 44.667 -167.666 67 -264.999 67c-106.667 0 -198.834 -25.5 -276.501 -76.5s-116.5 -110.833 -116.5 -179.5c0 -67.333 33.333 -127.333 100 -180c72 -56.667 160.667 -85 266 -85
c162 0 326 51.667 492 155c160 98.667 289 223.334 387 374.001c-106.667 -74 -204.334 -111 -293.001 -111c-140 0 -236.333 61 -289 183c-84 -14 -159.667 -21 -227 -21c-180.667 0 -324.834 29 -432.501 87s-161.5 137 -161.5 237c0 88.667 43 163 129 223
c82.667 57.333 181.667 86 297 86c161.333 0 352.333 -59.333 573 -178c178 142 342.667 213 494 213c56 0 104.167 -12.5 144.5 -37.5s60.5 -55.5 60.5 -91.5c0 -100.667 -142.667 -227.667 -428 -381c-102.667 -55.333 -238.667 -99 -408 -131
c19.333 -44 50.833 -79.333 94.5 -106s92.167 -40 145.5 -40c142.667 0 296 86.667 460 260c162 170.667 259.667 256 293 256c10 0 15 -4.66699 15 -14zM1649 1432c0 26 -16.501 48.167 -49.501 66.5s-74.5 27.5 -124.5 27.5c-135.333 0 -283.666 -67 -444.999 -201
c28.667 -20 61 -46.333 97 -79c44.667 -39.333 67 -65 67 -77c0 -9.33301 -4 -14 -12 -14c-7.33301 0 -26 14.333 -56 43c-24.667 24 -67.667 57.333 -129 100c-106 -100 -159 -191.333 -159 -274c0 -16.667 2 -37 6 -61c188 33.333 358.667 95.333 512 186
c195.333 116 293 210.333 293 283zM961 1321c-188.667 112 -370.333 167.999 -545 167.999c-100.667 0 -188 -24 -262 -72c-79.333 -51.333 -119 -116 -119 -194c0 -84.667 45.667 -152.334 137 -203.001c97.333 -54.667 233.333 -82 408 -82c74 0 148.333 5.33301 223 16
c-4 26.667 -6 49.334 -6 68.001c0 86.667 54.667 186.334 164 299.001z" />
    <glyph glyph-name="H" unicode="H" horiz-adv-x="1327" 
d="M2679 1425c0 -56 -29.999 -116.665 -89.999 -181.998c-62 -66.667 -146 -128 -252 -184c-100 -52.667 -202 -90.667 -306 -114c-82.667 -18.667 -206.667 -36 -372 -52c-452 -456 -678 -792.667 -678 -1010c0 -81.333 28 -147.666 84 -198.999s127.667 -77 215 -77
c98.667 0 190 40.333 274 121c105.333 100.667 158 199.667 158 297c0 46 -15.667 84.333 -47 115s-71 46 -119 46c-82.667 0 -149.334 -30.667 -200.001 -92c-92 -110 -138.667 -200.667 -140 -272c0 -30 -7.33301 -45 -22 -45c-12.667 0 -19 10 -19 30
c0 102 42.667 197.667 128 287c82.667 86 166.334 129 251.001 129c61.333 0 111.5 -18.333 150.5 -55s58.5 -83.667 58.5 -141c0 -120.667 -55.333 -230.667 -166 -330c-102 -91.333 -204.333 -137 -307 -137c-107.333 0 -196.333 37.333 -267 112s-106 169 -106 283
c0 252.667 194.667 559 584 919c-63.333 -6 -151.333 -16.667 -264 -32c-130 -218 -248 -366 -354 -444c-117.333 -86.667 -281.333 -138 -492 -154c-48 -86 -83 -170 -105 -252c-4.66699 -18 -12 -27 -22 -27c-12 0 -18 7.66699 -18 23c0 56.667 32 142 96 256
c-112.667 0 -213.667 34.333 -303 103c-94.667 72.667 -142 160.334 -142 263.001c0 83.333 36 151.333 108 204s167.333 79 286 79c170 0 330.333 -66.333 481 -199c106 69.333 228.667 124.666 368 165.999l181 209c-152 -91.333 -297.667 -137 -437 -137
c-111.333 0 -206.333 27.167 -285 81.5s-118 119.833 -118 196.5c0 89.333 44 163.666 132 222.999s194.333 89 319 89c198.667 0 406.667 -75.333 624 -226c4.66699 3.33301 11 8.33301 19 15l50 43c30 24.667 47.333 37 52 37c8 0 12 -4.33301 12 -13
c0 -16.667 -25.667 -47.334 -77 -92.001c-4 -2.66699 -10.333 -8 -19 -16c68.667 -54.667 103 -88.334 103 -101.001c0 -10.667 -5.66699 -16 -17 -16c-6.66699 0 -46.334 28 -119.001 84c-73.333 -68.667 -127 -123 -161 -163c-31.333 -38 -75.333 -99.667 -132 -185
c54.667 10 150.334 21.667 287.001 35c469.333 410.667 803.333 616 1002 616c38 0 69.667 -10.667 95 -32s38 -49 38 -83zM2638 1423c0 49.333 -31.333 74.001 -94 74.001c-181.333 0 -460 -185.667 -836 -557c244 19.333 444.667 70 602 152c101.333 52 182 109 242 171
c57.333 59.333 86 112.666 86 159.999zM1511 1266c-208 144.667 -403.001 217 -585.001 217c-117.333 0 -215 -26.5 -293 -79.5s-117 -117.5 -117 -193.5c0 -64 33.333 -118.667 100 -164c68 -47.333 152.667 -71 254 -71c208.667 0 422.334 97 641.001 291zM1085 805.003
c-116 -40 -214.001 -86.332 -294.001 -138.999c13.333 -19.333 20 -33 20 -41c0 -11.333 -6 -17 -18 -17c-6 0 -19 10.333 -39 31c-119.333 -90.667 -218.333 -185.667 -297 -285c157.333 49.333 295 123.333 413 222c64.667 53.333 136.334 129.666 215.001 228.999z
M726.999 670.004c-56.667 58.667 -129.333 104.667 -218 138c-79.333 29.333 -157 44 -233 44c-104.667 0 -188.5 -22 -251.5 -66s-94.5 -102 -94.5 -174c0 -76 34.333 -143 103 -201s152 -87 250 -87c28 0 63.333 4 106 12c94 124 206.667 235.333 338 334z" />
    <glyph glyph-name="I" unicode="I" horiz-adv-x="1212" 
d="M1956 1503c0 -18 -8.5 -33.3369 -25.5 -46.0039s-38.5 -19 -64.5 -19c-15.333 0 -46.666 5.33301 -93.999 16c-89.333 -70.667 -160.333 -134.667 -213 -192c61.333 -43.333 92 -103.666 92 -180.999c0 -91.333 -37.333 -169.666 -112 -234.999s-163 -98 -265 -98
c-8.66699 0 -18.167 0.333008 -28.5 1s-16.5 1 -18.5 1c-84 -148 -205.333 -269 -364 -363c-164.667 -96.667 -337.667 -145 -519 -145c-143.333 0 -259.333 31 -348 93s-133 141.333 -133 238c0 92.667 43.167 171.5 129.5 236.5s189.166 97.5 308.499 97.5
c155.333 0 304.333 -66.667 447 -200c28.667 -27.333 43 -48 43 -62c0 -14.667 -6.33301 -22 -19 -22c-5.33301 0 -17.666 10 -36.999 30c-134.667 143.333 -279.334 215 -434.001 215c-106.667 0 -199.167 -28.833 -277.5 -86.5s-117.5 -126.5 -117.5 -206.5
c0 -76 29.667 -138 89 -186s136.666 -72 231.999 -72c294.667 0 584.334 156.333 869.001 469c-94.667 48.667 -142 133.334 -142 254.001c0 126.667 62 240.334 186 341.001c122 99.333 256.667 149 404 149c58 0 132.333 -10.333 223 -31c54.667 31.333 95.667 47 123 47
c44 0 66 -14.333 66 -43zM1915 1497c0 8 -9 12 -27 12c-16.667 0 -38.334 -7.33301 -65.001 -22c22.667 -4 42.334 -6 59.001 -6c22 0 33 5.33301 33 16zM1718 1466c-59.333 12.667 -116.002 19.001 -170.002 19.001c-146 0 -273.667 -45.333 -383 -136s-164 -195 -164 -313
c0 -102.667 41.667 -175 125 -217c70.667 79.333 139.667 163.666 207 252.999c70.667 92.667 116.334 151 137.001 175c-5.33301 1.33301 -12.666 2 -21.999 2c-32 0 -63.667 -10.833 -95 -32.5s-54.333 -48.167 -69 -79.5c-7.33301 -15.333 -15.333 -23 -24 -23
c-12.667 0 -19 7 -19 21c0 34 26.667 69.667 80 107c50 34.667 93 52 129 52c8 0 27 -2.66699 57 -8c60 62 130.333 122 211 180zM1604 1077c0 68 -25.334 117.333 -76.001 148c-71.333 -86.667 -141.666 -194 -210.999 -322l-64 -115c100 0 183.5 27.167 250.5 81.5
s100.5 123.5 100.5 207.5z" />
    <glyph glyph-name="J" unicode="J" horiz-adv-x="1176" 
d="M2189 1491c0 -20 -10.999 -36.998 -32.999 -50.998s-48.333 -21 -79 -21c-32.667 0 -86 9 -160 27c-58 -37.333 -145.333 -101 -262 -191c58.667 -42 88 -100 88 -174c0 -117.333 -52.667 -223.833 -158 -319.5s-222.666 -143.5 -351.999 -143.5
c-20.667 0 -37.667 1.66699 -51 5c-103.333 -172.667 -187.333 -305.334 -252 -398.001c52.667 -10 126 -33 220 -69c118 -45.333 177 -83 177 -113c0 -12 -6 -18 -18 -18c-7.33301 0 -15.666 3.33301 -24.999 10c-98.667 71.333 -226.334 121.666 -383.001 150.999
c-140 -213.333 -308 -383.333 -504 -510c-200.667 -129.333 -400.667 -194 -600 -194c-91.333 0 -164 18.667 -218 56s-81 88.333 -81 153c0 148.667 116 280.667 348 396c225.333 112.667 474.666 169 747.999 169c50 0 108.667 -2.66699 176 -8
c69.333 83.333 173.666 217.666 312.999 402.999c-48 24.667 -87.5 61.167 -118.5 109.5s-46.5 101.5 -46.5 159.5c0 153.333 81.167 290.5 243.5 411.5s344.5 181.5 546.5 181.5c60.667 0 128.334 -8 203.001 -24c77.333 39.333 137.333 59 179.999 59
c28.667 0 52.167 -5.66699 70.5 -17s27.5 -24.666 27.5 -39.999zM2144 1487c0 13.333 -19 20 -57 20c-24 0 -61.667 -10.667 -113 -32c62 -11.333 99 -17 111 -17c39.333 0 59 9.66699 59 29zM1858 1458c-37.333 10 -90.667 14.999 -160 14.999
c-180 0 -346 -55.333 -498 -166c-154 -112 -231 -237.667 -231 -377c0 -116.667 48.333 -196 145 -238c188 248 343 431.667 465 551c-18 5.33301 -38.333 8 -61 8c-73.333 0 -140 -27.833 -200 -83.5s-96.667 -122.5 -110 -200.5c-5.33301 -34.667 -14 -52 -26 -52
c-14 0 -21 8.33301 -21 25c0 74 35 152 105 234c67.333 78.667 152 118 254 118c30 0 61.333 -5.33301 94 -16c76 68.667 157.333 129.334 244 182.001zM1692 1085c0 65.333 -23.333 112 -70 140c-85.333 -92 -153 -171.333 -203 -238
c-54 -72.667 -123.667 -178.334 -209 -317.001h27c114 0 217.333 40.667 310 122c96.667 84.667 145 182.334 145 293.001zM735 207.001c-57.333 4 -106.332 6 -146.999 6c-248.667 0 -484.334 -54.833 -707.001 -164.5s-334 -227.5 -334 -353.5
c0 -45.333 18 -82.333 54 -111c38 -31.333 89 -47 153 -47c142 0 304 63.667 486 191c174.667 121.333 339.667 281 495 479z" />
    <glyph glyph-name="K" unicode="K" horiz-adv-x="1403" 
d="M2636 1477c0 -11.333 -6.33301 -16.999 -19 -16.999c2 0 -20 7.5 -66 22.5s-98.333 22.5 -157 22.5c-124 0 -242.333 -36 -355 -108c-110 -70.667 -232.667 -188.334 -368 -353.001c-99.333 -120 -193.333 -197.667 -282 -233c14.667 -34 22 -75 22 -123
c0 -106.667 -60.667 -263.667 -182 -471c-90 -153.333 -135 -266 -135 -338c0 -66 26.667 -123 80 -171c55.333 -50 122.666 -75 201.999 -75c96 0 185.333 43.333 268 130c85.333 88.667 128 187.334 128 296.001c0 43.333 -13.667 79.166 -41 107.499s-63 42.5 -107 42.5
c-81.333 0 -157.666 -46.333 -228.999 -139c-68 -87.333 -103 -175 -105 -263c0 -20 -5.33301 -30 -16 -30c-14 0 -21 12.333 -21 37c0 97.333 37.667 192.666 113 285.999c78.667 97.333 164.667 146 258 146c55.333 0 100.166 -18 134.499 -54s51.5 -82.333 51.5 -139
c0 -120.667 -45.167 -227.334 -135.5 -320.001s-192.5 -139 -306.5 -139c-102 0 -185.5 35.167 -250.5 105.5s-97.5 159.5 -97.5 267.5c0 106.667 38.333 217.334 115 332.001c143.333 215.333 215 367 215 455c0 12 -2.33301 26.333 -7 43
c-34 -8.66699 -71.333 -13 -112 -13c-76 -160 -179.333 -289.333 -310 -388c-136.667 -102.667 -280.667 -154 -432 -154c-133.333 0 -247 35.333 -341 106c-89.333 68 -134 145.333 -134 232c0 83.333 40.667 154 122 212s183.333 87 306 87
c97.333 0 188.333 -19.333 273 -58c31.333 -14 67.666 -36.333 108.999 -67c48.667 -36.667 73 -64 73 -82c0 -8.66699 -4 -13 -12 -13c-6 0 -22.333 12.333 -49 37c-105.333 96 -236.666 144 -393.999 144c-109.333 0 -200.833 -25.167 -274.5 -75.5
s-110.5 -111.833 -110.5 -184.5c0 -73.333 30.167 -135.166 90.5 -185.499s133.5 -75.5 219.5 -75.5c126.667 0 257.334 43.833 392.001 131.5s260 211.167 376 370.5c-20.667 14.667 -31 33.334 -31 56.001c0 36.667 36.667 55 110 55c80 112 135.333 191 166 237
c-193.333 -140.667 -370 -211 -530 -211c-93.333 0 -174.666 27.5 -243.999 82.5s-104 117.833 -104 188.5c0 96.667 56.333 176.667 169 240c106 60 232 90 378 90c204.667 0 380 -52.667 526 -158l57 61c22.667 26 38.334 39 47.001 39c14 0 21 -5.33301 21 -16
c0 -8.66699 -10.333 -22.334 -31 -41.001c-14 -13.333 -35 -35.333 -63 -66c62.667 -56.667 94 -92 94 -106c0 -12.667 -6.33301 -19 -19 -19c-8.66699 0 -22.334 11 -41.001 33c-9.33301 11.333 -30.333 31.333 -63 60c-68.667 -84.667 -119.334 -152.667 -152.001 -204
c-24 -38.667 -67 -117 -129 -235c30 -18 54 -38.333 72 -61c83.333 32 174 106.333 272 223c139.333 165.333 263.333 284 372 356c121.333 79.333 249.333 119 384 119c38.667 0 85.667 -6 141 -18c66 -14.667 99 -31 99 -49zM1546 1370
c-142 100 -307 150.001 -495 150.001c-137.333 0 -255.333 -27 -354 -81c-104 -56 -156 -126 -156 -210c0 -60.667 30 -113.834 90 -159.501s130.333 -68.5 211 -68.5c114 0 234 34 360 102c121.333 64.667 236 153.667 344 267zM1327 834.002c-11.333 16.667 -27 30 -47 40
l-29 -51c20.667 0 46 3.66699 76 11zM1190 899.002c-31.333 -2 -47 -11 -47 -27c0 -6 4.66699 -12.667 14 -20z" />
    <glyph glyph-name="L" unicode="L" horiz-adv-x="1139" 
d="M2066 1374c0 -130.667 -99.332 -262.333 -297.999 -395c-190 -126.667 -395.667 -206.667 -617 -240c-110 -208.667 -252.667 -356.667 -428 -444c46 -9.33301 78.667 -14 98 -14c69.333 0 137 18 203 54c57.333 31.333 125.666 84.333 204.999 159
c12.667 12 23 18 31 18s12 -3.33301 12 -10c0 -8.66699 -6.33301 -18.334 -19 -29.001c-114.667 -102 -193.667 -165.333 -237 -190c-48 -27.333 -107.333 -41 -178 -41c-34.667 0 -91.334 9.33301 -170.001 28c-102 -39.333 -229 -59 -381 -59c-168 0 -252 32.667 -252 98
c0 50.667 73 76 219 76c90 0 190.333 -14.333 301 -43c178 88.667 321.333 214.334 430 377.001c-54.667 -2.66699 -90 -4 -106 -4c-173.333 0 -316 37.333 -428 112c-114.667 77.333 -172 178.333 -172 303c0 104 50 194.333 150 271c104 79.333 230.667 119 380 119
c117.333 0 235.333 -20.667 354 -62c116.667 -40.667 216.334 -94.667 299.001 -162c163.333 142 308 213 434 213c51.333 0 92.5 -12.5 123.5 -37.5s46.5 -57.5 46.5 -97.5zM2023 1372c0 64 -44.998 96 -134.998 96c-108.667 0 -239 -68.667 -391 -206
c56 -52 84 -84.333 84 -97c0 -12 -5.33301 -18 -16 -18c-10 0 -23.667 9.66699 -41 29c-12.667 13.333 -32 31.666 -58 54.999c-60 -64.667 -108 -125 -144 -181c-28.667 -44.667 -77.334 -132.667 -146.001 -264c207.333 34.667 399.666 112.334 576.999 233.001
c180 123.333 270 241 270 353zM1430 1266c-178.667 140.667 -383.668 211 -615.001 211c-130.667 0 -243.667 -32 -339 -96c-98.667 -66.667 -148 -148.667 -148 -246c0 -111.333 52.333 -202.333 157 -273c102.667 -69.333 232.334 -104 389.001 -104c42 0 88.667 2 140 6
c125.333 192.667 264 360 416 502zM500.002 315.001c-94.667 23.333 -180 35 -256 35c-114.667 0 -172 -13.667 -172 -41c0 -32.667 44.333 -49 133 -49c100 0 198.333 18.333 295 55z" />
    <glyph glyph-name="M" unicode="M" horiz-adv-x="1669" 
d="M2515 1585c0 -10 -37.998 -44 -113.998 -102c-114 -86.667 -206.333 -161.667 -277 -225c-129.333 -114.667 -244 -234.334 -344 -359.001c-285.333 -356 -428 -654.333 -428 -895c0 -90.667 27.333 -166.167 82 -226.5s122 -90.5 202 -90.5c92 0 178.333 37 259 111
c84 76.667 126 163 126 259c0 49.333 -19.167 91.5 -57.5 126.5s-82.5 52.5 -132.5 52.5c-116 0 -207.667 -79.333 -275 -238c-6.66699 -16.667 -14.667 -25 -24 -25c-8 0 -12 5.66699 -12 17c0 23.333 14 58.333 42 105c26.667 44.667 53.334 80 80.001 106
c54 50 117 75 189 75c60.667 0 113.667 -20.667 159 -62c46.667 -44 70 -97 70 -159c0 -108.667 -44.667 -204.334 -134 -287.001c-86.667 -80 -183.334 -120 -290.001 -120c-108 0 -200.833 43.5 -278.5 130.5s-116.5 188.833 -116.5 305.5c0 168.667 119 400.667 357 696
c234 290.667 494 533.667 780 729c6.66699 5.33301 22.334 16.333 47 33c-295.333 -134 -629.333 -435 -1002 -903c-164.667 -207.333 -260.667 -311 -288 -311c-10 0 -15 4.66699 -15 14c0 8 7.66699 19.667 23 35c145.333 146 261 301 347 465
c126 238.667 241 430.334 345 575.001c-108.667 -118 -209.667 -249.667 -303 -395c-165.333 -258 -315 -438.333 -449 -541c-146 -112 -316 -168 -510 -168c-132 0 -251.333 32.333 -358 97c-114.667 69.333 -172 154 -172 254c0 78 42.167 146.167 126.5 204.5
s186.833 87.5 307.5 87.5c94 0 182.667 -19 266 -57c43.333 -19.333 85.333 -44 126 -74c43.333 -32 65 -55.667 65 -71c0 -11.333 -5.33301 -17 -16 -17c-6.66699 0 -17.667 7.66699 -33 23c-109.333 103.333 -248 155 -416 155c-104.667 0 -194.334 -24.5 -269.001 -73.5
s-112 -107.5 -112 -175.5c0 -70 36.333 -128.333 109 -175c76 -48.667 175 -73 297 -73c279.333 0 558.333 153 837 459c40.667 44 143.667 170.667 309 380c73.333 92.667 143.333 170.667 210 234c69.333 65.333 117.666 98 144.999 98c10.667 0 16 -4 16 -12
c0 -10.667 -24.667 -44.667 -74 -102c-108 -127.333 -230 -322.666 -366 -585.999c204.667 227.333 376 393 514 497c58 44 125.667 87.667 203 131c97.333 53.333 167.666 80 211 80c10.667 0 16 -4 16 -12z" />
    <glyph glyph-name="N" unicode="N" horiz-adv-x="1139" 
d="M2669 1346c0 -12.667 -5 -18.999 -15 -18.999c-6 0 -25 10.667 -57 32c-38.667 26 -75.334 45.667 -110.001 59c-55.333 21.333 -115 32 -179 32c-428 0 -891.333 -385 -1390 -1155c-8 -12.667 -15.667 -19 -23 -19c-8 0 -12 5 -12 15c0 36.667 22.667 122.667 68 258
c38 114 74.667 213 110 297c62 149.333 139.667 289.333 233 420c-70.667 -76.667 -136 -167 -196 -271c-162 -276.667 -310 -469.334 -444 -578.001c-144 -116.667 -317 -175 -519 -175c-127.333 0 -240.333 30.667 -339 92c-104 65.333 -156 144.333 -156 237
c0 82 45 153.833 135 215.5s197 92.5 321 92.5c82.667 0 165.334 -16.667 248.001 -50c43.333 -16.667 83.5 -38 120.5 -64s55.5 -45.333 55.5 -58s-4.66699 -19 -14 -19c-7.33301 0 -19 7 -35 21c-101.333 87.333 -228.333 131 -381 131c-111.333 0 -207 -26.667 -287 -80
s-120 -115.666 -120 -186.999c0 -67.333 33.333 -122.333 100 -165c70 -45.333 162.667 -68 278 -68c188.667 0 356.667 53.667 504 161c133.333 98 294 275 482 531c88.667 121.333 161.667 211.666 219 270.999c18 18 53.667 47.667 107 89c62 48 100.667 72 116 72
c9.33301 0 14 -4 14 -12c0 -7.33301 -11 -22.333 -33 -45c-112 -116 -206.167 -247.333 -282.5 -394s-151.166 -341 -224.499 -583c475.333 710 921.666 1065 1339 1065c68.667 0 137 -13.667 205 -41c46 -18.667 85.333 -39.667 118 -63c29.333 -20.667 44 -35.667 44 -45z
" />
    <glyph glyph-name="O" unicode="O" horiz-adv-x="946" 
d="M1444 1317c0 -119.333 -82.667 -235.998 -248 -349.998c2.66699 -16.667 4 -29.667 4 -39c0 -134.667 -86 -282.334 -258 -443.001c-174.667 -162 -337.667 -243 -489 -243c-2.66699 0 -16.334 1.33301 -41.001 4v-27c0 -100.667 12.333 -195.667 37 -285
c1.33301 -4.66699 2 -10 2 -16c0 -12 -6.33301 -18 -19 -18c-14 0 -25.667 23 -35 69c-20 101.333 -30 188.666 -30 261.999v27c-119.333 48 -179 141.667 -179 281c0 210.667 114 416.667 342 618c114.667 101.333 238.334 182 371.001 242s253 90 361 90
c52 0 95.333 -17.5 130 -52.5s52 -74.833 52 -119.5zM1399 1319c0 34.667 -11.8311 64.834 -35.498 90.501s-53.5 38.5 -89.5 38.5c-116 0 -254.333 -59.333 -415 -178c-149.333 -110.667 -279 -242.334 -389 -395.001c-115.333 -159.333 -173 -294 -173 -404
c0 -62 24.667 -111.667 74 -149c18.667 196 92.667 375.333 222 538c133.333 168 275.666 252 426.999 252c33.333 0 65.666 -9.5 96.999 -28.5s53 -43.5 65 -73.5c64.667 37.333 117 83.833 157 139.5s60 112.167 60 169.5zM1153 948.002
c-94 -38 -168.332 -57 -222.999 -57c-19.333 0 -29 6.66699 -29 20c0 10.667 20.667 19 62 25c55.333 8.66699 115.333 27 180 55c-22 53.333 -65 80 -129 80c-136.667 0 -270.334 -86 -401.001 -258c-128.667 -169.333 -195 -341.333 -199 -516c20 -6.66699 37 -10 51 -10
c142.667 0 293.667 78 453 234c156.667 154 235 296.333 235 427z" />
    <glyph glyph-name="P" unicode="P" horiz-adv-x="1024" 
d="M2273 1483c0 -10 -5.99805 -15.002 -17.998 -15.002c-8.66699 0 -18.334 5 -29.001 15c-64 57.333 -165 86 -303 86c-133.333 0 -266.333 -43.667 -399 -131c53.333 -64 80 -136.333 80 -217c0 -136 -49.167 -258.167 -147.5 -366.5s-209.166 -162.5 -332.499 -162.5
c-28.667 0 -63.334 5.66699 -104.001 17c-71.333 -127.333 -178 -235 -320 -323c-156 -96 -319.667 -144 -491 -144c-139.333 0 -256.833 29.833 -352.5 89.5s-143.5 131.5 -143.5 215.5s46.667 157.667 140 221c90.667 61.333 193 92 307 92c94 0 183.333 -21 268 -63
c39.333 -20 79.666 -48.333 120.999 -85c43.333 -38.667 65 -67.667 65 -87c0 -12.667 -6 -19 -18 -19c-6 0 -13 5 -21 15c-102 130.667 -238.333 196 -409 196c-100.667 0 -192 -25.333 -274 -76c-88 -53.333 -132 -117.333 -132 -192c0 -64 36.667 -122 110 -174
c76 -53.333 164.333 -80 265 -80c130 0 265.333 45.333 406 136c132 84.667 254.667 200.334 368 347.001c-27.333 32 -41 62.667 -41 92c0 16.667 7 25 21 25c4.66699 0 11.667 -10.333 21 -31c12 -26.667 18.667 -41 20 -43l8 -12l94 135
c162.667 236.667 305.334 403.334 428.001 500.001c-76.667 60 -175.667 90 -297 90c-212 0 -402 -53.333 -570 -160c-164.667 -104 -247 -218.667 -247 -344c0 -46.667 20.667 -88.667 62 -126c43.333 -40 96.333 -60 159 -60c131.333 0 246.333 53.333 345 160
c95.333 102.667 143 218 143 346c0 21.333 -2.16699 40.333 -6.5 57s-6.5 27 -6.5 31c0 9.33301 5 14 15 14c27.333 0 41 -41 41 -123c0 -131.333 -54.333 -251.5 -163 -360.5s-231.334 -163.5 -368.001 -163.5c-80 0 -145.667 24.667 -197 74
c-46 44.667 -69 96.334 -69 155.001c0 141.333 86.667 267.666 260 378.999c176 113.333 380.333 170 613 170c130.667 0 237.667 -37.667 321 -113c140 93.333 285.333 140 436 140c66 0 137.333 -12.333 214 -37c85.333 -27.333 128 -57.333 128 -90zM1561 1214
c0 72 -23.334 138.334 -70.001 199.001c-92 -73.333 -163 -146.666 -213 -219.999c-35.333 -52.667 -86 -149.334 -152 -290.001c-24.667 -52.667 -52.667 -105.334 -84 -158.001c30 -8 56.667 -12 80 -12c112.667 0 214.334 50.667 305.001 152
c89.333 99.333 134 209 134 329z" />
    <glyph glyph-name="Q" unicode="Q" horiz-adv-x="1024" 
d="M1331 1264c0 -191.333 -77.002 -377.667 -231.002 -559c-143.333 -168 -321.666 -298 -534.999 -390c65.333 -18.667 117.333 -28 156 -28c132.667 0 262.334 67.333 389.001 202c12.667 14 22.334 21 29.001 21c9.33301 0 14 -4.66699 14 -14
c0 -7.33301 -7.66699 -18.333 -23 -33c-147.333 -147.333 -283 -221 -407 -221c-56 0 -130.333 16.333 -223 49c-92.667 -32.667 -175.334 -49 -248.001 -49c-66.667 0 -125.667 11.667 -177 35s-77 50.333 -77 81c0 42.667 45 64 135 64c82.667 0 200.667 -27.333 354 -82
c176.667 66.667 346.834 208.5 510.501 425.5s245.5 408.833 245.5 575.5c0 70.667 -18.833 126.667 -56.5 168s-87.834 62 -150.501 62c-170 0 -345.167 -82.667 -525.5 -248s-270.5 -323 -270.5 -473c0 -62 19 -113 57 -153s86.333 -60 145 -60c142 0 269.667 75 383 225
c90.667 119.333 136 282 136 488c0 21.333 8 32 24 32c15.333 0 23 -17.667 23 -53c0 -201.333 -48 -364.333 -144 -489c-58 -76.667 -124.833 -137.167 -200.5 -181.5s-149.5 -66.5 -221.5 -66.5c-69.333 0 -127.5 24.333 -174.5 73s-70.5 110.334 -70.5 185.001
c0 166 92.333 334 277 504c188 172 377.333 258 568 258c82 0 150.667 -33.333 206 -100s83 -149.334 83 -248.001zM419.998 316.999c-113.333 40 -208.333 59.999 -285 59.999c-58.667 0 -88 -7 -88 -21c0 -19.333 24.333 -35.666 73 -48.999
c41.333 -10.667 84 -16 128 -16c54 0 111.333 8.66699 172 26z" />
    <glyph glyph-name="R" unicode="R" horiz-adv-x="1479" 
d="M2664 1384c0 -10.667 -5.33594 -16 -16.0029 -16c-6.66699 0 -15.667 5.33301 -27 16c-102 108 -231.667 162 -389 162c-128 0 -251.333 -32 -370 -96c60 -66.667 90 -146.667 90 -240c0 -119.333 -46 -222.666 -138 -309.999s-208 -140.333 -348 -159
c4.66699 -32.667 7 -59 7 -79c0 -98 -30.333 -200.333 -91 -307l-167 -255c-60.667 -94.667 -91 -176.334 -91 -245.001c0 -82 26.667 -152.333 80 -211c51.333 -56 110.666 -84 177.999 -84c100 0 194.667 45.333 284 136s134 188 134 292c0 50.667 -15 91.667 -45 123
s-68.333 47 -115 47c-80.667 0 -154.167 -44.667 -220.5 -134s-99.833 -186.666 -100.5 -291.999c0 -26 -7 -39 -21 -39c-12 0 -18 13.667 -18 41c0 119.333 36.167 226.666 108.5 321.999s156.833 143 253.5 143c58 0 105.667 -19.333 143 -58s56 -88.334 56 -149.001
c0 -112.667 -45.333 -219.334 -136 -320.001c-94.667 -104.667 -200 -157 -316 -157c-94.667 0 -174 36.833 -238 110.5s-96 165.834 -96 276.501c0 124.667 64 272.667 192 444c112 150 168 264 168 342c0 18 -1.33301 33.667 -4 47c-37.333 0 -77.666 4.33301 -120.999 13
c-216 -337.333 -499.333 -506 -850 -506c-152 0 -277.667 31.5 -377 94.5s-149 143.5 -149 241.5c0 96.667 43.5 178.834 130.5 246.501s191.5 101.5 313.5 101.5c102.667 0 197.667 -24 285 -72c38 -20.667 77.333 -50 118 -88c46.667 -43.333 70 -76.666 70 -99.999
c0 -12.667 -4.66699 -19 -14 -19c-10.667 0 -23 10.333 -37 31c-41.333 61.333 -101.333 110.833 -180 148.5s-160.667 56.5 -246 56.5c-107.333 0 -199.666 -29 -276.999 -87c-80 -58.667 -120 -130.667 -120 -216c0 -74 32.667 -136 98 -186s148 -75 248 -75
c158.667 0 321 45.667 487 137c158 86 294 199 408 339c-27.333 22.667 -41 43 -41 61l4 12c-50 -30.667 -89 -51.334 -117 -62.001c-40 -14.667 -87.667 -22 -143 -22c-75.333 0 -138.166 25 -188.499 75s-75.5 111.667 -75.5 185c0 137.333 88 261.833 264 373.5
s369.333 167.5 580 167.5c138.667 0 254 -34.667 346 -104c122.667 72 258.334 108 407.001 108c100 0 186.667 -17.667 260 -53c44 -21.333 83.333 -47.5 118 -78.5s52 -55.5 52 -73.5zM1901 1214c0 78.667 -27.3311 148.334 -81.998 209.001
c-152.667 -108 -302.334 -290 -449.001 -546c36 -20.667 63.333 -52.334 82 -95.001c125.333 16 230.666 64 315.999 144c88.667 82.667 133 178.667 133 288zM1784 1454c-82 57.333 -184.337 86 -307.004 86c-201.333 0 -384.666 -53 -549.999 -159
c-162 -104.667 -243 -218.334 -243 -341.001c0 -62 20.333 -113 61 -153s93.334 -60 158.001 -60c118 0 230.833 52.167 338.5 156.5s162.834 217.5 165.501 339.5c0.666992 38 8.33398 57 23.001 57c12 0 18 -18.333 18 -55c0 -73.333 -20.667 -148 -62 -224
c-42 -78.667 -97.667 -142.667 -167 -192c16 2.66699 26 4 30 4c12.667 0 27 -2 43 -6l291 369c28.667 30.667 64.667 64.334 108 101.001zM1401 776c-12 22 -29.667 43.333 -53 64l-33 -56c25.333 -5.33301 54 -8 86 -8zM1264 872c-38.667 0 -58 -6 -58 -18
c0 -9.33301 6.33301 -19 19 -29z" />
    <glyph glyph-name="S" unicode="S" horiz-adv-x="985" 
d="M2101 1423c0 -133.333 -102.67 -267.667 -308.003 -403c-195.333 -128.667 -397.666 -206 -606.999 -232c-98.667 -183.333 -200 -316.333 -304 -399c-124 -98 -274.667 -147 -452 -147c-131.333 0 -236.166 28.167 -314.499 84.5s-117.5 129.166 -117.5 218.499
c0 78 36 146.333 108 205s157.333 88 256 88c82.667 0 170.334 -22.667 263.001 -68c36.667 -18 78 -44.333 124 -79c52 -39.333 78 -67 78 -83c0 -12 -6.66699 -18 -20 -18c-9.33301 0 -18.333 4.66699 -27 14c-50.667 56.667 -113.5 102.334 -188.5 137.001
s-148.5 52 -220.5 52c-90 0 -167.167 -25 -231.5 -75s-96.5 -109 -96.5 -177c0 -69.333 28 -125.333 84 -168s129 -64 219 -64c128 0 246.333 38 355 114c104 72 210.333 187 319 345c-54.667 -2.66699 -90.334 -4 -107.001 -4c-172.667 0 -315 37.667 -427 113
c-115.333 76.667 -173 177.667 -173 303c0 103.333 50.333 193.333 151 270c104 79.333 230.667 119 380 119c114.667 0 231.667 -20.667 351 -62s220 -96 302 -164c164.667 144 309.334 216 434.001 216c51.333 0 92.5 -12.5 123.5 -37.5s46.5 -57.833 46.5 -98.5z
M2058 1421c0 64.667 -45.001 97.001 -135.001 97.001c-98.667 0 -229 -69 -391 -207c56 -51.333 84 -83.666 84 -96.999c0 -12 -5.66699 -18 -17 -18c-9.33301 0 -22.666 9.66699 -39.999 29c-20 21.333 -39.333 39.666 -58 54.999c-60.667 -64.667 -108.667 -125 -144 -181
c-28.667 -44.667 -77 -132.334 -145 -263.001c186.667 24.667 371.667 96.667 555 216c194 126 291 249 291 369zM1464 1315c-178.667 140.667 -383.331 211 -613.998 211c-130.667 0 -243.334 -32 -338.001 -96c-98 -66 -147 -148 -147 -246
c0 -111.333 52 -202.333 156 -273c102 -69.333 231.333 -104 388 -104c42 0 88.667 2 140 6c125.333 192.667 263.666 360 414.999 502z" />
    <glyph glyph-name="T" unicode="T" horiz-adv-x="1100" 
d="M2509 1536c0 -20 -50.667 -38 -152 -54c-96.667 -16 -197 -24 -301 -24c-70.667 0 -190.667 8.83301 -360 26.5s-287 26.5 -353 26.5c-176 0 -336 -44.667 -480 -134c-148 -92.667 -222 -200 -222 -322c0 -54 19 -98.667 57 -134s86.667 -53 146 -53
c110 0 206 44 288 132s123 192.333 123 313c0 61.333 6.33301 92 19 92c16 0 24 -30.667 24 -92c0 -126.667 -43.667 -238.667 -131 -336c-90 -100 -196.333 -150 -319 -150c-69.333 0 -128 22.333 -176 67s-72 99 -72 163c0 61.333 22.167 125 66.5 191
s103.5 122.333 177.5 169c142 90 317.333 135 526 135c72 0 180.333 -8.83301 325 -26.5s267.667 -26.5 369 -26.5c160.667 0 290.667 15 390 45c13.333 4 25.333 6 36 6c12.667 0 19 -4.66699 19 -14zM1798 1436c0 -8.66699 -8.66992 -21 -26.0029 -37
c-104.667 -96 -210 -230.667 -316 -404c-174 -284 -323.333 -477.333 -448 -580c-140.667 -115.333 -312 -173 -514 -173c-133.333 0 -248.666 30.667 -345.999 92c-101.333 64.667 -152 143.667 -152 237c0 82 45.333 153.833 136 215.5s197.667 92.5 321 92.5
c86.667 0 169.667 -16.667 249 -50c43.333 -17.333 83.666 -38.833 120.999 -64.5s56 -44.834 56 -57.501s-5.66699 -19 -17 -19c-6 0 -17 7 -33 21c-101.333 87.333 -229 131 -383 131c-111.333 0 -206.666 -26.5 -285.999 -79.5s-119 -115.5 -119 -187.5
c0 -67.333 33.333 -122.333 100 -165c70 -45.333 163 -68 279 -68c176.667 0 349.334 59.333 518.001 178c80 56 152 120.667 216 194c44.667 50.667 128.334 157.334 251.001 320.001c133.333 177.333 227 290 281 338c59.333 53.333 91.333 80 96 80
c10.667 0 16 -4.66699 16 -14z" />
    <glyph glyph-name="U" unicode="U" horiz-adv-x="1442" 
d="M1860 1268l-560.001 -711c-88.667 -112.667 -133 -189 -133 -229c0 -20.667 13 -31 39 -31c57.333 0 119.333 25 186 75c2 1.33301 53 46.333 153 135c5.33301 4.66699 11.333 7 18 7c9.33301 0 14 -4 14 -12c0 -15.333 -42.333 -58 -127 -128
c-97.333 -80 -180.666 -120 -249.999 -120c-84.667 0 -127 38.333 -127 115c0 24.667 3.33301 49.667 10 75c-156 -134.667 -276 -202 -360 -202c-42 0 -77.333 13 -106 39c-30.667 27.333 -46 62.666 -46 105.999c0 72.667 50.667 159.334 152 260.001
c161.333 160.667 272 283 332 367c73.333 102 110 195.333 110 280c0 63.333 -27.833 113.666 -83.5 150.999s-128.834 56 -219.501 56c-196 0 -377.667 -54 -545 -162s-251 -226 -251 -354c0 -58.667 20.333 -106.5 61 -143.5s91.334 -55.5 152.001 -55.5
c114 0 226.333 50.333 337 151c114 103.333 173 215 177 335c0.666992 35.333 7.33398 53 20.001 53c15.333 0 23 -10.333 23 -31c0 -128.667 -58.667 -251.334 -176 -368.001c-118.667 -118.667 -246.667 -178 -384 -178c-70 0 -129 22.333 -177 67s-72 102.667 -72 174
c0 137.333 87.833 263.5 263.5 378.5s365.5 172.5 569.5 172.5c236 0 354 -99 354 -297c0 -160 -121.333 -363.333 -364 -610c-94 -95.333 -143.333 -145.666 -148 -150.999c-40.667 -46 -61 -83.667 -61 -113c0 -50.667 28.667 -76 86 -76
c73.333 0 167.666 49.667 282.999 149c93.333 80.667 184 178.334 272 293.001l410 533h168z" />
    <glyph glyph-name="V" unicode="V" horiz-adv-x="983" 
d="M2669 1425c0 -9.33301 -5 -14 -15 -14c-6 0 -15.333 4 -28 12c-73.333 46.667 -165 70 -275 70c-142.667 0 -283.5 -44.833 -422.5 -134.5s-315.167 -249.167 -528.5 -478.5s-414.333 -394.333 -603 -495c-179.333 -95.333 -367.333 -143 -564 -143
c-179.333 0 -322 28 -428 84c-110 58.667 -165 141 -165 247c0 82 44.333 150.333 133 205c84 52 182.333 78 295 78c100 0 190 -19.667 270 -59c43.333 -22 83.833 -50 121.5 -84s56.5 -60.667 56.5 -80c0 -10 -5.33301 -15 -16 -15c-10 0 -19.667 6.33301 -29 19
c-90 117.333 -222.333 176 -397 176c-106.667 0 -198.167 -23.5 -274.5 -70.5s-114.5 -104.167 -114.5 -171.5c0 -70.667 34.5 -131 103.5 -181s151.167 -75 246.5 -75c185.333 0 357 59 515 177c142.667 106.667 311 291.667 505 555
c-122 -102.667 -256.667 -154 -404 -154c-102.667 0 -193.834 29.333 -273.501 88s-119.5 126.334 -119.5 203.001c0 92 49.333 167 148 225c92.667 54.667 207.334 82 344.001 82c203.333 0 384 -50.667 542 -152c72 86 113.667 129 125 129c14 0 21 -5.33301 21 -16
c0 -5.33301 -37.667 -50.333 -113 -135c60 -50.667 90 -84 90 -100c0 -11.333 -5.33301 -17 -16 -17c-5.33301 0 -14.333 6.33301 -27 19c-22 21.333 -46.667 43 -74 65c-72.667 -96.667 -134.334 -193 -185.001 -289c-63.333 -122 -107.333 -201.667 -132 -239
c-120 -186.667 -264.667 -329.334 -434 -428.001c228.667 73.333 454.667 217.333 678 432l518 520c196.667 168 399.334 252 608.001 252c90.667 0 174.667 -17.667 252 -53c44 -20 66 -38 66 -54zM1266 1309c-145.333 96.667 -317.334 145.001 -516.001 145.001
c-128 0 -234.667 -24.667 -320 -74c-87.333 -50.667 -131 -115.334 -131 -194.001c0 -67.333 33.667 -125.333 101 -174c70 -50.667 155 -76 255 -76c214.667 0 418.334 124.333 611.001 373z" />
    <glyph glyph-name="W" unicode="W" horiz-adv-x="1251" 
d="M2779 1419c0 -9.33301 -4.66504 -13.998 -13.998 -13.998c-6.66699 0 -16.334 4 -29.001 12c-71.333 46.667 -157.333 70 -258 70c-182.667 0 -357.667 -62.333 -525 -187c-148.667 -111.333 -330 -304.333 -544 -579c-94 -120.667 -201.667 -233 -323 -337
c-96 -82.667 -150 -124 -162 -124c-11.333 0 -17 5.33301 -17 16c0 8 6.33301 17.667 19 29c104 95.333 197 210.666 279 345.999c60.667 100 165.667 300.667 315 602c-34.667 -38 -80.667 -99.333 -138 -184c-127.333 -189.333 -219.666 -319 -276.999 -389
c-74 -90 -156.333 -168 -247 -234c-188.667 -136 -395.334 -204 -620.001 -204c-162.667 0 -295.167 30.833 -397.5 92.5s-153.5 141.167 -153.5 238.5c0 82 44.333 150.333 133 205c84 52 182.333 78 295 78c99.333 0 188.666 -19.667 267.999 -59
c44 -22 85 -50.167 123 -84.5s57 -60.833 57 -79.5c0 -10 -5.33301 -15 -16 -15c-9.33301 0 -19 6.33301 -29 19c-92 117.333 -224.333 176 -397 176c-106.667 0 -198.167 -23.5 -274.5 -70.5s-114.5 -104.167 -114.5 -171.5c0 -69.333 34 -129.333 102 -180
s148.667 -76 242 -76c182.667 0 358 65 526 195c156.667 120 320 307 490 561c-152.667 -104 -291.334 -156 -416.001 -156c-102.667 0 -193.5 27.5 -272.5 82.5s-118.5 120.5 -118.5 196.5c0 95.333 53.667 176 161 242c98 60 205.333 90 322 90
c173.333 0 353 -60 539 -180c18 25.333 40.333 52.333 67 81c20 22 33 33 39 33c11.333 0 17 -5.33301 17 -16c0 -8 -8.33301 -22.333 -25 -43c-8 -12 -27.667 -39.333 -59 -82c40.667 -26 61 -45 61 -57c0 -12.667 -6 -19 -18 -19c-8.66699 0 -21.667 7 -39 21l-31 20
c-64.667 -88 -130.834 -197.333 -198.501 -328s-121.167 -223.667 -160.5 -279c-72.667 -100.667 -170 -198 -292 -292c124 54 236.333 135.333 337 244c80 86 195 240.333 345 463c54.667 80.667 113.667 159.334 177 236.001c88 106 147.667 159 179 159
c13.333 0 20 -6.33301 20 -19c0 -8.66699 -6.66699 -19.334 -20 -32.001c-49.333 -46.667 -89.333 -95 -120 -145c-21.333 -34.667 -55.666 -103.334 -102.999 -206.001c-106.667 -229.333 -209.667 -416.333 -309 -561c68.667 62.667 135.334 135.667 200.001 219
c219.333 282.667 406 481 560 595c168.667 125.333 346.667 188 534 188c50.667 0 111.667 -9.66699 183 -29c85.333 -22.667 128 -48.667 128 -78zM1278 1313c-180.667 114.667 -352.668 172.001 -516.001 172.001c-106 0 -203.667 -27.333 -293 -82
c-95.333 -58.667 -143 -129 -143 -211c0 -62.667 33.833 -116.834 101.5 -162.501s150.5 -68.5 248.5 -68.5c212.667 0 413.334 117.333 602.001 352z" />
    <glyph glyph-name="X" unicode="X" horiz-adv-x="1327" 
d="M2284 1460c0 -12 -6.33008 -18.0029 -18.9971 -18.0029c-6 0 -19.333 3.33301 -40 10s-38.667 10 -54 10c-146 0 -300.667 -63 -464 -189c-140.667 -109.333 -319.334 -292 -536.001 -548c22 -2.66699 33.667 -4 35 -4c6.66699 0 15.167 1.66699 25.5 5
s18.166 5 23.499 5c11.333 0 17 -4.66699 17 -14c0 -26 -28 -39 -84 -39c-20.667 0 -37.667 1.33301 -51 4c-102.667 -123.333 -154 -222.333 -154 -297c0 -69.333 30 -104 90 -104c20 0 56 14 108 42c75.333 42 161 104.333 257 187c15.333 13.333 26 20 32 20
c10 0 15 -4 15 -12c0 -5.33301 -6.33301 -13.333 -19 -24c-184.667 -168 -317.667 -252 -399 -252c-38 0 -69 13.833 -93 41.5s-36 61.5 -36 101.5c0 38 13.667 84.333 41 139c-230.667 -188 -451.334 -282 -662.001 -282c-114 0 -209.667 26.833 -287 80.5
s-116 122.834 -116 207.501c0 76 34 141 102 195c72 57.333 163 86 273 86c6.66699 0 23.667 -1.33301 51 -4c0 100.667 43 206.334 129 317.001c78.667 101.333 174.334 186 287.001 254c119.333 71.333 231.333 107 336 107c86 0 153 -26 201 -78c46 -50 69 -119 69 -207
c0 -75.333 -21.333 -160.666 -64 -255.999c176.667 187.333 326 323 448 407c145.333 100 283.666 150 414.999 150c34 0 63 -4.33301 87 -13s36 -18 36 -28zM1307 1253c0 54 -19.002 99 -57.002 135c-40 37.333 -92.667 56 -158 56c-134.667 0 -271.667 -56.333 -411 -169
c-92 -74 -168.667 -156.333 -230 -247c-44 -64 -66 -139.667 -66 -227c108.667 -28 208.334 -85.333 299.001 -172c88 30 174.167 109.5 258.5 238.5s126.5 249.5 126.5 361.5c0 36 3.33301 56.333 10 61c2 1.33301 4.66699 2 8 2c14 0 21 -21.667 21 -65
c0 -110 -42.333 -232.5 -127 -367.5s-172.667 -222.167 -264 -261.5c9.33301 -11.333 14 -20.333 14 -27c0 -12 -5.33301 -18 -16 -18c-4.66699 0 -17 9 -37 27c-41.333 -14 -74.666 -21 -99.999 -21c-63.333 0 -115.5 19 -156.5 57s-66.833 88 -77.5 150
c-18 2.66699 -39.667 4 -65 4c-97.333 0 -177.333 -24.333 -240 -73c-58.667 -46.667 -88 -103 -88 -169c0 -69.333 32 -127.666 96 -174.999c66 -49.333 150 -74 252 -74c228 0 467 144 717 432c-5.33301 1.33301 -12.333 2 -21 2c-6 0 -14.5 -1 -25.5 -3
s-18.167 -3 -21.5 -3c-13.333 0 -20 5.33301 -20 16c0 8 8.16699 16.5 24.5 25.5s35.5 13.5 57.5 13.5c8.66699 0 23 -2.66699 43 -8c169.333 199.333 254 365.666 254 498.999zM643.001 613.997c-69.333 65.333 -153.333 113.333 -252 144c25.333 -104 86 -156 182 -156
c18 0 41.333 4 70 12z" />
    <glyph glyph-name="Y" unicode="Y" horiz-adv-x="1288" 
d="M1774 1128l-560.001 -705.999c-80 -106 -185.667 -237.667 -317 -395c41.333 -23.333 93.333 -63 156 -119c73.333 -65.333 110 -111 110 -137c0 -12.667 -5.33301 -19 -16 -19c-6.66699 0 -19 11 -37 33c-66.667 81.333 -148.667 151 -246 209
c-288.667 -307.333 -578.667 -461 -870 -461c-112 0 -205.833 21.5 -281.5 64.5s-113.5 96.5 -113.5 160.5c0 103.333 74.833 194 224.5 272s324.5 117 524.5 117c150 0 293.333 -23 430 -69c36.667 42 92.667 112.333 168 211c-61.333 -31.333 -118.666 -47 -171.999 -47
c-122.667 0 -184 49 -184 147c0 74 50.333 160.667 151 260c155.333 152.667 264.666 273 327.999 361c76.667 106 115 201.333 115 286c0 63.333 -27.667 113.666 -83 150.999s-128.666 56 -219.999 56c-196 0 -377.833 -54 -545.5 -162s-251.5 -226 -251.5 -354
c0 -58.667 20.333 -106.5 61 -143.5s91.334 -55.5 152.001 -55.5c119.333 0 234.666 52 345.999 156s167.333 214 168 330c0 35.333 7.66699 53 23 53c13.333 0 20 -10.333 20 -31c0 -133.333 -58.5 -257.666 -175.5 -372.999s-244.167 -173 -381.5 -173
c-70.667 0 -129.667 22 -177 66c-50 46 -75 104.333 -75 175c0 137.333 88.333 263.666 265 378.999c174.667 114.667 364.334 172 569.001 172c236 0 354 -99 354 -297c0 -103.333 -41 -214.333 -123 -333c-52.667 -76 -135.334 -170.333 -248.001 -283
c-135.333 -135.333 -203 -221.333 -203 -258c0 -53.333 41 -80 123 -80c66 0 131 23.667 195 71c62 46.667 135 124.667 219 234l410 532h168zM749.999 43.001c-123.333 40.667 -259.332 61 -407.999 61c-189.333 0 -354 -35.667 -494 -107
c-136 -70 -204 -150.333 -204 -241c0 -53.333 31.167 -96 93.5 -128s142.166 -48 239.499 -48c148 0 281.667 36.333 401 109c118 70.667 242 188.667 372 354z" />
    <glyph glyph-name="Z" unicode="Z" horiz-adv-x="1139" 
d="M1638 1221c0 -156 -57.998 -295.166 -173.998 -417.499s-268 -206.5 -456 -252.5c14.667 -36.667 22 -72.334 22 -107.001c0 -20 -0.666992 -35 -2 -45c87.333 25.333 161 63 221 113c16.667 13.333 27.667 20 33 20c8 0 12 -4 12 -12c0 -24 -35 -56 -105 -96
c-60.667 -34 -116.334 -58.667 -167.001 -74c-30 -148.667 -143.333 -303 -340 -463c-106 -86 -212.833 -155.167 -320.5 -207.5s-196.834 -78.5 -267.501 -78.5c-54 0 -98 11.333 -132 34c-36 24.667 -54 58.334 -54 101.001c0 116.667 105.667 241.667 317 375
c114.667 72 345.667 158 693 258c22.667 55.333 34 101.666 34 138.999c0 4 -1.33301 14.333 -4 31c-46 -6 -76 -9 -90 -9c-106.667 0 -160 27.333 -160 82c0 48 37 72 111 72c68.667 0 126.667 -30 174 -90c136.667 40.667 262.334 132.667 377.001 276
c117.333 147.333 176 290.666 176 429.999c0 67.333 -24.333 121 -73 161c-50.667 42 -121.334 63 -212.001 63c-148 0 -290.833 -63.333 -428.5 -190s-206.5 -256 -206.5 -388c0 -52 17 -94 51 -126s78.667 -48 134 -48c88.667 0 172 38.333 250 115
c81.333 80 130.333 178.333 147 295l4 24c4 26 11 39 21 39c13.333 0 20 -8.66699 20 -26c0 -122.667 -45.833 -234.667 -137.5 -336s-193.167 -152 -304.5 -152c-68 0 -123 19.833 -165 59.5s-63 91.5 -63 155.5c0 147.333 73.667 288 221 422s298.333 201 453 201
c115.333 0 209.333 -32.667 282 -98s109 -148.666 109 -249.999zM930.002 582.001c-24 40.667 -67.667 61 -131 61c-36 0 -54 -11 -54 -33c0 -26 31.667 -39 95 -39c28 0 58 3.66699 90 11zM891.002 311.001c-294.667 -79.333 -510.333 -160.999 -647 -244.999
c-196.667 -121.333 -295 -231.333 -295 -330c0 -26.667 11 -49.334 33 -68.001s52 -28 90 -28c121.333 0 264 67.667 428 203c162 134 292.333 290 391 468z" />
    <glyph glyph-name="bracketleft" unicode="[" horiz-adv-x="797" 
d="M1890 1612c0 -10 -21.668 -16.999 -65.001 -20.999c-72 -4 -215.333 -17.667 -430 -41l-1260 -1376c58.667 -6 188.334 -17 389.001 -33c41.333 -2.66699 62 -9.33398 62 -20.001c0 -12.667 -19.333 -19 -58 -19c-68.667 0 -164 5.33301 -286 16
c-106.667 9.33301 -177.667 17 -213 23l1349 1465c180.667 16 331.667 24 453 24c39.333 0 59 -6 59 -18z" />
    <glyph glyph-name="backslash" unicode="\" horiz-adv-x="944" 
d="M822 70c0 -24.667 -8.33301 -37 -25 -37c-16 0 -27.333 27 -34 81l-167 1307c-6 46 -9 79.667 -9 101c0 33.333 10.667 50 32 50s35 -25.333 41 -76l146 -1254c10.667 -94 16 -151.333 16 -172z" />
    <glyph glyph-name="bracketright" unicode="]" horiz-adv-x="797" 
d="M1430 1591l-1350 -1464c-180 -16.667 -331 -25 -453 -25c-39.333 0 -59 6.33301 -59 19c0 9.33301 21.667 16.333 65 21c72.667 3.33301 216 16.666 430 39.999l1260 1377c-58.667 5.33301 -188.334 16 -389.001 32c-41.333 3.33301 -62 10.333 -62 21
c0 12 19.333 18 58 18c69.333 0 164.666 -5 285.999 -15c106.667 -9.33301 178 -17.333 214 -24z" />
    <glyph glyph-name="asciicircum" unicode="^" horiz-adv-x="1024" 
d="M1075 1118h-70l-171 312l-167 -312h-70l208 371h60z" />
    <glyph glyph-name="underscore" unicode="_" horiz-adv-x="1024" 
d="M1023 -256h-1023v101h1023v-101z" />
    <glyph glyph-name="grave" unicode="`" horiz-adv-x="410" 
d="M379 672c0 -5.33301 -3.33203 -8 -9.99902 -8c-4.66699 0 -13.667 3.33301 -27 10l-102 53c-34.667 18 -52 33 -52 45c0 16.667 8.33301 25 25 25c7.33301 0 21.666 -8.33301 42.999 -25l113 -86c6.66699 -5.33301 10 -10 10 -14z" />
    <glyph glyph-name="a" unicode="a" horiz-adv-x="455" 
d="M612 520c0 -8 -8.00098 -18.999 -24.001 -32.999l-150 -139c-79.333 -68 -138.666 -102 -177.999 -102c-33.333 0 -55.666 21 -66.999 63c-46 -42 -85 -63 -117 -63c-49.333 0 -74 24.333 -74 73c0 59.333 26.667 119.666 80 180.999c60.667 69.333 120.667 104 180 104
c25.333 0 52.666 -16.333 81.999 -49l31 39h125l-219 -289c-8.66699 -10.667 -13 -16.667 -13 -18c0 -4 3.66699 -6 11 -6c36.667 0 122 66.667 256 200c32.667 32.667 53.667 49 63 49s14 -3.33301 14 -10zM321.999 524.001c-15.333 26 -30.667 39 -46 39
c-5.33301 0 -20.333 -13 -45 -39c-103.333 -109.333 -155 -184.333 -155 -225c0 -9.33301 4 -14 12 -14c24 0 63 32.667 117 98z" />
    <glyph glyph-name="b" unicode="b" 
d="M1061 1368c0 -48 -55.668 -129.668 -167.001 -245.001s-300 -286.333 -566 -513c-148 -198 -222 -300.333 -222 -307c0 -10.667 3.66699 -16 11 -16c20.667 0 51.667 15.667 93 47c37.333 28 68.333 57.333 93 88c-1.33301 8 -2 18.333 -2 31c0 26.667 14 54.667 42 84
c24.667 25.333 43.334 38 56.001 38c23.333 0 35 -9.33301 35 -28c0 -20.667 -21.667 -57.667 -65 -111c20.667 4 56 18.667 106 44c48 25.333 71.333 38 70 38c8 0 12 -4.66699 12 -14c0 -21.333 -27 -44.333 -81 -69c-50 -23.333 -96.667 -37.333 -140 -42
c-92 -98 -170 -147 -234 -147c-51.333 0 -77 27.333 -77 82c0 44.667 20.333 97.334 61 158.001c44 64.667 137.667 179 281 343l304 352c157.333 170 265.333 255 324 255c44 0 66 -22.667 66 -68zM1022 1362c0 19.333 -10.333 29.001 -31 29.001
c-34 0 -79 -29.667 -135 -89c-46.667 -49.333 -119 -140 -217 -272l-199 -266c388 313.333 582 512.666 582 597.999z" />
    <glyph glyph-name="c" unicode="c" horiz-adv-x="477" 
d="M128 478l-24.998 9.99805c73.333 82.667 151 121 233 115c56.667 0 85 -32 85 -96c0 -56 -32.167 -113.667 -96.5 -173s-127.833 -89 -190.5 -89c-46.667 0 -70 19.667 -70 59c0 26.667 9 49.834 27 69.501s38.333 29.5 61 29.5c30.667 0 46 -24.667 46 -74
c68.667 35.333 117.667 82.5 147 141.5s17.666 90.333 -35.001 94s-113.334 -25.166 -182.001 -86.499zM247.002 283.998l43 44.999c117.333 42.667 223 108.334 317 197.001c47.333 18.667 36.833 -3.5 -31.5 -66.5s-177.833 -121.5 -328.5 -175.5z" />
    <glyph glyph-name="d" unicode="d" horiz-adv-x="530" 
d="M922 1124l-622.998 -817c-8 -10.667 -12 -17.334 -12 -20.001c0 -5.33301 4 -8 12 -8c15.333 0 65.666 29 150.999 87c79.333 54 137.666 97.333 174.999 130c15.333 13.333 25.333 20 30 20c11.333 0 17 -4 17 -12c0 -9.33301 -10.333 -21.666 -31 -36.999l-158 -118
c-98.667 -68.667 -166.667 -103 -204 -103c-34 0 -56 23 -66 69c-52 -46 -92.333 -69 -121 -69c-50.667 0 -76 26 -76 78c0 56.667 29.333 117.5 88 182.5s117 97.5 175 97.5c30 0 58.667 -16.333 86 -49l432 569h125zM340.002 524c-14.667 26 -30.333 39 -47 39
c-7.33301 0 -22.333 -13 -45 -39c-27.333 -30.667 -59.333 -72.167 -96 -124.5s-56 -84.5 -58 -96.5s1.33301 -18 10 -18c24 0 55 22.333 93 67z" />
    <glyph glyph-name="e" unicode="e" horiz-adv-x="379" 
d="M506 492c0 -17.333 -42.333 -54.3311 -127 -110.998c-135.333 -90 -234.333 -135 -297 -135c-21.333 0 -40.333 7.83301 -57 23.5s-25 35.167 -25 58.5c0 57.333 34.667 117.666 104 180.999s134.333 95 195 95c50.667 0 76 -18.333 76 -55c0 -38 -33 -78.667 -99 -122
c-62 -40.667 -117 -62.334 -165 -65.001c-18 -24 -27 -43 -27 -57c0 -10.667 5.33301 -16 16 -16c29.333 0 80 19 152 57c65.333 34.667 123.333 71 174 109l68 51c8 0 12 -4.66699 12 -14zM336 547.002c0 18.667 -11.667 28 -35 28c-22.667 0 -52 -23.667 -88 -71l-80 -107
c38.667 5.33301 82.167 25.5 130.5 60.5s72.5 64.833 72.5 89.5z" />
    <glyph glyph-name="f" unicode="f" horiz-adv-x="303" 
d="M920 1272c0 -63.333 -60.999 -159.333 -182.999 -288c-117.333 -124.667 -273 -260 -467 -406l-194 -273c84.667 30 165.334 72.667 242.001 128c67.333 48.667 100.666 73 99.999 73c8 0 12 -4.66699 12 -14s-23.667 -32.666 -71 -69.999
c-42.667 -32.667 -78.334 -57.334 -107.001 -74.001c-62 -36 -133.667 -68.667 -215 -98l-334 -467h-139l510 670c450 590.667 713.333 886 790 886c37.333 0 56 -22.333 56 -67zM881.001 1270c0 20 -7.66699 29.999 -23 29.999c-26 0 -92 -63 -198 -189
c-108 -129.333 -211.333 -269.666 -310 -420.999c137.333 110 254 214.333 350 313c120.667 124 181 213 181 267z" />
    <glyph glyph-name="g" unicode="g" horiz-adv-x="455" 
d="M606 516c0 -6 -14.998 -23.001 -44.998 -51.001c-122.667 -114.667 -221.667 -194 -297 -238l-327 -440c-110 -147.333 -199 -221 -267 -221c-38 0 -57 20.333 -57 61c0 64.667 56 158.334 168 281.001c108.667 119.333 238.334 232 389.001 338l29 43
c-40.667 -28.667 -78.334 -43 -113.001 -43c-49.333 0 -74 28.667 -74 86c0 60.667 31.5 121.167 94.5 181.5s127.833 90.5 194.5 90.5c29.333 0 54.666 -17 75.999 -51l29 41h122l-200 -277c62.667 46.667 139 109 229 187c17.333 14.667 29.666 22 36.999 22
c8 0 12 -3.33301 12 -10zM352.002 515.999c-15.333 31.333 -31.667 47 -49 47c-15.333 0 -63 -53.333 -143 -160c-42.667 -56 -64 -90 -64 -102c0 -8 4.33301 -12 13 -12c18 0 46 13 84 39c42 28 74 58.667 96 92zM98.001 138.999
c-118.667 -88 -222.001 -181.333 -310.001 -280c-90.667 -102 -136 -178 -136 -228c0 -16 6.66699 -24 20 -24c18.667 0 48.334 20.167 89.001 60.5s78.667 86.833 114 139.5z" />
    <glyph glyph-name="h" unicode="h" horiz-adv-x="494" 
d="M1024 1368c0 -48 -55.666 -129.667 -166.999 -245s-300 -286.333 -566 -513l-58 -78l32 17c59.333 30 104.666 45 135.999 45c32 0 48 -11 48 -33c0 -9.33301 -11.667 -31.666 -35 -66.999l-95 -144c-16 -24.667 -24 -38.334 -24 -41.001c0 -8 2 -12 6 -12
c10 0 52 25.667 126 77c76.667 54 135 99.333 175 136c14.667 13.333 25.667 20 33 20c9.33301 0 14 -4 14 -12c0 -6.66699 -5.33301 -14.667 -16 -24c-184 -165.333 -303.667 -248 -359 -248c-44.667 0 -67 21 -67 63c0 43.333 32 111.666 96 204.999
c-80 -31.333 -139.333 -73.666 -178 -126.999l-96 -131h-125l495 643c276 358 462.333 537 559 537c44 0 66 -22.667 66 -68zM985.001 1362c0 19.333 -10.333 29.001 -31 29.001c-57.333 0 -174.666 -120.333 -351.999 -361l-196 -266
c173.333 140.667 313.666 266.667 420.999 378c105.333 109.333 158 182.666 158 219.999z" />
    <glyph glyph-name="i" unicode="i" horiz-adv-x="303" 
d="M385 766c0 -44 -22 -66 -66 -66c-16.667 0 -31.334 6.5 -44.001 19.5s-19 27.833 -19 44.5c0 17.333 6.33301 32.5 19 45.5s28.334 19.5 47.001 19.5c42 0 63 -21 63 -63zM461 518c0 -4.66699 -6.33203 -12.667 -18.999 -24c-179.333 -165.333 -299.333 -248 -360 -248
c-24.667 0 -44.834 9 -60.501 27s-23.5 41 -23.5 69c0 34 20.333 73.667 61 119l121 133h127l-188 -223c-24.667 -29.333 -37 -50 -37 -62c0 -8 4.66699 -12 14 -12c44 0 150 71 318 213c16 13.333 26.667 20 32 20c10 0 15 -4 15 -12z" />
    <glyph glyph-name="j" unicode="j" horiz-adv-x="455" 
d="M473 766c0 -44 -21 -66 -63 -66c-17.333 0 -32.333 6.5 -45 19.5s-19 27.833 -19 44.5c0 43.333 21.333 65 64 65c42 0 63 -21 63 -63zM612 518c0 -6.66699 -5.33398 -14.666 -16.001 -23.999c-75.333 -66 -164 -134.333 -266 -205l-221 -154l-107 -147
c-72 -100 -146.333 -185.333 -223 -256c-85.333 -78 -151.666 -117 -198.999 -117c-36.667 0 -55 21 -55 63c0 56.667 43.333 130 130 220c80.667 83.333 188 170.666 322 261.999l246 411c-45.333 -45.333 -83.333 -80 -114 -104c-10.667 -8 -19.667 -12.667 -27 -14
c-9.33301 0 -14 3.33301 -14 10s19 27 57 61c28 25.333 52 48.666 72 69.999h198l-235 -365c203.333 126.667 338.333 220.334 405 281.001c15.333 13.333 26.333 20 33 20c9.33301 0 14 -4 14 -12zM-59.001 82.001c-251.333 -186 -377.001 -319.667 -377.001 -401
c0 -18 8 -27 24 -27c30 0 66.667 25.667 110 77c34.667 41.333 94.334 126.333 179.001 255z" />
    <glyph glyph-name="k" unicode="k" horiz-adv-x="530" 
d="M1036 1368c0 -99.333 -244.332 -351.999 -732.999 -757.999l-55 -73c86 44.667 147.333 67 184 67c60 0 90 -24 90 -72c0 -18.667 -6.66699 -35.167 -20 -49.5s-27.666 -21.5 -42.999 -21.5c-14.667 0 -28 6 -40 18s-18 25.667 -18 41c0 19.333 7 29 21 29
c10.667 0 16 -8.5 16 -25.5s7 -25.5 21 -25.5c16 0 24 10.667 24 32c0 22 -15 33 -45 33c-31.333 0 -66 -9.66699 -104 -29c-26.667 -14 -81.334 -48 -164.001 -102l-8 -12c97.333 38 158.666 57 183.999 57c28.667 0 43 -8.66699 43 -26c0 -12 -11.667 -33.333 -35 -64
c-34 -44.667 -51 -69.334 -51 -74.001c0 -8 3.33301 -12 10 -12c28 0 88.667 32.667 182 98c76.667 53.333 125.334 90.333 146.001 111c14 13.333 25 20 33 20c9.33301 0 14 -3.33301 14 -10c0 -5.33301 -6 -14 -18 -26c-57.333 -57.333 -131 -113.666 -221 -168.999
c-86 -52.667 -144.333 -79 -175 -79c-46 0 -69 22.333 -69 67c0 21.333 11 50.666 33 87.999c-78 -24.667 -126 -49 -144 -73l-53 -72h-125l496 643c275.333 358 461.666 537 558.999 537c43.333 0 65 -22.667 65 -68zM997.001 1362c0 19.333 -10 29 -30 29
c-57.333 0 -175 -120.333 -353 -361l-196 -266c386 314 579 513.333 579 598z" />
    <glyph glyph-name="l" unicode="l" horiz-adv-x="379" 
d="M1036 1368c0 -48.667 -50.667 -126.5 -152 -233.5s-273 -263.833 -515 -470.5l-97 -136c-86 -120.667 -129 -191.667 -129 -213c0 -12 4.33301 -18 13 -18c23.333 0 64.333 17.333 123 52c69.333 41.333 139.333 95 210 161c15.333 13.333 26.333 20 33 20
c10 0 15 -4 15 -12c0 -5.33301 -6.33301 -13.333 -19 -24c-183.333 -165.333 -309 -248 -377 -248c-28 0 -50.667 9.16699 -68 27.5s-26 41.166 -26 68.499c0 74.667 120.333 260.334 361 557.001c289.333 358 477 537 563 537c43.333 0 65 -22.667 65 -68zM999 1362
c0 19.333 -10 29 -30 29c-34.667 0 -80 -29.333 -136 -88c-50 -52 -123 -143 -219 -273l-196 -266c171.333 136.667 311 260.5 419 371.5s162 186.5 162 226.5z" />
    <glyph glyph-name="m" unicode="m" horiz-adv-x="872" 
d="M1030 518c0 -5.33301 -5.99805 -13.333 -17.998 -24c-183.333 -165.333 -307 -248 -371 -248c-22.667 0 -41.334 7.66699 -56.001 23s-22 32 -22 50c0 34 20.667 77.333 62 130l80 106c-31.333 -8.66699 -70 -29.334 -116 -62.001
c-50.667 -34.667 -93.334 -72 -128.001 -112l-109 -125h-129l240 299c-94.667 -35.333 -174 -90.666 -238 -165.999l-112 -133h-123l250 295c-19.333 -1.33301 -57 -24 -113 -68c-14 -10.667 -23.667 -16 -29 -16c-8 0 -12 4 -12 12c0 12 21.667 35.333 65 70
c46.667 36.667 83.667 55 111 55c46.667 0 70 -28.667 70 -86c78.667 57.333 130.334 86 155.001 86c34.667 0 52 -18.333 52 -55c0 -17.333 -5 -38.666 -15 -63.999c104 79.333 182 119 234 119c40.667 0 61 -15 61 -45c0 -12 -4.66699 -24.333 -14 -37l-139 -186
c-10 -12.667 -15 -21.667 -15 -27c0 -6.66699 5.66699 -10 17 -10c15.333 0 53.666 20 114.999 60c66.667 43.333 132.667 93.666 198 150.999c15.333 13.333 26.333 20 33 20c10.667 0 16 -4 16 -12z" />
    <glyph glyph-name="n" unicode="n" horiz-adv-x="645" 
d="M801 518c0 -6.66699 -5.66406 -14.667 -16.9971 -24c-189.333 -165.333 -313.333 -248 -372 -248c-22 0 -40.5 7.33301 -55.5 22s-22.5 31 -22.5 49c0 33.333 21.667 77.333 65 132c24 28.667 50 64 78 106c-30.667 -8.66699 -69.334 -29.334 -116.001 -62.001
c-50.667 -35.333 -93.334 -72.666 -128.001 -111.999l-108 -125h-135l252 297c-26 -3.33301 -64.333 -26.666 -115 -69.999c-12.667 -10.667 -22.334 -16 -29.001 -16c-8 0 -12 4 -12 12c0 12 21.667 35.333 65 70c46.667 36.667 83.667 55 111 55
c45.333 0 68 -28.667 68 -86c80 57.333 146.667 86 200 86c41.333 0 62 -15 62 -45c0 -12.667 -5.66699 -26.334 -17 -41.001l-139 -182c-9.33301 -12.667 -14 -21.667 -14 -27c0 -6.66699 4.66699 -10 14 -10c42 0 148 70.333 318 211c16 13.333 26.667 20 32 20
c10 0 15 -4 15 -12z" />
    <glyph glyph-name="o" unicode="o" 
d="M551 498c0 -16.667 -44.332 -53.667 -132.999 -111c-146.667 -94 -251.334 -141 -314.001 -141s-94 28.667 -94 86c0 62.667 33.333 123.667 100 183s136.334 89 209.001 89c54.667 0 82 -28 82 -84c0 -25.333 -10 -55 -30 -89c-18.667 -30 -39.334 -54.333 -62.001 -73
c68 32.667 131.667 75.667 191 129c18 16.667 31 25 39 25s12 -4.66699 12 -14zM336.001 547c0 14.667 -5.66602 22 -16.999 22c-28.667 0 -72.334 -41 -131.001 -123c-62.667 -88 -94 -137.667 -94 -149c0 -8 5 -12 15 -12c13.333 0 34 11 62 33c32.667 26 63 58.667 91 98
c49.333 69.333 74 113 74 131z" />
    <glyph glyph-name="p" unicode="p" horiz-adv-x="530" 
d="M690 518c0 -5.33301 -6 -13.333 -18 -24c-186 -165.333 -305 -248 -357 -248c-21.333 0 -39.833 6.83301 -55.5 20.5s-23.5 30.5 -23.5 50.5c0 32 21 75 63 129c14 18 41.333 55 82 111c-35.333 -7.33301 -86.666 -38 -153.999 -92
c-52.667 -42 -98.334 -83.667 -137.001 -125l-401 -557h-140l893 1151h66l-309 -436c96.667 70.667 171.667 106 225 106c43.333 0 65 -15 65 -45c0 -13.333 -6 -28.333 -18 -45l-133 -178c-8 -11.333 -12 -20.333 -12 -27s4 -10 12 -10c31.333 0 133 70.333 305 211
c16.667 13.333 27.667 20 33 20c9.33301 0 14 -4 14 -12z" />
    <glyph glyph-name="q" unicode="q" 
d="M573 520c0 -8 -7.33398 -19.001 -22.001 -33.001l-131 -133c-49.333 -48 -95.666 -78 -138.999 -90c6.66699 -24 10 -46.333 10 -67c0 -81.333 -31.667 -164.5 -95 -249.5s-127.333 -127.5 -192 -127.5c-50.667 0 -76 24.667 -76 74c0 34 33.667 98.667 101 194l121 172
c-21.333 -9.33301 -39.333 -14 -54 -14c-47.333 0 -71 29.333 -71 88c0 64.667 25 120.667 75 168c74 68 139 102 195 102c32 0 57.333 -17 76 -51l35 41h102l-191 -262c46.667 24.667 107 74.334 181 149.001c32 32.667 52.333 49 61 49c9.33301 0 14 -3.33301 14 -10z
M343.999 523.999c-11.333 24.667 -23 37 -35 37c-20.667 0 -63.667 -46.333 -129 -139c-46 -66 -69 -108.333 -69 -127c0 -5.33301 3.33301 -8 10 -8c14 0 37 14.333 69 43c28.667 26 52.667 52.667 72 80zM251.999 179.999c0 16.667 -2.66699 32.332 -8 46.999l-140 -194
c-66.667 -93.333 -100 -146.666 -100 -159.999c0 -8 4 -12 12 -12c46.667 0 97.667 38.167 153 114.5s83 144.5 83 204.5z" />
    <glyph glyph-name="r" unicode="r" 
d="M573 518c0 -6.66699 -5.33496 -14.666 -16.002 -23.999c-182.667 -165.333 -307 -248 -373 -248c-52 0 -78 23.667 -78 71c0 32.667 46 112.667 138 240l-35 10c-58.667 -66.667 -95.667 -100 -111 -100c-8 0 -12 4 -12 12c0 7.33301 9.66699 19.666 29 36.999
c30.667 28 59.334 58.667 86.001 92c28.667 37.333 47 56 55 56c10.667 0 16 -5 16 -15c0 -6 -2.66699 -12 -8 -18l-28 -33c26.667 -5.33301 55.334 -8 86.001 -8c28.667 0 43 -8.33301 43 -25c0 -10 -6.33301 -23.667 -19 -41l-137 -188
c-9.33301 -13.333 -14 -22.333 -14 -27c0 -6.66699 4.66699 -10 14 -10c43.333 0 149 70.333 317 211c16.667 13.333 27.667 20 33 20c9.33301 0 14 -4 14 -12z" />
    <glyph glyph-name="s" unicode="s" 
d="M551 498c0 -9.33301 -43.666 -46.332 -130.999 -110.999c-127.333 -94 -237.333 -141 -330 -141c-78 0 -117 26.667 -117 80c0 30.667 21.333 68 64 112l170 176c0 24.667 8 37 24 37l17 -4c40 30 74 45 102 45c12.667 0 19 -5.33301 19 -16
c0 -12.667 -12.333 -24.334 -37 -35.001c-18 -8 -33.667 -17 -47 -27c28.667 -39.333 43 -80 43 -122c0 -50.667 -13 -98.667 -39 -144c105.333 58 175.666 104.333 210.999 139c16 16.667 29 25 39 25c8 0 12 -4.66699 12 -14zM268.001 532.001
c0 14.667 -4.66699 30.665 -14 47.998l-166 -174c-32.667 -34.667 -49 -62 -49 -82c0 -26 26.667 -39 80 -39c42.667 30.667 78.167 68.834 106.5 114.501s42.5 89.834 42.5 132.501z" />
    <glyph glyph-name="t" unicode="t" horiz-adv-x="303" 
d="M688 1090l-129.001 -166.001h98l-30 -39h-99l-438 -559c-9.33301 -12.667 -14 -21.667 -14 -27s3.33301 -8 10 -8c44.667 0 150.334 69.667 317.001 209c15.333 12 24.333 18 27 18c9.33301 0 14 -4 14 -12c0 -7.33301 -33.333 -38.666 -100 -93.999
c-132.667 -110.667 -222.667 -166 -270 -166c-25.333 0 -46 8.5 -62 25.5s-24 37.167 -24 60.5c0 30 29.333 81 88 153l323 400h-98l31 39h98l135 166h123z" />
    <glyph glyph-name="u" unicode="u" horiz-adv-x="530" 
d="M688 518c0 -5.33301 -5.99902 -13.334 -17.999 -24.001c-180.667 -165.333 -305.667 -248 -375 -248c-40 0 -61.333 25.333 -64 76c-54.667 -50.667 -101 -76 -139 -76c-56 0 -84 26 -84 78c0 30 17 67.333 51 112l121 158h142l-197 -266
c-9.33301 -13.333 -14 -22.333 -14 -27c0 -8 4.66699 -12 14 -12c18 0 60.667 34.667 128 104c59.333 61.333 117.666 128.333 174.999 201h129l-201 -258c-13.333 -17.333 -20 -27.666 -20 -30.999c0.666992 -2.66699 2.66699 -4 6 -4c9.33301 0 42 18.667 98 56
c66.667 44 133.667 95 201 153c16 13.333 27 20 33 20c9.33301 0 14 -4 14 -12z" />
    <glyph glyph-name="v" unicode="v" 
d="M573 518c0 -6.66699 -5.33203 -14.667 -15.999 -24c-88 -78 -155 -117 -201 -117c-17.333 0 -34.333 8 -51 24c-98.667 -103.333 -169.667 -155 -213 -155c-57.333 0 -86 26 -86 78c0 36 23.333 85 70 147l92 123h127l-184 -266c-11.333 -16 -17 -25.667 -17 -29
c0 -5.33301 2.66699 -8 8 -8c14.667 0 42.167 16.5 82.5 49.5s74.5 66.833 102.5 101.5c-2.66699 11.333 -4 23 -4 35c0 29.333 9.83301 57.833 29.5 85.5s41.167 41.5 64.5 41.5c26 0 39 -11 39 -33c0 -30 -25.333 -73 -76 -129c17.333 -10.667 31.666 -16 42.999 -16
c35.333 0 83 28 143 84c14.667 13.333 25.667 20 33 20c9.33301 0 14 -4 14 -12zM367.001 549c0 6.66699 -3 10.001 -9 10.001c-8 0 -16.5 -9.83301 -25.5 -29.5s-13.5 -37.834 -13.5 -54.501c32 25.333 48 50 48 74z" />
    <glyph glyph-name="w" unicode="w" horiz-adv-x="645" 
d="M801 518c0 -6 -5.66895 -13.998 -17.002 -23.998c-70 -64.667 -138.667 -97 -206 -97c-10 0 -20.333 1.33301 -31 4c-97.333 -103.333 -181.333 -155 -252 -155c-34 0 -56.667 23.667 -68 71c-53.333 -47.333 -98.333 -71 -135 -71c-24 0 -44 7.66699 -60 23
s-24 33.666 -24 54.999c0 30 17 67.333 51 112l121 158h142l-197 -266c-9.33301 -13.333 -14 -22.333 -14 -27c0 -6.66699 4 -10 12 -10c42.667 0 144.334 101 305.001 303h129l-205 -262c-9.33301 -12.667 -14 -20.334 -14 -23.001c2 -5.33301 6 -8 12 -8
c16.667 0 47.667 18 93 54c40.667 32.667 67 57 79 73c-2.66699 8 -4 15.667 -4 23c0 30 15 64 45 102c28 35.333 50.667 53 68 53s26 -8.66699 26 -26c0 -28 -28.667 -78 -86 -150c62.667 0 125.334 27.667 188.001 83c14 11.333 23 17 27 17c10 0 15 -4 15 -12z" />
    <glyph glyph-name="x" unicode="x" horiz-adv-x="530" 
d="M688 518c0 -5.33301 -6 -13.332 -18 -23.999c-80 -72.667 -161 -133.334 -243 -182.001c-75.333 -44 -129.666 -66 -162.999 -66c-46 0 -69 34.667 -69 104c-46 -69.333 -88.333 -104 -127 -104s-58 19.667 -58 59c0 16.667 6.16699 31.5 18.5 44.5
s26.166 19.5 41.499 19.5c17.333 0 26 -7.66699 26 -23c0 -13.333 -5.33301 -20 -16 -20c-2 0 -4.83301 0.333008 -8.5 1s-7.16699 1 -10.5 1c-13.333 0 -20 -7.66699 -20 -23c0 -14.667 8.33301 -22 25 -22c33.333 0 77.666 48.333 132.999 145c8 57.333 12 89.333 12 96
c0 7.33301 -2 11 -6 11c-6 0 -32 -17.333 -78 -52c-14.667 -10.667 -24.334 -16 -29.001 -16c-8 0 -12 4 -12 12c0 6.66699 28 33.334 84 80.001c36 30 68.667 45 98 45c32.667 0 49 -24.667 49 -74c51.333 49.333 88.333 74 111 74c42.667 0 64 -21.667 64 -65
c0 -16.667 -6.66699 -31.834 -20 -45.501s-28 -20.5 -44 -20.5c-30 0 -45 11 -45 33c0 12 6 18 18 18c4.66699 0 9.33398 -2.33301 14.001 -7s9 -7 13 -7c19.333 0 29 10.333 29 31c0 18.667 -9 28 -27 28c-15.333 0 -57 -37.333 -125 -112c-4 -45.333 -6 -89 -6 -131
c0 -11.333 4 -17 12 -17c20 0 61.333 18 124 54c72.667 42 141.334 91 206.001 147c16 13.333 27 20 33 20c9.33301 0 14 -4 14 -12z" />
    <glyph glyph-name="y" unicode="y" horiz-adv-x="494" 
d="M649 518c0 -6.66699 -5.33301 -14.667 -16 -24c-111.333 -99.333 -249.333 -193.666 -414 -282.999l-323 -426c-66.667 -87.333 -120.334 -146.666 -161.001 -177.999c-34.667 -26 -70.667 -39 -108 -39c-36.667 0 -55 19.667 -55 59c0 64.667 59.667 162 179 292
c115.333 125.333 243.333 235.666 384 330.999l19 26c-29.333 -20 -56.666 -30 -81.999 -30c-54.667 0 -82 27.333 -82 82c0 31.333 15.667 67.333 47 108l121 158h141l-195 -264c-10.667 -15.333 -16 -25 -16 -29c0 -8 4 -12 12 -12c20 0 63.667 34.333 131 103
c64.667 65.333 123 132.666 175 201.999h131l-220 -270c94.667 44.667 189.667 106.667 285 186c16.667 13.333 27.667 20 33 20c9.33301 0 14 -4 14 -12zM57 139c-118 -86.667 -223 -182.667 -315 -288c-88.667 -102.667 -133 -176 -133 -220c0 -16 7.33301 -24 22 -24
c18.667 0 48.5 20.333 89.5 61s78.833 87 113.5 139z" />
    <glyph glyph-name="z" unicode="z" 
d="M573 518c0 -6.66699 -5.33691 -14.667 -16.0039 -24c-119.333 -107.333 -260 -216 -422 -326c-21.333 -64 -49.666 -121.333 -84.999 -172c-29.333 -41.333 -83.666 -104.333 -162.999 -189c-68 -72.667 -133 -130.667 -195 -174c-54 -38 -93.333 -57 -118 -57
c-39.333 0 -59 22.667 -59 68c0 56 60.333 146.333 181 271c104.667 108 231.334 219 380.001 333c-50.667 0 -76 13 -76 39c0 24.667 13.667 37 41 37c16 0 42.667 -7 80 -21c91.333 96 137 173.333 137 232c0 13.333 -6.66699 20 -20 20
c-23.333 0 -55.666 -19.667 -96.999 -59c-11.333 -11.333 -20.666 -17 -27.999 -17c-8.66699 0 -13 4.33301 -13 13c0 12 19.333 33 58 63c43.333 32.667 80.666 49 111.999 49c53.333 0 80 -34 80 -102c0 -58 -42.333 -134.667 -127 -230l303 238
c15.333 13.333 26.333 20 33 20c9.33301 0 14 -4 14 -12zM48.9961 174c-122 -91.333 -233 -189 -333 -293c-108 -112.667 -162 -191.667 -162 -237c0 -19.333 8 -29 24 -29c47.333 0 139 91.333 275 274c42 54 107.333 149 196 285z" />
    <glyph glyph-name="braceleft" unicode="{" horiz-adv-x="717" 
d="M1599 1624l-19 -21.999c-64.667 0 -118 -12.333 -160 -37c-33.333 -19.333 -77.333 -59 -132 -119l-362 -397c-56 -61.333 -109.667 -104 -161 -128c-66.667 -31.333 -156 -47 -268 -47v-4c70.667 -15.333 106 -53.666 106 -114.999c0 -38.667 -38.333 -101 -115 -187
l-249 -280c-50.667 -56.667 -76 -95.667 -76 -117c0 -22 19.333 -34.667 58 -38l90 -8l-19 -21l-117 10c-62 5.33301 -93 26.666 -93 63.999c0 28.667 45 93 135 193l221 247c56.667 63.333 85 112.666 85 147.999c0 56 -29 93.667 -87 113
c115.333 9.33301 201.666 30.333 258.999 63c44 24.667 106.667 81.667 188 171l303 331c64.667 70.667 122.334 117.667 173.001 141c56.667 26 136.667 39 240 39z" />
    <glyph glyph-name="bar" unicode="|" horiz-adv-x="512" 
d="M289 -512h-66v2048h66v-2048z" />
    <glyph glyph-name="braceright" unicode="}" horiz-adv-x="717" 
d="M1266 1549c0 -30.667 -44.999 -95.002 -134.999 -193.002l-263 -285c-56 -61.333 -84 -110.333 -84 -147c0 -56 29 -94 87 -114c-116.667 -8.66699 -203.334 -29 -260.001 -61c-46 -26 -108.667 -83.333 -188 -172l-261 -293
c-63.333 -71.333 -121 -118.666 -173 -141.999c-56 -25.333 -136.333 -38 -241 -38l20 21c64.667 0 118.334 12.333 161.001 37c33.333 20 76.666 59.667 129.999 119l322 360c54.667 61.333 108 104 160 128c66.667 31.333 156 47 268 47l1 3
c-70.667 16 -106 54.667 -106 116c0 40.667 38.333 103 115 187l290 317c50.667 55.333 76 94.333 76 117c0 22 -19.333 34.667 -58 38l-91 8l20 22l117 -11c62 -5.33301 93 -26.666 93 -63.999z" />
    <glyph glyph-name="asciitilde" unicode="~" horiz-adv-x="1024" 
d="M909 602l-8.00098 -62c-50.667 -48 -107.667 -72 -171 -72c-32 0 -69.667 13.5 -113 40.5s-75.666 40.5 -96.999 40.5c-52 0 -109 -26.333 -171 -79l7 63c50.667 50 108 75 172 75c27.333 0 62.833 -14 106.5 -42s79.167 -42 106.5 -42c32 0 62.333 8.33301 91 25z" />
    <glyph glyph-name="exclamdown" unicode="&#xa1;" horiz-adv-x="455" 
d="M860 1032c0 -32.667 -16.333 -49 -49 -49s-49 16.333 -49 49s16.333 49 49 49s49 -16.333 49 -49zM754 934c0 -8 -17.333 -37.333 -52 -88l-624 -928c-54.667 -80.667 -91.667 -121 -111 -121c-17.333 0 -26 9.66699 -26 29c0 22.667 24.333 67.667 73 135l668 918
c32.667 44.667 53 67 61 67c7.33301 0 11 -4 11 -12z" />
    <glyph glyph-name="cent" unicode="&#xa2;" horiz-adv-x="721" 
d="M723 991c0 -4.66699 -7 -17 -21 -37l-57 -84c22 -7.33301 33 -23.666 33 -48.999c0 -18 -6.83301 -35.5 -20.5 -52.5s-29.5 -25.5 -47.5 -25.5c-24.667 0 -37 11 -37 33c0 12.667 9 25 27 37s27 21.667 27 29c0 10 -5.66699 15 -17 15c-16.667 0 -37.667 -10.667 -63 -32
c-98.667 -82 -148 -161 -148 -237c0 -26 15.667 -39 47 -39c60 0 117.333 22.333 172 67c12 10 19.667 15 23 15c9.33301 0 14 -4.33301 14 -13c0 -4 -6 -10.667 -18 -20c-69.333 -52 -133 -78 -191 -78c-6.66699 0 -20 2 -40 6l-109 -155c-12.667 -18 -23 -27 -31 -27
s-12 4.66699 -12 14c0 5.33301 12.333 26.666 37 63.999l76 115c-30 13.333 -45 40.333 -45 81c0 58 31 116 93 174c65.333 60.667 133 91 203 91l70 96c10.667 14.667 19 22 25 22c6.66699 0 10 -3.33301 10 -10z" />
    <glyph glyph-name="sterling" unicode="&#xa3;" horiz-adv-x="645" 
d="M866 944c0 -24 -7.33008 -44.333 -21.9971 -61s-33.334 -25 -56.001 -25c-42 0 -63 20.667 -63 62c0 43.333 20.333 65 61 65c1.33301 0 8.33301 -2 21 -6c-12.667 38 -47.667 57 -105 57c-101.333 0 -199.333 -128 -294 -384l185 1l-20 -51h-188
c-34.667 -86.667 -70 -150.334 -106 -191.001c-25.333 -27.333 -69.333 -60.666 -132 -99.999c49.333 11.333 85.666 17 108.999 17c31.333 0 72.333 -6.16699 123 -18.5s88.334 -18.5 113.001 -18.5c27.333 0 57.666 9.16699 90.999 27.5s50.666 27.5 51.999 27.5
c5.33301 0 8 -2.66699 8 -8c0 -21.333 -18.667 -49 -56 -83c-46.667 -41.333 -99.667 -62 -159 -62c-44 0 -97.667 8.5 -161 25.5s-109.333 25.5 -138 25.5c-36 0 -71.333 -20 -106 -60c-16 -17.333 -29.667 -26 -41 -26c-14 0 -21 5.33301 -21 16
c0 10 4.66699 20.333 14 31l156 148c59.333 62.667 111 146 155 250h-138l13 50l144 -1c50.667 140.667 104 244 160 310c66.667 78 146.667 117 240 117c49.333 0 89 -13 119 -39c28 -24.667 42 -56.667 42 -96z" />
    <glyph glyph-name="currency" unicode="&#xa4;" horiz-adv-x="1024" 
d="M1227 952c0 -23.333 -7.49707 -43.5039 -22.4971 -60.5039s-33.5 -25.5 -55.5 -25.5c-42.667 0 -64 20.667 -64 62c0 43.333 20.667 65 62 65c1.33301 0 8 -2 20 -6c0 12.667 -9.83301 24.834 -29.5 36.501s-40.5 17.5 -62.5 17.5
c-32.667 0 -72.334 -8.33301 -119.001 -25c-98 -35.333 -192 -90.666 -282 -165.999c-2 -1.33301 -31.333 -31.666 -88 -90.999h380l-42 -38h-372c-16.667 -19.333 -33.667 -41 -51 -65h353l-42 -37l-337 -1c-50.667 -67.333 -76 -128.666 -76 -183.999
c0 -107.333 45.333 -161 136 -161c91.333 0 171 42 239 126c4.66699 5.33301 11 16 19 32c5.33301 8.66699 10.666 13 15.999 13c8 0 12 -3.33301 12 -10c0 -28.667 -28 -66.334 -84 -113.001c-68.667 -56 -143.667 -84 -225 -84c-151.333 0 -227 70 -227 210
c0 56.667 17.333 113.667 52 171h-155l39 38h141c15.333 22.667 32 44.334 50 65.001h-121l38 38h119c121.333 126 232.666 212.667 333.999 260c97.333 46 185.333 69 264 69c120.667 0 181 -45.333 181 -136z" />
    <glyph glyph-name="yen" unicode="&#xa5;" horiz-adv-x="778" 
d="M1169 991c0 -54.667 -27.332 -81.998 -81.999 -81.998c-39.333 0 -59 17.333 -59 52c0 22 9 37.667 27 47c14.667 7.33301 22 12.666 22 15.999c0 6.66699 -6.66699 10 -20 10c-59.333 0 -130.666 -42.333 -213.999 -127c-60.667 -62 -115 -131 -163 -207h190l-18 -32
h-193c-8 -14.667 -20.667 -36.667 -38 -66h194l-18 -33h-193l-182 -325h-113l180 325h-217l19 33h213c8 18 16 39.333 24 64h-202l20 34h191c9.33301 50 14 96 14 138c0 133.333 -46.333 200 -139 200c-18 0 -36.833 -4.5 -56.5 -13.5s-30.834 -13.5 -33.501 -13.5
c-12.667 0 -19 9 -19 27c0 25.333 24 38 72 38c168 0 252 -89.667 252 -269c0 -38 -5.66699 -88 -17 -150c60.667 99.333 126.667 185.666 198 258.999c101.333 103.333 191.666 155 270.999 155c60 0 90 -26.667 90 -80z" />
    <glyph glyph-name="brokenbar" unicode="&#xa6;" horiz-adv-x="512" 
d="M289 666h-66v716h66v-716zM289 -358h-66v716h66v-716z" />
    <glyph glyph-name="section" unicode="&#xa7;" horiz-adv-x="717" 
d="M1115 1343c0 -28 -8.50195 -50.999 -25.502 -68.999s-37.5 -27 -61.5 -27c-42 0 -63 18.667 -63 56c0 40.667 21.667 61 65 61c9.33301 0 20 -3.33301 32 -10c0 28 -10.667 50.333 -32 67s-47.666 25 -78.999 25c-52 0 -96.333 -19 -133 -57
c-42 -44 -63 -105.667 -63 -185c0 -27.333 10.167 -109.333 30.5 -246s30.5 -218.667 30.5 -246c0 -120.667 -27 -218 -81 -292c-49.333 -66.667 -112 -104.334 -188 -113.001l-51 -6c0 -108 -27.333 -193 -82 -255c-56.667 -64.667 -136.667 -97 -240 -97
c-62.667 0 -114 18 -154 54c-38.667 34 -58 75.333 -58 124c0 69.333 33 104 99 104c14 0 27 -5.83301 39 -17.5s18 -25.5 18 -41.5c0 -46.667 -26.333 -70 -79 -70c1.33301 0 -7.66699 3.66699 -27 11c0 -30.667 16.5 -58.5 49.5 -83.5s72.5 -37.5 118.5 -37.5
c60 0 109 25.5 147 76.5s57 118.833 57 203.5c0 27.333 -10.167 109.5 -30.5 246.5s-30.5 219.167 -30.5 246.5c0 119.333 28.333 217 85 293c50.667 68 112.334 106 185.001 114l51 6c4.66699 88.667 35 162 91 220c58 60.667 132 91 222 91c44 0 81.333 -13.5 112 -40.5
s46 -62.167 46 -105.5zM697.998 643.001c0 38 -9 122.998 -27 254.998s-27 212.333 -27 241c-58 0 -106.333 -28.5 -145 -85.5s-58 -130.167 -58 -219.5c0 -36.667 8.33301 -119.667 25 -249s25 -211.666 25 -246.999c58 0 106.667 28 146 84
c40.667 58.667 61 132.334 61 221.001z" />
    <glyph glyph-name="dieresis" unicode="&#xa8;" horiz-adv-x="410" 
d="M496 741c0 -27.333 -14.333 -41 -43 -41c-18 0 -27 9 -27 27c0 28.667 14.333 43 43 43c18 0 27 -9.66699 27 -29zM346 743c0 -10.667 -4.83203 -20.5 -14.499 -29.5s-19.834 -13.5 -30.501 -13.5c-19.333 0 -29 9.66699 -29 29c0 28.667 14.333 43 43 43
c20.667 0 31 -9.66699 31 -29z" />
    <glyph glyph-name="copyright" unicode="&#xa9;" horiz-adv-x="1638" 
d="M1629 804c0 -154 -54.5 -285.5 -163.5 -394.5s-240.833 -163.5 -395.5 -163.5c-154 0 -285.5 54.5 -394.5 163.5s-163.5 240.5 -163.5 394.5s54.5 285.5 163.5 394.5s240.5 163.5 394.5 163.5c154.667 0 286.5 -54.5 395.5 -163.5s163.5 -240.5 163.5 -394.5zM1569 803
c0 138 -48.667 255.833 -146 353.5s-215 146.5 -353 146.5s-255.833 -48.833 -353.5 -146.5s-146.5 -215.5 -146.5 -353.5s48.833 -255.667 146.5 -353s215.5 -146 353.5 -146s255.667 48.667 353 146s146 215 146 353zM1300 480l-20.001 -0.000976562l-33 46
c-50.667 -36 -109.667 -54 -177 -54c-79.333 0 -148.333 36 -207 108c-56.667 69.333 -85 147.333 -85 234c0 107.333 34.333 190.333 103 249c62.667 53.333 127.667 80 195 80c62.667 0 117 -16.667 163 -50l31 40h21v-185h-18c-9.33301 48 -30.333 88.5 -63 121.5
s-78 49.5 -136 49.5c-46 0 -83.667 -13.333 -113 -40c-40 -36 -60 -110 -60 -222c0 -135.333 7 -222.666 21 -261.999c24.667 -66 76.667 -99 156 -99c100.667 0 169.334 60.333 206.001 181h16v-197z" />
    <glyph glyph-name="ordfeminine" unicode="&#xaa;" horiz-adv-x="1024" 
d="M1069 1376l-207.001 -272.001c-16 -21.333 -24 -33 -24 -35c0 -4 3.33301 -6 10 -6c14.667 0 35 9.66699 61 29c24.667 17.333 39.667 26 45 26c10 0 15 -3.33301 15 -10c0 -7.33301 -9.66699 -17.666 -29 -30.999c-49.333 -32.667 -86.333 -49 -111 -49
c-33.333 0 -55.666 21.333 -66.999 64c-46 -42.667 -85 -64 -117 -64c-49.333 0 -74 24.667 -74 74c0 59.333 26.667 119.333 80 180c61.333 69.333 121.333 104 180 104c34.667 0 62 -16.333 82 -49l31 39h125zM890.999 1307c0 26 -15 38.999 -45 38.999
c-9.33301 0 -26.333 -13 -51 -39c-32 -34 -64 -74 -96 -120c-36 -51.333 -54 -86.666 -54 -105.999c0 -9.33301 4 -14 12 -14c24 0 63 32.667 117 98z" />
    <glyph glyph-name="guillemotleft" unicode="&#xab;" horiz-adv-x="682" 
d="M604 608c0 -5.33301 -9.66699 -17.667 -29 -37l-141 -143l72 -143c8 -16.667 12 -27 12 -31c0 -10.667 -7.33301 -16 -22 -16c-12 0 -25 13.667 -39 41l-78 149l151 150c28 26.667 47.333 40 58 40s16 -3.33301 16 -10zM477 607.999
c0 -5.33301 -9.33203 -17.668 -27.999 -37.001l-144 -143l72 -143c9.33301 -19.333 14 -29.666 14 -30.999c0 -10.667 -7.33301 -16 -22 -16c-12 0 -25 13.667 -39 41l-78 149l149 150c27.333 26.667 46.666 40 57.999 40c12 0 18 -3.33301 18 -10z" />
    <glyph glyph-name="logicalnot" unicode="&#xac;" horiz-adv-x="2027" 
d="M2037 1556c-5.33301 -8.66699 -12.0039 -16.9971 -20.0039 -24.9971c-2 -8 -10.667 -19.333 -26 -34c-60 -55.333 -146.667 -156 -260 -302c58 21.333 119 26 183 14c2 -0.666992 13.333 -3.66699 34 -9l36 -16c104 -51.333 171.333 -127.666 202 -228.999
c48 -152 6.66699 -284 -124 -396c-65.333 -56 -142.5 -95.833 -231.5 -119.5s-175.5 -27.5 -259.5 -11.5c-39.333 7.33301 -76.5 26.333 -111.5 57s-57.833 62 -68.5 94c-17.333 34.667 -24 75 -20 121c-174 -249.333 -316.667 -420 -428 -512
c-140.667 -115.333 -312 -173 -514 -173c-133.333 0 -248.666 30.667 -345.999 92c-101.333 64.667 -152 143.667 -152 237c0 82 45.333 153.833 136 215.5s197.667 92.5 321 92.5c86.667 0 169.667 -16.667 249 -50c43.333 -17.333 83.666 -38.833 120.999 -64.5
s56 -44.834 56 -57.501s-5.66699 -19 -17 -19c-6 0 -17 7 -33 21c-101.333 87.333 -229 131 -383 131c-111.333 0 -206.666 -26.5 -285.999 -79.5s-119 -115.5 -119 -187.5c0 -67.333 33.333 -122.333 100 -165c70 -45.333 163 -68 279 -68
c176.667 0 349.334 59.333 518.001 178c80 56 152 120.667 216 194l62 75c-88 -45.333 -176.667 -54 -266 -26c-2 1.33301 -12.667 5.66602 -32 12.999l-34 19c-95.333 62.667 -151 145.667 -167 249c-24.667 156 36 282.333 182 379
c72.667 48.667 154.834 79.834 246.501 93.501s178.167 7.83398 259.5 -17.499c38 -11.333 72 -34 102 -68s48 -67.333 54 -100c8.66699 -27.333 11.334 -57.333 8.00098 -90c166.667 207.333 295 354.333 385 441c-103.333 -44.667 -255.666 -84.667 -456.999 -120
c-124.667 -22.667 -276.667 -25 -456 -7c-115.333 14 -205.333 30.333 -270 49c-174 50 -299.167 117.167 -375.5 201.5s-90.833 172.5 -43.5 264.5c42 82 118.333 139 229 171c107.333 29.333 216.333 27.666 327 -5.00098c155.333 -44 311 -152 467 -324
c34 -50.667 60.333 -96.334 79 -137.001c25.333 -48 35 -77.667 29 -89c-4.66699 -8 -11 -11 -19 -9c-6 1.33301 -17 19.666 -33 54.999c-12.667 29.333 -46.334 83 -101.001 161c-128.667 156 -276.667 258.333 -444 307c-97.333 28 -193.333 30 -288 6
c-100 -25.333 -169 -74 -207 -146c-40 -78 -27.667 -153 37 -225c67.333 -78 185.333 -141.333 354 -190c71.333 -21.333 160.333 -38.333 267 -51c196 -22 389.667 -12.667 581 28c166.667 35.333 293 72 379 110c34.667 30 53.667 45 57 45c7.33301 0 12 -2.66699 14 -8
c8 5.33301 15.333 10.666 22 15.999zM1462 1113c-4 25.333 -16.3311 50.168 -36.998 74.501s-44.334 41.166 -71.001 50.499c-86.667 26 -183 14 -289 -36c-98.667 -48 -179.667 -115.667 -243 -203c-66 -90.667 -93 -177 -81 -259c7.33301 -45.333 30.333 -87.333 69 -126
c40 -34.667 77.667 -55 113 -61c83.333 -24.667 175 2.33301 275 81c11.333 8.66699 23 18.667 35 30l107 141l76 97c17.333 30 28.666 55 33.999 75c14 48.667 18 94 12 136zM1427 572.005c7.33301 -25.333 23.001 -49 47.001 -71s50 -36 78 -42
c90 -16.667 184 5.66602 282 66.999c90.667 58.667 160.667 134.334 210 227.001c52.667 98 67 187 43 267c-14 44.667 -43 84 -87 118c-44.667 30.667 -85.334 46.667 -122.001 48c-64 11.333 -128.667 -6 -194 -52l-224 -305c-24 -51.333 -38 -92 -42 -122
c-6 -49.333 -3 -94.333 9 -135z" />
    <glyph glyph-name="registered" unicode="&#xae;" horiz-adv-x="1638" 
d="M1629 804c0 -154 -54.5 -285.5 -163.5 -394.5s-240.833 -163.5 -395.5 -163.5c-154 0 -285.5 54.5 -394.5 163.5s-163.5 240.5 -163.5 394.5s54.5 285.5 163.5 394.5s240.5 163.5 394.5 163.5c154.667 0 286.5 -54.5 395.5 -163.5s163.5 -240.5 163.5 -394.5zM1569 803
c0 138 -48.667 255.833 -146 353.5s-215 146.5 -353 146.5s-255.833 -48.833 -353.5 -146.5s-146.5 -215.5 -146.5 -353.5s48.833 -255.667 146.5 -353s215.5 -146 353.5 -146s255.667 48.667 353 146s146 215 146 353zM1390 514c-25.333 -7.33301 -55.332 -11 -89.999 -11
c-38 0 -64 3.33301 -78 10c-20.667 10 -33.334 32 -38.001 66c-2 17.333 -3 42 -3 74c0 116 -47 174 -141 174h-53v-291h110v-22h-307v22h104v557h-104v22h307c140.667 0 211 -45.333 211 -136c0 -46 -23.667 -83 -71 -111c-35.333 -21.333 -74 -33.333 -116 -36
c69.333 -7.33301 113.333 -25.833 132 -55.5s29.667 -95.5 33 -197.5c1.33301 -32 21 -48 59 -48c24 0 39 1.66699 45 5v-22zM1205 967c0 47.333 -9.66699 80.167 -29 98.5s-51.333 27.5 -96 27.5h-93v-244h88c86.667 0 130 39.333 130 118z" />
    <glyph glyph-name="macron" unicode="&#xaf;" horiz-adv-x="532" 
d="M545 762l-27 -29h-299l27 29h299z" />
    <glyph glyph-name="macron" unicode="&#x2c9;" horiz-adv-x="532" 
d="M545 762l-27 -29h-299l27 29h299z" />
    <glyph glyph-name="degree" unicode="&#xb0;" horiz-adv-x="819" 
d="M809 1215c0 -46 -16.5 -85.5 -49.5 -118.5s-72.833 -49.5 -119.5 -49.5s-86.5 16.5 -119.5 49.5s-49.5 72.5 -49.5 118.5c0 46.667 16.5 86.5 49.5 119.5s72.833 49.5 119.5 49.5s86.5 -16.5 119.5 -49.5s49.5 -72.833 49.5 -119.5zM753 1215c0 31.333 -11 58 -33 80
s-48.667 33 -80 33s-58 -11 -80 -33s-33 -48.667 -33 -80c0 -30.667 11 -57 33 -79s48.667 -33 80 -33s58 11 80 33s33 48.333 33 79z" />
    <glyph glyph-name="plusminus" unicode="&#xb1;" horiz-adv-x="1024" 
d="M903 567h-246v-180h-65v180h-246v66h246v180h65v-180h246v-66zM903 256h-557v66h557v-66z" />
    <glyph glyph-name="twosuperior" unicode="&#xb2;" horiz-adv-x="645" 
d="M801 1036c0 -83.333 -71.0029 -163.667 -213.003 -241l-185 -101c-20 -10.667 -37.667 -23 -53 -37c19.333 7.33301 39.333 11 60 11c22.667 0 48.334 -5.16699 77.001 -15.5s45.334 -15.5 50.001 -15.5c11.333 0 27.666 5.16699 48.999 15.5s35 15.5 41 15.5
c9.33301 0 14 -4.33301 14 -13c0 -10 -16 -22.333 -48 -37c-28.667 -13.333 -48 -20 -58 -20c-6.66699 0 -24 5.16699 -52 15.5s-52.333 15.5 -73 15.5c-24 0 -46 -5 -66 -15c-26 -12 -43 -18 -51 -18c-11.333 0 -17 5.33301 -17 16c0 28.667 24.333 64 73 106
c34.667 30 70 55 106 75l138 71c58.667 32 104.667 62.667 138 92c22 20 33 44 33 72c0 26 -13.667 39 -41 39c-33.333 0 -72.666 -14 -117.999 -42s-68.666 -55 -69.999 -81c-1.33301 -17.333 8 -26 28 -26c26.667 0 53.334 19 80.001 57c16.667 23.333 27 35 31 35
c5.33301 0 8 -5 8 -15c0 -24 -15.833 -48 -47.5 -72s-58.834 -36 -81.501 -36c-35.333 0 -53 15.667 -53 47c0 34 27 70.167 81 108.5s104 57.5 150 57.5c46.667 0 70 -21.333 70 -64z" />
    <glyph glyph-name="threesuperior" unicode="&#xb3;" horiz-adv-x="645" 
d="M770 1016c0 -56.667 -39.001 -106.666 -117.001 -149.999c19.333 -24 29 -50.667 29 -80c0 -48 -25.667 -92.667 -77 -134c-54 -44 -115.667 -66 -185 -66c-36.667 0 -68 11.333 -94 34s-39 51 -39 85c0 37.333 16.333 72.166 49 104.499s67.334 48.5 104.001 48.5
c24 0 44.333 -7.66699 61 -23s25 -33.666 25 -54.999c0 -26.667 -9.33301 -49.667 -28 -69s-40 -29 -64 -29c-13.333 0 -20 4.66699 -20 14c0 8 8.66699 13.667 26 17c37.333 6.66699 56 27.667 56 63s-18 53 -54 53c-30 0 -58.667 -13.833 -86 -41.5s-41 -56.167 -41 -85.5
c0 -22.667 9.66699 -42.334 29 -59.001s43.333 -25 72 -25c46.667 0 92 20.333 136 61c47.333 43.333 71 91.333 71 144c0 7.33301 -1.66699 16.333 -5 27c-24 -5.33301 -40.333 -8 -49 -8c-35.333 0 -53 12.333 -53 37c0 18.667 16.333 28 49 28
c21.333 0 43.333 -6.66699 66 -20c72 34.667 108 77 108 127c0 39.333 -23.667 59 -71 59c-30 0 -61.833 -11 -95.5 -33s-50.5 -44.333 -50.5 -67c0 -20.667 11.667 -31 35 -31c28 0 45 19 51 57c2 10 6.33301 15 13 15c8 0 12 -4.33301 12 -13c0 -54 -25.333 -81 -76 -81
c-42 0 -63 18.333 -63 55c0 30 18.667 58.333 56 85s77.333 40 120 40c29.333 0 53.333 -8 72 -24s28 -36 28 -60zM597.999 874.001c-11.333 7.33301 -23 11 -35 11c-10.667 0 -16 -2.66699 -16 -8c0 -4.66699 6.66699 -7 20 -7c14 0 24.333 1.33301 31 4z" />
    <glyph glyph-name="acute" unicode="&#xb4;" horiz-adv-x="410" 
d="M535 778c0 -12.667 -11 -25.666 -33 -38.999l-113 -67c-9.33301 -5.33301 -19 -8 -29 -8c-9.33301 0 -14 3.33301 -14 10c0 5.33301 6.33301 12.666 19 21.999l100 76c20 15.333 36.333 23 49 23c14 0 21 -5.66699 21 -17z" />
    <glyph glyph-name="mu" unicode="&#xb5;" horiz-adv-x="530" 
d="M688 518c0 -5.33301 -5.99902 -13.334 -17.999 -24.001c-180.667 -165.333 -305.667 -248 -375 -248c-40 0 -61.333 25.333 -64 76c-54.667 -50.667 -101 -76 -139 -76c-20.667 0 -31 10 -31 30l-372 -493h-140l631 811h142l-197 -266
c-9.33301 -13.333 -14 -22.333 -14 -27c0 -8 4.66699 -12 14 -12c18 0 60.667 34.667 128 104c59.333 61.333 117.666 128.333 174.999 201h129l-201 -258c-13.333 -17.333 -20 -27.666 -20 -30.999c0.666992 -2.66699 2.66699 -4 6 -4c9.33301 0 42 18.667 98 56
c66.667 44 133.667 95 201 153c16 13.333 27 20 33 20c9.33301 0 14 -4 14 -12z" />
    <glyph glyph-name="mu" unicode="&#x3bc;" horiz-adv-x="530" 
d="M688 518c0 -5.33301 -5.99902 -13.334 -17.999 -24.001c-180.667 -165.333 -305.667 -248 -375 -248c-40 0 -61.333 25.333 -64 76c-54.667 -50.667 -101 -76 -139 -76c-20.667 0 -31 10 -31 30l-372 -493h-140l631 811h142l-197 -266
c-9.33301 -13.333 -14 -22.333 -14 -27c0 -8 4.66699 -12 14 -12c18 0 60.667 34.667 128 104c59.333 61.333 117.666 128.333 174.999 201h129l-201 -258c-13.333 -17.333 -20 -27.666 -20 -30.999c0.666992 -2.66699 2.66699 -4 6 -4c9.33301 0 42 18.667 98 56
c66.667 44 133.667 95 201 153c16 13.333 27 20 33 20c9.33301 0 14 -4 14 -12z" />
    <glyph glyph-name="paragraph" unicode="&#xb6;" horiz-adv-x="1229" 
d="M2046 1460c0 -21.333 -9.66504 -39.665 -28.998 -54.998s-44.333 -23 -75 -23c-50.667 0 -112.334 9 -185.001 27c-139.333 -108.667 -258 -245.334 -356 -410.001l-266 -446c-116 -194.667 -219.667 -331 -311 -409c-140 -119.333 -315.667 -179 -527 -179
c-64 0 -115.333 16.667 -154 50s-58 76 -58 128c0 30 9.16699 55 27.5 75s42.166 30 71.499 30c14 0 26.833 -6 38.5 -18s17.5 -26 17.5 -42c0 -46 -26 -69 -78 -69c1.33301 0 -7.66699 3.33301 -27 10c0 -30.667 16.5 -58.5 49.5 -83.5s72.167 -37.5 117.5 -37.5
c62.667 0 143.667 59 243 177c66 79.333 157.333 208.666 274 387.999l87 134c-104.667 0 -195.5 29 -272.5 87s-115.5 128.667 -115.5 212c0 61.333 22.167 125 66.5 191s103.5 122.333 177.5 169c142 90 344.667 135 608 135c130.667 0 251.667 -11.667 363 -35
c113.333 34.667 185 52 215 52c28 0 51.333 -5.83301 70 -17.5s28 -25.167 28 -40.5zM2001 1456c0 14 -19 21 -57 21c-29.333 0 -74 -9 -134 -27c60.667 -15.333 104.667 -23 132 -23c39.333 0 59 9.66699 59 29zM1640 1436c-94.667 17.333 -193.667 26 -297 26
c-191.333 0 -344.333 -45 -459 -135c-107.333 -85.333 -161 -193 -161 -323c0 -172 69.667 -258 209 -258l166 258c145.333 224.667 326 368.667 542 432zM1700 1415c-105.333 -34.667 -188.332 -75.001 -248.999 -121.001c-85.333 -63.333 -170.333 -161.666 -255 -294.999
l-284 -446c-195.333 -307.333 -356.666 -487 -483.999 -539c119.333 10.667 230.666 66 333.999 166c83.333 80.667 179.666 211.667 288.999 393l258 428c44 74 105.333 152 184 234c74 78 143 138 207 180z" />
    <glyph glyph-name="periodcentered" unicode="&#xb7;" horiz-adv-x="340" 
d="M369 653c0 -32.667 -16.667 -49 -50 -49c-32.667 0 -49 16.333 -49 49s16.333 49 49 49c33.333 0 50 -16.333 50 -49z" />
    <glyph glyph-name="periodcentered" unicode="&#x2219;" horiz-adv-x="340" 
d="M369 653c0 -32.667 -16.667 -49 -50 -49c-32.667 0 -49 16.333 -49 49s16.333 49 49 49c33.333 0 50 -16.333 50 -49z" />
    <glyph glyph-name="cedilla" unicode="&#xb8;" horiz-adv-x="410" 
d="M90 160c0 -46 -63.333 -74.666 -190 -85.999l-2 22c96.667 10 145 27 145 51c0 12.667 -10.333 19 -31 19h-32l65 82l27 -4l-37 -49c36.667 -6.66699 55 -18.334 55 -35.001z" />
    <glyph glyph-name="onesuperior" unicode="&#xb9;" horiz-adv-x="645" 
d="M838 1069c0 -4 -5.16895 -9.83301 -15.502 -17.5s-20.833 -18.834 -31.5 -33.501c-26.667 -35.333 -68.667 -96.333 -126 -183c-34.667 -52 -74 -102.333 -118 -151c-58.667 -64 -144.667 -96 -258 -96c-35.333 0 -53 5.33301 -53 16c0 11.333 14.333 17 43 17
c110.667 0 236 99.667 376 299l-76 -61c-21.333 -15.333 -41.666 -23 -60.999 -23c-9.33301 0 -14 2.66699 -14 8s12.333 14 37 26c36.667 18.667 88.334 60.334 155.001 125.001c56.667 54.667 99.667 82 129 82c8.66699 0 13 -2.66699 13 -8z" />
    <glyph glyph-name="ordmasculine" unicode="&#xba;" horiz-adv-x="1024" 
d="M1036 1284c0 -52 -34.501 -110.667 -103.501 -176s-133.5 -98 -193.5 -98c-27.333 0 -49.833 8.16699 -67.5 24.5s-26.5 36.833 -26.5 61.5c0 62.667 33.333 123.667 100 183s136.334 89 209.001 89c54.667 0 82 -28 82 -84zM970.999 1315c0 12 -5.66602 18 -16.999 18
c-28.667 0 -72.334 -41 -131.001 -123c-62.667 -88 -94 -137.667 -94 -149c0 -8 4.66699 -12 14 -12c14 0 35 11 63 33c32.667 25.333 63 58 91 98c49.333 69.333 74 114.333 74 135z" />
    <glyph glyph-name="guillemotright" unicode="&#xbb;" horiz-adv-x="682" 
d="M604 428l-151 -148.999c-28 -27.333 -47.333 -41 -58 -41s-16 3.33301 -16 10c0 5.33301 9.66699 17.666 29 36.999l143 143l-74 143c-8 16 -12 26.333 -12 31c0 10.667 7.33301 16 22 16c12 0 25 -13.333 39 -40zM477 428.001l-151 -148.999
c-28 -27.333 -47.333 -41 -58 -41s-16 3.33301 -16 10c0 5.33301 9.66699 17.666 29 36.999l141 143l-72 143c-8 16.667 -12 27 -12 31c0 10.667 6.66699 16 20 16s27 -13.333 41 -40z" />
    <glyph glyph-name="onequarter" unicode="&#xbc;" horiz-adv-x="909" 
d="M731 1069c0 -4 -5.00098 -9.83301 -15.001 -17.5s-20.667 -18.834 -32 -33.501c-26 -35.333 -68 -96.333 -126 -183c-34.667 -52 -74 -102.333 -118 -151c-58 -64 -144 -96 -258 -96c-35.333 0 -53 5.33301 -53 16c0 11.333 14.333 17 43 17
c110.667 0 236.334 99.667 377.001 299l-76 -61c-22 -15.333 -42.333 -23 -61 -23c-10 0 -15 2.66699 -15 8s12.333 14 37 26c36.667 18.667 88.667 60.334 156 125.001c56 54.667 99 82 129 82c8 0 12 -2.66699 12 -8zM1051 727c0 -6 -4.33105 -12.6709 -12.998 -20.0039
c-36.667 -35.333 -65.334 -72.333 -86.001 -111c-25.333 -48 -64 -113.667 -116 -197c6.66699 -1.33301 14 -2 22 -2c7.33301 0 16.166 1.83301 26.499 5.5s17.166 5.5 20.499 5.5c12.667 0 19 -3 19 -9c0 -7.33301 -8.66699 -14.5 -26 -21.5s-35.333 -10.5 -54 -10.5
c-10 0 -19.667 0.666992 -29 2c-70 -87.333 -155.333 -131 -256 -131c-52 0 -78 6 -78 18c0 8 7 12 21 12c99.333 0 175 39 227 117c-45.333 14.667 -78.666 23.667 -99.999 27c-36 -27.333 -67.333 -41 -94 -41c-20.667 0 -31 8 -31 24c0 30 34.667 45 104 45
c4.66699 6.66699 36 59.334 94 158.001c12 20.667 31 45.334 57 74.001c32 35.333 55.333 53 70 53c7.33301 0 11 -3.33301 11 -10c0 -5.33301 -5.66699 -13.666 -17 -24.999c-32.667 -34 -58.667 -72.333 -78 -115c-27.333 -60 -56.666 -105.667 -87.999 -137
c30 -4 63 -11.333 99 -22c21.333 24 58.666 73.667 111.999 149c42.667 60.667 78.334 102.334 107.001 125.001c37.333 30 59.666 45 66.999 45c6 0 9 -2.66699 9 -8zM928.001 1098c0 -10 -25.333 -49 -76 -117l-549 -737c-22 -30 -37 -45 -45 -45c-6.66699 0 -10 4 -10 12
c0 6 4.66699 15.667 14 29l608 843c16 22 29 33 39 33c12.667 0 19 -6 19 -18zM584.001 413.996c-32.667 0 -49.002 -5 -49.002 -15c0.666992 -2.66699 3.33398 -4 8.00098 -4c12.667 0 26.334 6.33301 41.001 19z" />
    <glyph glyph-name="onehalf" unicode="&#xbd;" horiz-adv-x="909" 
d="M731 1069c0 -4 -5.00098 -9.83301 -15.001 -17.5s-20.667 -18.834 -32 -33.501c-26 -35.333 -68 -96.333 -126 -183c-34.667 -52 -74 -102.333 -118 -151c-58 -64 -144 -96 -258 -96c-35.333 0 -53 5.33301 -53 16c0 11.333 14.333 17 43 17
c110.667 0 236.334 99.667 377.001 299l-76 -61c-22 -15.333 -42.333 -23 -61 -23c-10 0 -15 2.66699 -15 8s12.333 14 37 26c36.667 18.667 88.667 60.334 156 125.001c56 54.667 99 82 129 82c8 0 12 -2.66699 12 -8zM921.999 1098c0 -10 -25.333 -49 -76 -117l-549 -737
c-22.667 -30 -37.667 -45 -45 -45c-6.66699 0 -10 4 -10 12c0 6 4.66699 15.667 14 29l608 843c16 22 29 33 39 33c12.667 0 19 -6 19 -18zM980.999 682c0 -84 -71.0029 -164.669 -213.003 -242.002l-184 -100c-20.667 -11.333 -38.667 -23.666 -54 -36.999
c19.333 6.66699 39.333 10 60 10c22.667 0 48.334 -5 77.001 -15s45.334 -15 50.001 -15c12 0 28.5 5 49.5 15s34.5 15 40.5 15c9.33301 0 14 -4 14 -12c0 -10 -16 -22.333 -48 -37c-28.667 -13.333 -48 -20 -58 -20c-6.66699 0 -24 5 -52 15s-52.333 15 -73 15
c-24 0 -46 -4.66699 -66 -14c-25.333 -12 -42.333 -18 -51 -18c-10.667 0 -16 5.33301 -16 16c0 28.667 24 64 72 106c34.667 30 70 54.667 106 74l138 72c59.333 31.333 105.333 62 138 92c22 20 33 44 33 72c0 26 -13.667 39 -41 39
c-33.333 0 -72.666 -14.167 -117.999 -42.5s-68.666 -55.166 -69.999 -80.499c-1.33301 -18 8 -27 28 -27c26.667 0 53.334 19.333 80.001 58c16.667 22.667 27 34 31 34c5.33301 0 8 -4.66699 8 -14c0 -24 -15.833 -48.167 -47.5 -72.5s-58.834 -36.5 -81.501 -36.5
c-35.333 0 -53 16 -53 48c0 34 27.167 70 81.5 108s104.166 57 149.499 57c46.667 0 70 -21 70 -63z" />
    <glyph glyph-name="threequarters" unicode="&#xbe;" horiz-adv-x="909" 
d="M686 1016c0 -56.667 -39 -106.666 -117 -149.999c19.333 -24 29 -50.667 29 -80c0 -48 -25.667 -92.667 -77 -134c-54 -44 -115.667 -66 -185 -66c-36.667 0 -68 11.333 -94 34s-39 51 -39 85c0 37.333 16.333 72.166 49 104.499s67.334 48.5 104.001 48.5
c24 0 44.333 -7.66699 61 -23s25 -33.666 25 -54.999c0 -26.667 -9.33301 -49.667 -28 -69s-40 -29 -64 -29c-13.333 0 -20 4.66699 -20 14c0 8 8.66699 13.667 26 17c37.333 6.66699 56 27.667 56 63s-18 53 -54 53c-30 0 -58.667 -13.833 -86 -41.5s-41 -56.167 -41 -85.5
c0 -22.667 9.66699 -42.334 29 -59.001s43.333 -25 72 -25c46.667 0 92 20.333 136 61c47.333 43.333 71 91.333 71 144c0 7.33301 -1.33301 16.333 -4 27c-24.667 -5.33301 -41.334 -8 -50.001 -8c-35.333 0 -53 12.333 -53 37c0 18.667 16.333 28 49 28
c21.333 0 43.333 -6.66699 66 -20c72 34.667 108 77 108 127c0 39.333 -23.667 59 -71 59c-30 0 -61.833 -11 -95.5 -33s-50.5 -44.333 -50.5 -67c0 -20.667 11.667 -31 35 -31c28 0 45 19 51 57c2 10 6.33301 15 13 15c8 0 12 -4.33301 12 -13c0 -54 -25.333 -81 -76 -81
c-42 0 -63 18.333 -63 55c0 30 18.667 58.333 56 85s77.333 40 120 40c29.333 0 53.333 -8 72 -24s28 -36 28 -60zM963 1098c0 -10 -25.333 -49 -76 -117l-549 -737c-22.667 -30 -37.667 -45 -45 -45c-6.66699 0 -10 4 -10 12c0 6 4.66699 15.667 14 29l608 843
c16 22 29 33 39 33c12.667 0 19 -6 19 -18zM1075 727.001c0 -6 -4.00098 -12.6709 -12.001 -20.0039c-36.667 -35.333 -65.334 -72.333 -86.001 -111c-25.333 -48 -64.333 -113.667 -117 -197c6.66699 -1.33301 14.334 -2 23.001 -2c7.33301 0 16.166 1.83301 26.499 5.5
s17.166 5.5 20.499 5.5c12 0 18 -3 18 -9c0 -7.33301 -8.5 -14.5 -25.5 -21.5s-35.167 -10.5 -54.5 -10.5c-9.33301 0 -18.666 0.666992 -27.999 2c-70 -87.333 -155.333 -131 -256 -131c-52 0 -78 6 -78 18c0 8 6.66699 12 20 12c100 0 176 39 228 117
c-45.333 14.667 -79 23.667 -101 27c-35.333 -27.333 -66.666 -41 -93.999 -41c-20.667 0 -31 8 -31 24c0 30 35 45 105 45c4.66699 6.66699 36 59.334 94 158.001c12 20.667 30.667 45.334 56 74.001c32 35.333 55.667 53 71 53c6.66699 0 10 -3.33301 10 -10
c0 -5.33301 -5.33301 -13.666 -16 -24.999c-32.667 -34 -58.667 -72.333 -78 -115c-27.333 -60 -56.666 -105.667 -87.999 -137c29.333 -4 62 -11.333 98 -22c22 24 59.667 73.667 113 149c42.667 60.667 78 102.334 106 125.001c38 30 60.667 45 68 45
c5.33301 0 8 -2.66699 8 -8zM513.999 873.997c-11.333 7.33301 -23 11 -35 11c-10.667 0 -16 -2.66699 -16 -8c0 -4.66699 6.66699 -7 20 -7c14 0 24.333 1.33301 31 4zM607.999 413.997c-32.667 0 -49.001 -5 -49.001 -15c0.666992 -2.66699 3.33398 -4 8.00098 -4
c13.333 0 27 6.33301 41 19z" />
    <glyph glyph-name="questiondown" unicode="&#xbf;" horiz-adv-x="682" 
d="M1092 1032c0 -32.667 -16.667 -49 -50 -49c-31.333 0 -47 16.333 -47 49s15.667 49 47 49c33.333 0 50 -16.333 50 -49zM1014 928c0 -19.333 -33 -62.999 -99 -130.999l-155 -167c-90.667 -82 -241 -191 -451 -327c-106.667 -68.667 -180 -131.667 -220 -189
c-30.667 -44 -46 -93.667 -46 -149c0 -91.333 53.333 -137 160 -137c107.333 0 201.333 34.333 282 103c78 66 117 139.667 117 221c0 57.333 -34 86 -102 86c-70.667 0 -128 -35.667 -172 -107c-11.333 -18 -22.333 -27 -33 -27c-6.66699 0 -10 4.33301 -10 13
c0 14.667 13 36.334 39 65.001c52.667 58.667 115.334 88 188.001 88c43.333 0 79.333 -15 108 -45c26 -28.667 39 -61.334 39 -98.001c0 -82 -46.833 -157.5 -140.5 -226.5s-194.834 -103.5 -303.501 -103.5c-65.333 0 -120.333 19 -165 57
c-46.667 39.333 -70 90.666 -70 153.999c0 65.333 27.333 127 82 185c43.333 45.333 117.666 100.333 222.999 165c188 116.667 294.667 184.334 320 203.001c126.667 93.333 249.334 213.666 368.001 360.999c10 12 18.667 18 26 18c10 0 15 -4 15 -12z" />
    <glyph glyph-name="Agrave" unicode="&#xc0;" horiz-adv-x="1518" 
d="M2206 1589c0 -5.33301 -3.66602 -8 -10.999 -8c-4 0 -12.667 3.33301 -26 10l-103 54c-34 17.333 -51 32.333 -51 45c0 16 8.33301 24 25 24c7.33301 0 21.666 -8 42.999 -24l112 -86c7.33301 -7.33301 11 -12.333 11 -15zM2169 1485
c0 -27.333 -28.6689 -62.332 -86.002 -104.999c-360 -357.333 -595 -705.333 -705 -1044c68 32.667 140.333 81.667 217 147c40 34.667 62.667 52 68 52c8 0 12 -5.66699 12 -17c0 -14 -36.333 -49.333 -109 -106c-77.333 -60 -145.333 -102.333 -204 -127
c-22 -76.667 -33 -149.667 -33 -219c0 -117.333 34 -219 102 -305c72 -92 163 -138 273 -138c94 0 178.167 40.167 252.5 120.5s111.5 170.5 111.5 270.5c0 52 -15 93.333 -45 124s-68 46 -114 46c-82 0 -154.167 -37 -216.5 -111s-93.5 -159.667 -93.5 -257
c0 -18 -4.66699 -27 -14 -27c-7.33301 0 -12.166 4.5 -14.499 13.5s-3.5 25.833 -3.5 50.5c0 96 34.833 181.333 104.5 256s148.167 112 235.5 112c57.333 0 105 -20.333 143 -61s57 -90.667 57 -150c0 -115.333 -43.333 -216.333 -130 -303
c-83.333 -83.333 -176.333 -125 -279 -125c-125.333 0 -231.666 54.667 -318.999 164c-85.333 106 -128 231 -128 375c0 34 5.66699 78.333 17 133c-39.333 -8 -81 -12 -125 -12c-90 0 -177.333 21 -262 63c-98.667 -42 -206 -63 -322 -63c-151.333 0 -278 30.667 -380 92
c-98.667 59.333 -148 130.333 -148 213c0 81.333 42 152.166 126 212.499s184.667 90.5 302 90.5c96 0 187.333 -20.667 274 -62c68 104 157.333 156 268 156c107.333 0 199 -45 275 -135c20.667 20.667 74 80.667 160 180c135.333 157.333 259.333 277 372 359
c52.667 38 114 73 184 105s122 48 156 48c14 0 21 -5.33301 21 -16zM2114 1460c-68 -11.333 -146.334 -49.333 -235.001 -114c-79.333 -58.667 -151.166 -125.667 -215.499 -201s-121.833 -151.666 -172.5 -228.999c-75.333 -116.667 -126 -192.667 -152 -228
c14 -44.667 22.333 -92.334 25 -143.001c142 288 392 593 750 915zM1247 778.001c-23.333 37.333 -57.333 67.501 -102 90.501s-91 34.5 -139 34.5c-100 0 -179.333 -44.333 -238 -133c28 -16 56.5 -38.833 85.5 -68.5s43.5 -51.834 43.5 -66.501
c0 -11.333 -4.66699 -17 -14 -17s-19 7.66699 -29 23c-26 39.333 -60 71.333 -102 96c-16.667 -28.667 -25 -64 -25 -106c0 -78.667 25.333 -147.667 76 -207c153.333 79.333 301.333 197.333 444 354zM1323 496.002c0 34 -6.66602 81.668 -19.999 143.001
c-112.667 -133.333 -236.334 -236.333 -371.001 -309c68.667 -31.333 137.667 -47 207 -47c43.333 0 89 5.33301 137 16c6.66699 24.667 21 71 43 139c2.66699 19.333 4 38.666 4 57.999zM763.999 403.003c-52 71.333 -78.001 145.333 -78.001 222
c0 44 10.333 87.667 31 131c-84 38 -174.333 57 -271 57c-97.333 0 -184.333 -26.667 -261 -80s-115 -113.333 -115 -180c0 -64.667 34 -121.167 102 -169.5s148.667 -72.5 242 -72.5c114.667 0 231.334 30.667 350.001 92z" />
    <glyph glyph-name="Aacute" unicode="&#xc1;" horiz-adv-x="1518" 
d="M2277 1704c0 -12.667 -10.667 -25.667 -32 -39l-113 -68c-7.33301 -5.33301 -17 -8 -29 -8c-9.33301 0 -14 3.33301 -14 10c0 6 6 13.667 18 23l101 76c20 14.667 36.333 22 49 22c13.333 0 20 -5.33301 20 -16zM2169 1485c0 -27.333 -28.6689 -62.332 -86.002 -104.999
c-360 -357.333 -595 -705.333 -705 -1044c68 32.667 140.333 81.667 217 147c40 34.667 62.667 52 68 52c8 0 12 -5.66699 12 -17c0 -14 -36.333 -49.333 -109 -106c-77.333 -60 -145.333 -102.333 -204 -127c-22 -76.667 -33 -149.667 -33 -219
c0 -117.333 34 -219 102 -305c72 -92 163 -138 273 -138c94 0 178.167 40.167 252.5 120.5s111.5 170.5 111.5 270.5c0 52 -15 93.333 -45 124s-68 46 -114 46c-82 0 -154.167 -37 -216.5 -111s-93.5 -159.667 -93.5 -257c0 -18 -4.66699 -27 -14 -27
c-7.33301 0 -12.166 4.5 -14.499 13.5s-3.5 25.833 -3.5 50.5c0 96 34.833 181.333 104.5 256s148.167 112 235.5 112c57.333 0 105 -20.333 143 -61s57 -90.667 57 -150c0 -115.333 -43.333 -216.333 -130 -303c-83.333 -83.333 -176.333 -125 -279 -125
c-125.333 0 -231.666 54.667 -318.999 164c-85.333 106 -128 231 -128 375c0 34 5.66699 78.333 17 133c-39.333 -8 -81 -12 -125 -12c-90 0 -177.333 21 -262 63c-98.667 -42 -206 -63 -322 -63c-151.333 0 -278 30.667 -380 92c-98.667 59.333 -148 130.333 -148 213
c0 81.333 42 152.166 126 212.499s184.667 90.5 302 90.5c96 0 187.333 -20.667 274 -62c68 104 157.333 156 268 156c107.333 0 199 -45 275 -135c20.667 20.667 74 80.667 160 180c135.333 157.333 259.333 277 372 359c52.667 38 114 73 184 105s122 48 156 48
c14 0 21 -5.33301 21 -16zM2114 1460c-68 -11.333 -146.334 -49.333 -235.001 -114c-79.333 -58.667 -151.166 -125.667 -215.499 -201s-121.833 -151.666 -172.5 -228.999c-75.333 -116.667 -126 -192.667 -152 -228c14 -44.667 22.333 -92.334 25 -143.001
c142 288 392 593 750 915zM1247 778.001c-23.333 37.333 -57.333 67.501 -102 90.501s-91 34.5 -139 34.5c-100 0 -179.333 -44.333 -238 -133c28 -16 56.5 -38.833 85.5 -68.5s43.5 -51.834 43.5 -66.501c0 -11.333 -4.66699 -17 -14 -17s-19 7.66699 -29 23
c-26 39.333 -60 71.333 -102 96c-16.667 -28.667 -25 -64 -25 -106c0 -78.667 25.333 -147.667 76 -207c153.333 79.333 301.333 197.333 444 354zM1323 496.002c0 34 -6.66602 81.668 -19.999 143.001c-112.667 -133.333 -236.334 -236.333 -371.001 -309
c68.667 -31.333 137.667 -47 207 -47c43.333 0 89 5.33301 137 16c6.66699 24.667 21 71 43 139c2.66699 19.333 4 38.666 4 57.999zM763.998 403.003c-52 71.333 -78.001 145.333 -78.001 222c0 44 10.333 87.667 31 131c-84 38 -174.333 57 -271 57
c-97.333 0 -184.333 -26.667 -261 -80s-115 -113.333 -115 -180c0 -64.667 34 -121.167 102 -169.5s148.667 -72.5 242 -72.5c114.667 0 231.334 30.667 350.001 92z" />
    <glyph glyph-name="Acircumflex" unicode="&#xc2;" horiz-adv-x="1518" 
d="M2247 1610c0 -14 -3.66602 -21 -10.999 -21c-6 0 -11.333 7 -16 21l-31 92l-161 -105c-6.66699 -4 -12.334 -6 -17.001 -6c-6.66699 0 -10 2.66699 -10 8c0 4.66699 2.66699 9.66699 8 15l129 100c24.667 19.333 45.334 29 62 29c16 0 26 -13 30 -39zM2169 1518
c0 -27.333 -28.6689 -62.3311 -86.002 -104.998c-360 -357.333 -595 -705.333 -705 -1044c68 32.667 140.333 81.667 217 147c40 34 62.667 51 68 51c8 0 12 -5.33301 12 -16c0 -14 -36.333 -49.333 -109 -106c-77.333 -60.667 -145.333 -103.334 -204 -128.001
c-22 -76 -33 -149 -33 -219c0 -117.333 34 -219 102 -305c72 -91.333 163 -137 273 -137c94 0 178.167 40 252.5 120s111.5 170.333 111.5 271c0 52 -15 93.333 -45 124s-68 46 -114 46c-82 0 -154.167 -37.167 -216.5 -111.5s-93.5 -160.166 -93.5 -257.499
c0 -17.333 -4.66699 -26 -14 -26c-7.33301 0 -12.166 4.5 -14.499 13.5s-3.5 25.5 -3.5 49.5c0 96.667 34.833 182.334 104.5 257.001s148.167 112 235.5 112c57.333 0 105 -20.333 143 -61s57 -90.667 57 -150c0 -115.333 -43.333 -216.333 -130 -303
c-83.333 -83.333 -176.333 -125 -279 -125c-125.333 0 -231.666 54.667 -318.999 164c-85.333 106 -128 231 -128 375c0 34 5.66699 78.333 17 133c-39.333 -8.66699 -81 -13 -125 -13c-90 0 -177.333 21.333 -262 64c-98.667 -42.667 -206 -64 -322 -64
c-151.333 0 -278 30.667 -380 92c-98.667 59.333 -148 130.666 -148 213.999c0 81.333 42 152.166 126 212.499s184.667 90.5 302 90.5c96 0 187.333 -20.667 274 -62c68 104 157.333 156 268 156c107.333 0 199 -45 275 -135c20.667 20.667 74 80.667 160 180
c135.333 157.333 259.333 276.666 372 357.999c52.667 38.667 114 74 184 106s122 48 156 48c14 0 21 -5.33301 21 -16zM2114 1493c-68 -11.333 -146.334 -49.666 -235.001 -114.999c-79.333 -58 -151.166 -124.667 -215.499 -200s-121.833 -152 -172.5 -230
c-75.333 -116 -126 -191.667 -152 -227c14 -44.667 22.333 -92.334 25 -143.001c142 288 392 593 750 915zM1247 811.002c-23.333 36.667 -57.333 66.667 -102 90s-91 35 -139 35c-100 0 -179.333 -44.333 -238 -133c28 -16 56.5 -38.833 85.5 -68.5
s43.5 -51.834 43.5 -66.501c0 -11.333 -4.66699 -17 -14 -17s-19 7.66699 -29 23c-26 39.333 -60 71.333 -102 96c-16.667 -29.333 -25 -64.666 -25 -105.999c0 -78.667 25.333 -147.667 76 -207c153.333 79.333 301.333 197.333 444 354zM1323 528.002
c0 34.667 -6.66602 82.666 -19.999 143.999c-112.667 -133.333 -236.334 -236.666 -371.001 -309.999c68.667 -31.333 137.667 -47 207 -47c43.333 0 89 5.66699 137 17c6.66699 24.667 21 71 43 139c2.66699 19.333 4 38.333 4 57zM763.999 436.001
c-52 70.667 -78.001 144.332 -78.001 220.999c0 44.667 10.333 88.334 31 131.001c-84 38.667 -174.333 58 -271 58c-97.333 0 -184.333 -26.667 -261 -80s-115 -113.333 -115 -180c0 -64.667 34 -121.167 102 -169.5s148.667 -72.5 242 -72.5
c114.667 0 231.334 30.667 350.001 92z" />
    <glyph glyph-name="Atilde" unicode="&#xc3;" horiz-adv-x="1518" 
d="M2216 1653c-10.667 -41.333 -33.334 -62 -68 -62c-11.333 0 -22.666 3.66699 -34 11l-45 20c-2.66699 1.33301 -5 2 -7 2c-9.33301 0 -17.333 -5.33301 -24 -16l-10 -17l-19 15c19.333 38 39 57 59 57l25 -8l37 -17c9.33301 -4 16.666 -6 22 -6
c12.667 0 25 6.33301 37 19l13 12zM2169 1485c0 -27.333 -28.6689 -62.332 -86.002 -104.999c-360 -357.333 -595 -705.333 -705 -1044c68 32.667 140.333 81.667 217 147c40 34.667 62.667 52 68 52c8 0 12 -5.66699 12 -17c0 -14 -36.333 -49.333 -109 -106
c-77.333 -60 -145.333 -102.333 -204 -127c-22 -76.667 -33 -149.667 -33 -219c0 -117.333 34 -219 102 -305c72 -92 163 -138 273 -138c94 0 178.167 40.167 252.5 120.5s111.5 170.5 111.5 270.5c0 52 -15 93.333 -45 124s-68 46 -114 46c-82 0 -154.167 -37 -216.5 -111
s-93.5 -159.667 -93.5 -257c0 -18 -4.66699 -27 -14 -27c-7.33301 0 -12.166 4.5 -14.499 13.5s-3.5 25.833 -3.5 50.5c0 96 34.833 181.333 104.5 256s148.167 112 235.5 112c57.333 0 105 -20.333 143 -61s57 -90.667 57 -150c0 -115.333 -43.333 -216.333 -130 -303
c-83.333 -83.333 -176.333 -125 -279 -125c-125.333 0 -231.666 54.667 -318.999 164c-85.333 106 -128 231 -128 375c0 34 5.66699 78.333 17 133c-39.333 -8 -81 -12 -125 -12c-90 0 -177.333 21 -262 63c-98.667 -42 -206 -63 -322 -63c-151.333 0 -278 30.667 -380 92
c-98.667 59.333 -148 130.333 -148 213c0 81.333 42 152.166 126 212.499s184.667 90.5 302 90.5c96 0 187.333 -20.667 274 -62c68 104 157.333 156 268 156c107.333 0 199 -45 275 -135c20.667 20.667 74 80.667 160 180c135.333 157.333 259.333 277 372 359
c52.667 38 114 73 184 105s122 48 156 48c14 0 21 -5.33301 21 -16zM2114 1460c-68 -11.333 -146.334 -49.333 -235.001 -114c-79.333 -58.667 -151.166 -125.667 -215.499 -201s-121.833 -151.666 -172.5 -228.999c-75.333 -116.667 -126 -192.667 -152 -228
c14 -44.667 22.333 -92.334 25 -143.001c142 288 392 593 750 915zM1247 778.001c-23.333 37.333 -57.333 67.501 -102 90.501s-91 34.5 -139 34.5c-100 0 -179.333 -44.333 -238 -133c28 -16 56.5 -38.833 85.5 -68.5s43.5 -51.834 43.5 -66.501
c0 -11.333 -4.66699 -17 -14 -17s-19 7.66699 -29 23c-26 39.333 -60 71.333 -102 96c-16.667 -28.667 -25 -64 -25 -106c0 -78.667 25.333 -147.667 76 -207c153.333 79.333 301.333 197.333 444 354zM1323 496.002c0 34 -6.66602 81.668 -19.999 143.001
c-112.667 -133.333 -236.334 -236.333 -371.001 -309c68.667 -31.333 137.667 -47 207 -47c43.333 0 89 5.33301 137 16c6.66699 24.667 21 71 43 139c2.66699 19.333 4 38.666 4 57.999zM763.998 403.003c-52 71.333 -78.001 145.333 -78.001 222
c0 44 10.333 87.667 31 131c-84 38 -174.333 57 -271 57c-97.333 0 -184.333 -26.667 -261 -80s-115 -113.333 -115 -180c0 -64.667 34 -121.167 102 -169.5s148.667 -72.5 242 -72.5c114.667 0 231.334 30.667 350.001 92z" />
    <glyph glyph-name="Adieresis" unicode="&#xc4;" horiz-adv-x="1518" 
d="M2249 1626c0 -27.333 -14.333 -41 -43 -41c-18 0 -27 9 -27 27c0 28.667 14.333 43 43 43c18 0 27 -9.66699 27 -29zM2099 1628c0 -10.667 -4.83301 -20.5 -14.5 -29.5s-19.834 -13.5 -30.5 -13.5c-19.333 0 -29 9.66699 -29 29c0 28.667 14.333 43 43 43
c20.667 0 31 -9.66699 31 -29zM2169 1485c0 -27.333 -28.6689 -62.332 -86.002 -104.999c-360 -357.333 -595 -705.333 -705 -1044c68 32.667 140.333 81.667 217 147c40 34.667 62.667 52 68 52c8 0 12 -5.66699 12 -17c0 -14 -36.333 -49.333 -109 -106
c-77.333 -60 -145.333 -102.333 -204 -127c-22 -76.667 -33 -149.667 -33 -219c0 -117.333 34 -219 102 -305c72 -92 163 -138 273 -138c94 0 178.167 40.167 252.5 120.5s111.5 170.5 111.5 270.5c0 52 -15 93.333 -45 124s-68 46 -114 46c-82 0 -154.167 -37 -216.5 -111
s-93.5 -159.667 -93.5 -257c0 -18 -4.66699 -27 -14 -27c-7.33301 0 -12.166 4.5 -14.499 13.5s-3.5 25.833 -3.5 50.5c0 96 34.833 181.333 104.5 256s148.167 112 235.5 112c57.333 0 105 -20.333 143 -61s57 -90.667 57 -150c0 -115.333 -43.333 -216.333 -130 -303
c-83.333 -83.333 -176.333 -125 -279 -125c-125.333 0 -231.666 54.667 -318.999 164c-85.333 106 -128 231 -128 375c0 34 5.66699 78.333 17 133c-39.333 -8 -81 -12 -125 -12c-90 0 -177.333 21 -262 63c-98.667 -42 -206 -63 -322 -63c-151.333 0 -278 30.667 -380 92
c-98.667 59.333 -148 130.333 -148 213c0 81.333 42 152.166 126 212.499s184.667 90.5 302 90.5c96 0 187.333 -20.667 274 -62c68 104 157.333 156 268 156c107.333 0 199 -45 275 -135c20.667 20.667 74 80.667 160 180c135.333 157.333 259.333 277 372 359
c52.667 38 114 73 184 105s122 48 156 48c14 0 21 -5.33301 21 -16zM2114 1460c-68 -11.333 -146.334 -49.333 -235.001 -114c-79.333 -58.667 -151.166 -125.667 -215.499 -201s-121.833 -151.666 -172.5 -228.999c-75.333 -116.667 -126 -192.667 -152 -228
c14 -44.667 22.333 -92.334 25 -143.001c142 288 392 593 750 915zM1247 778.001c-23.333 37.333 -57.333 67.501 -102 90.501s-91 34.5 -139 34.5c-100 0 -179.333 -44.333 -238 -133c28 -16 56.5 -38.833 85.5 -68.5s43.5 -51.834 43.5 -66.501
c0 -11.333 -4.66699 -17 -14 -17s-19 7.66699 -29 23c-26 39.333 -60 71.333 -102 96c-16.667 -28.667 -25 -64 -25 -106c0 -78.667 25.333 -147.667 76 -207c153.333 79.333 301.333 197.333 444 354zM1323 496.002c0 34 -6.66602 81.668 -19.999 143.001
c-112.667 -133.333 -236.334 -236.333 -371.001 -309c68.667 -31.333 137.667 -47 207 -47c43.333 0 89 5.33301 137 16c6.66699 24.667 21 71 43 139c2.66699 19.333 4 38.666 4 57.999zM763.998 403.003c-52 71.333 -78.001 145.333 -78.001 222
c0 44 10.333 87.667 31 131c-84 38 -174.333 57 -271 57c-97.333 0 -184.333 -26.667 -261 -80s-115 -113.333 -115 -180c0 -64.667 34 -121.167 102 -169.5s148.667 -72.5 242 -72.5c114.667 0 231.334 30.667 350.001 92z" />
    <glyph glyph-name="Aring" unicode="&#xc5;" horiz-adv-x="1518" 
d="M2191 1647c0 -16 -6.83301 -30.333 -20.5 -43s-28.5 -19 -44.5 -19c-28.667 0 -43 13.667 -43 41c0 15.333 7 29.5 21 42.5s28.667 19.5 44 19.5c28.667 0 43 -13.667 43 -41zM2169 1485c0 -27.333 -28.6689 -62.332 -86.002 -104.999
c-360 -357.333 -595 -705.333 -705 -1044c68 32.667 140.333 81.667 217 147c40 34.667 62.667 52 68 52c8 0 12 -5.66699 12 -17c0 -14 -36.333 -49.333 -109 -106c-77.333 -60 -145.333 -102.333 -204 -127c-22 -76.667 -33 -149.667 -33 -219
c0 -117.333 34 -219 102 -305c72 -92 163 -138 273 -138c94 0 178.167 40.167 252.5 120.5s111.5 170.5 111.5 270.5c0 52 -15 93.333 -45 124s-68 46 -114 46c-82 0 -154.167 -37 -216.5 -111s-93.5 -159.667 -93.5 -257c0 -18 -4.66699 -27 -14 -27
c-7.33301 0 -12.166 4.5 -14.499 13.5s-3.5 25.833 -3.5 50.5c0 96 34.833 181.333 104.5 256s148.167 112 235.5 112c57.333 0 105 -20.333 143 -61s57 -90.667 57 -150c0 -115.333 -43.333 -216.333 -130 -303c-83.333 -83.333 -176.333 -125 -279 -125
c-125.333 0 -231.666 54.667 -318.999 164c-85.333 106 -128 231 -128 375c0 34 5.66699 78.333 17 133c-39.333 -8 -81 -12 -125 -12c-90 0 -177.333 21 -262 63c-98.667 -42 -206 -63 -322 -63c-151.333 0 -278 30.667 -380 92c-98.667 59.333 -148 130.333 -148 213
c0 81.333 42 152.166 126 212.499s184.667 90.5 302 90.5c96 0 187.333 -20.667 274 -62c68 104 157.333 156 268 156c107.333 0 199 -45 275 -135c20.667 20.667 74 80.667 160 180c135.333 157.333 259.333 277 372 359c52.667 38 114 73 184 105s122 48 156 48
c14 0 21 -5.33301 21 -16zM2169 1642c0 16.667 -8.33301 25 -25 25c-26 0 -39 -12.333 -39 -37c0 -17.333 8.33301 -26 25 -26c26 0 39 12.667 39 38zM2114 1460c-68 -11.333 -146.334 -49.333 -235.001 -114c-79.333 -58.667 -151.166 -125.667 -215.499 -201
s-121.833 -151.666 -172.5 -228.999c-75.333 -116.667 -126 -192.667 -152 -228c14 -44.667 22.333 -92.334 25 -143.001c142 288 392 593 750 915zM1247 778.001c-23.333 37.333 -57.333 67.501 -102 90.501s-91 34.5 -139 34.5c-100 0 -179.333 -44.333 -238 -133
c28 -16 56.5 -38.833 85.5 -68.5s43.5 -51.834 43.5 -66.501c0 -11.333 -4.66699 -17 -14 -17s-19 7.66699 -29 23c-26 39.333 -60 71.333 -102 96c-16.667 -28.667 -25 -64 -25 -106c0 -78.667 25.333 -147.667 76 -207c153.333 79.333 301.333 197.333 444 354z
M1323 496.002c0 34 -6.66602 81.668 -19.999 143.001c-112.667 -133.333 -236.334 -236.333 -371.001 -309c68.667 -31.333 137.667 -47 207 -47c43.333 0 89 5.33301 137 16c6.66699 24.667 21 71 43 139c2.66699 19.333 4 38.666 4 57.999zM763.998 403.003
c-52 71.333 -78.001 145.333 -78.001 222c0 44 10.333 87.667 31 131c-84 38 -174.333 57 -271 57c-97.333 0 -184.333 -26.667 -261 -80s-115 -113.333 -115 -180c0 -64.667 34 -121.167 102 -169.5s148.667 -72.5 242 -72.5c114.667 0 231.334 30.667 350.001 92z" />
    <glyph glyph-name="AE" unicode="&#xc6;" horiz-adv-x="2343" 
d="M2882 1346c0 -125.333 -106.667 -245.666 -320 -360.999c-217.333 -118 -456.333 -180 -717 -186c-84.667 -108.667 -127 -209 -127 -301c0 -84 37 -142.667 111 -176c24.667 64 67 140.333 127 229c65.333 95.333 145.5 174.166 240.5 236.499s182.167 93.5 261.5 93.5
c74.667 0 112 -35 112 -105c0 -125.333 -66 -246 -198 -362c-128 -112 -256.333 -168 -385 -168c-168.667 0 -286.334 62.667 -353.001 188c-50 -52 -140.667 -101.667 -272 -149c-22 -76.667 -33 -149.667 -33 -219c0 -117.333 34 -219 102 -305c72 -92 163 -138 273 -138
c94.667 0 179 39.167 253 117.5s111 167.5 111 267.5c0 50 -15.333 90.667 -46 122c-29.333 29.333 -67 44 -113 44c-82.667 0 -155 -35.5 -217 -106.5s-93 -154.833 -93 -251.5c0 -18 -4.66699 -27 -14 -27c-7.33301 0 -12.166 4.5 -14.499 13.5s-3.5 25.833 -3.5 50.5
c0 95.333 35 179.333 105 252c69.333 70.667 147.666 106 234.999 106c57.333 0 105 -20.167 143 -60.5s57 -89.166 57 -146.499c0 -115.333 -43.333 -215.333 -130 -300c-83.333 -81.333 -176.333 -122 -279 -122c-137.333 0 -247.666 54.667 -330.999 164
c-77.333 101.333 -116 226.333 -116 375c0 34 5.66699 78.333 17 133c-39.333 -8 -81 -12 -125 -12c-90 0 -177.333 21 -262 63c-98.667 -42 -206 -63 -322 -63c-151.333 0 -278 30.667 -380 92c-98.667 59.333 -148 130.333 -148 213c0 81.333 42 152.166 126 212.499
s184.667 90.5 302 90.5c96 0 187.333 -20.667 274 -62c68 104 157.333 156 268 156c107.333 0 199 -45 275 -135c20.667 20.667 74 80.667 160 180c135.333 157.333 259.333 277 372 359c52.667 38 114 73 184 105s122 48 156 48c14 0 21 -5.33301 21 -16
c0 -27.333 -28.667 -62.333 -86 -105c-360 -357.333 -595 -705.333 -705 -1044c90 36.667 168.667 81.667 236 135c-11.333 45.333 -17 84.333 -17 117c0 98.667 31.167 184.334 93.5 257.001s145.5 135 249.5 187c125.333 62.667 256.333 94.667 393 96
c0 72 19 131.667 57 179c41.333 50 94.333 92.5 159 127.5s123.667 52.5 177 52.5c44 0 81 -13.333 111 -40s45 -60.334 45 -101.001zM2841 1346c0 64 -37 96 -111 96c-48 0 -100 -13.333 -156 -40c-61.333 -29.333 -110.666 -67 -148 -113
c-37.333 -46 -56 -89.333 -56 -130c0 -3.33301 0.333008 -8.66602 1 -15.999s1 -13 1 -17c69.333 -8.66699 104 -28.334 104 -59.001c0 -24.667 -14.333 -37 -43 -37c-34 0 -62 18.333 -84 55c-87.333 -12.667 -175.333 -43 -264 -91c-82.667 -44.667 -151 -96 -205 -154
c246 10 467.667 67.167 665 171.5s296 215.833 296 334.5zM2447 1067c0 10 -15.667 16 -47 18c12.667 -17.333 25 -26 37 -26c6.66699 0 10 2.66699 10 8zM2527 772c0 46.667 -27.335 70 -82.002 70c-49.333 0 -109.333 -19.5 -180 -58.5s-132.667 -87.833 -186 -146.5
c-95.333 -104 -165.666 -214 -210.999 -330c36.667 -12 76.334 -18 119.001 -18c120.667 0 236 49 346 147c58 52 105.333 110 142 174c34.667 62 52 116 52 162zM2114 1460c-68 -11.333 -146.334 -49.333 -235.001 -114c-79.333 -58.667 -151.166 -125.667 -215.499 -201
s-121.833 -151.666 -172.5 -228.999c-75.333 -116.667 -126 -192.667 -152 -228c14 -44.667 22.333 -92.334 25 -143.001c142 288 392 593 750 915zM1247 778c-23.333 37.333 -57.333 67.501 -102 90.501s-91 34.5 -139 34.5c-100 0 -179.333 -44.333 -238 -133
c28 -16 56.5 -38.833 85.5 -68.5s43.5 -51.834 43.5 -66.501c0 -11.333 -4.66699 -17 -14 -17s-19 7.66699 -29 23c-26 39.333 -60 71.333 -102 96c-16.667 -28.667 -25 -64 -25 -106c0 -78.667 25.333 -147.667 76 -207c153.333 79.333 301.333 197.333 444 354z
M1323 496.001c0 34 -6.66602 81.668 -19.999 143.001c-112.667 -133.333 -236.334 -236.333 -371.001 -309c68.667 -31.333 137.667 -47 207 -47c43.333 0 89 5.33301 137 16c6.66699 24.667 21 71 43 139c2.66699 19.333 4 38.666 4 57.999zM763.998 403.002
c-52 71.333 -78.001 145.333 -78.001 222c0 44 10.333 87.667 31 131c-84 38 -174.333 57 -271 57c-97.333 0 -184.333 -26.667 -261 -80s-115 -113.333 -115 -180c0 -64.667 34 -121.167 102 -169.5s148.667 -72.5 242 -72.5c114.667 0 231.334 30.667 350.001 92z" />
    <glyph glyph-name="Ccedilla" unicode="&#xc7;" horiz-adv-x="1139" 
d="M1780 1411c0 -100 -106.001 -210.665 -318.001 -331.998c-128.667 -73.333 -266.334 -134.333 -413.001 -183c-163.333 -54 -311.666 -83 -444.999 -87c-62 -96 -94 -178 -96 -246c-6.66699 -189.333 68.333 -284 225 -284c111.333 0 220.666 47.667 327.999 143
c109.333 98 164 200.333 164 307c0 27.333 -9 51.666 -27 72.999s-40.667 32 -68 32c-122.667 0 -246 -102.667 -370 -308c-26 -42 -41 -63 -45 -63c-12.667 0 -19 6 -19 18c0 13.333 18 51.666 54 114.999c38.667 70 93.334 132 164.001 186
c77.333 58.667 150.333 88 219 88c36 0 66.833 -13.833 92.5 -41.5s38.5 -61.5 38.5 -101.5c0 -121.333 -59.667 -233.333 -179 -336c-114 -99.333 -232.667 -149 -356 -149c-26 0 -44.333 2 -55 6l-41 -51c43.333 -6.66699 65 -21 65 -43
c0 -61.333 -76.333 -95.666 -229 -102.999l-2 29c117.333 9.33301 176 29 176 59c0 14 -13 21.667 -39 23l-39 2l74 90c-77.333 14 -139.666 53 -186.999 117c-46 62 -69 133.667 -69 215c0 75.333 22 151.666 66 228.999c-120.667 14 -223.334 53 -308.001 117
c-88.667 66.667 -133 143.667 -133 231c0 102.667 61 189 183 259c116.667 66.667 255.667 100 417 100c204 0 390.333 -41 559 -123c184.667 82 330.334 123 437.001 123c117.333 0 176 -37 176 -111zM1741 1415c0 44 -30.668 66 -92.001 66
c-99.333 0 -231.333 -43.667 -396 -131c64.667 -44.667 104.334 -78 119.001 -100c2.66699 -4 4 -7 4 -9c0 -8 -4 -12 -12 -12c-5.33301 0 -11.333 2.66699 -18 8c-55.333 43.333 -98.333 74 -129 92c-253.333 -140 -448 -299 -584 -477c252 12 517.667 96 797 252
c207.333 116 311 219.667 311 311zM1120 1376c-166.667 68.667 -336.667 103 -510 103c-154 0 -286.333 -30.167 -397 -90.5s-166 -134.833 -166 -223.5c0 -80.667 41.667 -151 125 -211c80.667 -58.667 180.334 -92.667 299.001 -102
c135.333 204 351.666 378.667 648.999 524z" />
    <glyph glyph-name="Egrave" unicode="&#xc8;" horiz-adv-x="1100" 
d="M1575 1597c0 -5.33301 -3.33203 -8 -9.99902 -8c-4.66699 0 -13.667 3.33301 -27 10l-102 54c-34.667 17.333 -52 32.333 -52 45c0 16 8.33301 24 25 24c7.33301 0 21.666 -8 42.999 -24l113 -86c6.66699 -6.66699 10 -11.667 10 -15zM1597 1341
c0 -125.333 -106.331 -245.666 -318.998 -360.999c-217.333 -117.333 -456.333 -179 -717 -185c-84.667 -108.667 -127 -209 -127 -301c0 -84 37 -143 111 -177c24 64.667 66.333 141.334 127 230.001c65.333 95.333 145.5 174.166 240.5 236.499s182.167 93.5 261.5 93.5
c74.667 0 112 -35 112 -105c0 -126 -66 -246.667 -198 -362c-128.667 -112 -257.334 -168 -386.001 -168c-38 0 -83 6 -135 18c-32.667 -91.333 -52.334 -176 -59.001 -254c-4 -43.333 -11.667 -65 -23 -65c-10.667 0 -16 7.33301 -16 22c0 82 19.667 185 59 309
c-64.667 23.333 -116 61.666 -154 114.999c-40.667 55.333 -61 121 -61 197c0 70 22.667 143.667 68 221c-108 17.333 -196 54.333 -264 111c-72.667 61.333 -109 135 -109 221c0 92 49.333 171.667 148 239c105.333 71.333 238.333 107 399 107
c191.333 0 383 -51.333 575 -154c100.667 102.667 204.667 154 312 154c44 0 80.833 -13.333 110.5 -40s44.5 -60.667 44.5 -102zM1556 1341c0 64.667 -36.667 97.001 -110 97.001c-97.333 0 -190.333 -43 -279 -129l64.5 -44c31 -21.333 47.833 -32.666 50.5 -33.999
c19.333 -12.667 29 -23.667 29 -33s-4.33301 -14 -13 -14c-8 0 -16 4 -24 12c-72.667 50.667 -117 78.667 -133 84c-37.333 -50.667 -56 -92.334 -56 -125.001c0 -3.33301 0.333008 -8.83301 1 -16.5s1 -13.167 1 -16.5c70 -8.66699 105 -28.334 105 -59.001
c0 -24.667 -14.333 -37 -43 -37c-34 0 -62 18.333 -84 55c-87.333 -12.667 -175.333 -43 -264 -91c-82.667 -44.667 -151 -96 -205 -154c246 10 467.5 67.167 664.5 171.5s295.5 215.5 295.5 333.5zM1155 1065c0 10 -15.667 16 -47 18c12.667 -17.333 25 -26 37 -26
c6.66699 0 10 2.66699 10 8zM1106 1298c-189.333 97.333 -379 146 -569 146c-137.333 0 -254 -31.333 -350 -94c-93.333 -60 -140 -130.333 -140 -211c0 -79.333 36.667 -147.333 110 -204c67.333 -51.333 150.333 -83 249 -95c54.667 74.667 137 138.667 247 192
c124 59.333 256 90 396 92c0 64 19 122 57 174zM1243 768.001c0 46.667 -27.3359 70 -82.0029 70c-50 0 -109.667 -19.333 -179 -58c-71.333 -39.333 -133.666 -88.333 -186.999 -147c-95.333 -104 -165.666 -214 -210.999 -330c36.667 -12 76 -18 118 -18
c120.667 0 236.334 49 347.001 147c58 52 105 110 141 174c35.333 62 53 116 53 162z" />
    <glyph glyph-name="Eacute" unicode="&#xc9;" horiz-adv-x="1100" 
d="M1649 1704c0 -12.667 -11.001 -25.667 -33.001 -39l-113 -68c-7.33301 -5.33301 -16.666 -8 -27.999 -8c-10 0 -15 3.33301 -15 10c0 6 6.33301 13.667 19 23l100 76c20 14.667 36.333 22 49 22c14 0 21 -5.33301 21 -16zM1597 1341
c0 -125.333 -106.331 -245.666 -318.998 -360.999c-217.333 -117.333 -456.333 -179 -717 -185c-84.667 -108.667 -127 -209 -127 -301c0 -84 37 -143 111 -177c24 64.667 66.333 141.334 127 230.001c65.333 95.333 145.5 174.166 240.5 236.499s182.167 93.5 261.5 93.5
c74.667 0 112 -35 112 -105c0 -126 -66 -246.667 -198 -362c-128.667 -112 -257.334 -168 -386.001 -168c-38 0 -83 6 -135 18c-32.667 -91.333 -52.334 -176 -59.001 -254c-4 -43.333 -11.667 -65 -23 -65c-10.667 0 -16 7.33301 -16 22c0 82 19.667 185 59 309
c-64.667 23.333 -116 61.666 -154 114.999c-40.667 55.333 -61 121 -61 197c0 70 22.667 143.667 68 221c-108 17.333 -196 54.333 -264 111c-72.667 61.333 -109 135 -109 221c0 92 49.333 171.667 148 239c105.333 71.333 238.333 107 399 107
c191.333 0 383 -51.333 575 -154c100.667 102.667 204.667 154 312 154c44 0 80.833 -13.333 110.5 -40s44.5 -60.667 44.5 -102zM1556 1341c0 64.667 -36.667 97.001 -110 97.001c-97.333 0 -190.333 -43 -279 -129l64.5 -44c31 -21.333 47.833 -32.666 50.5 -33.999
c19.333 -12.667 29 -23.667 29 -33s-4.33301 -14 -13 -14c-8 0 -16 4 -24 12c-72.667 50.667 -117 78.667 -133 84c-37.333 -50.667 -56 -92.334 -56 -125.001c0 -3.33301 0.333008 -8.83301 1 -16.5s1 -13.167 1 -16.5c70 -8.66699 105 -28.334 105 -59.001
c0 -24.667 -14.333 -37 -43 -37c-34 0 -62 18.333 -84 55c-87.333 -12.667 -175.333 -43 -264 -91c-82.667 -44.667 -151 -96 -205 -154c246 10 467.5 67.167 664.5 171.5s295.5 215.5 295.5 333.5zM1155 1065c0 10 -15.667 16 -47 18c12.667 -17.333 25 -26 37 -26
c6.66699 0 10 2.66699 10 8zM1106 1298c-189.333 97.333 -379 146 -569 146c-137.333 0 -254 -31.333 -350 -94c-93.333 -60 -140 -130.333 -140 -211c0 -79.333 36.667 -147.333 110 -204c67.333 -51.333 150.333 -83 249 -95c54.667 74.667 137 138.667 247 192
c124 59.333 256 90 396 92c0 64 19 122 57 174zM1243 768.001c0 46.667 -27.3359 70 -82.0029 70c-50 0 -109.667 -19.333 -179 -58c-71.333 -39.333 -133.666 -88.333 -186.999 -147c-95.333 -104 -165.666 -214 -210.999 -330c36.667 -12 76 -18 118 -18
c120.667 0 236.334 49 347.001 147c58 52 105 110 141 174c35.333 62 53 116 53 162z" />
    <glyph glyph-name="Ecircumflex" unicode="&#xca;" horiz-adv-x="1100" 
d="M1608 1610c0 -14 -3.66699 -21 -11 -21c-6 0 -11.333 7 -16 21l-31 92l-161 -105c-6.66699 -4 -12.334 -6 -17.001 -6c-6.66699 0 -10 2.66699 -10 8c0 4.66699 2.66699 9.66699 8 15l129 100c24.667 19.333 45.334 29 62.001 29c16 0 26 -13 30 -39zM1597 1341
c0 -125.333 -106.331 -245.666 -318.998 -360.999c-217.333 -117.333 -456.333 -179 -717 -185c-84.667 -108.667 -127 -209 -127 -301c0 -84 37 -143 111 -177c24 64.667 66.333 141.334 127 230.001c65.333 95.333 145.5 174.166 240.5 236.499s182.167 93.5 261.5 93.5
c74.667 0 112 -35 112 -105c0 -126 -66 -246.667 -198 -362c-128.667 -112 -257.334 -168 -386.001 -168c-38 0 -83 6 -135 18c-32.667 -91.333 -52.334 -176 -59.001 -254c-4 -43.333 -11.667 -65 -23 -65c-10.667 0 -16 7.33301 -16 22c0 82 19.667 185 59 309
c-64.667 23.333 -116 61.666 -154 114.999c-40.667 55.333 -61 121 -61 197c0 70 22.667 143.667 68 221c-108 17.333 -196 54.333 -264 111c-72.667 61.333 -109 135 -109 221c0 92 49.333 171.667 148 239c105.333 71.333 238.333 107 399 107
c191.333 0 383 -51.333 575 -154c100.667 102.667 204.667 154 312 154c44 0 80.833 -13.333 110.5 -40s44.5 -60.667 44.5 -102zM1556 1341c0 64.667 -36.667 97.001 -110 97.001c-97.333 0 -190.333 -43 -279 -129l64.5 -44c31 -21.333 47.833 -32.666 50.5 -33.999
c19.333 -12.667 29 -23.667 29 -33s-4.33301 -14 -13 -14c-8 0 -16 4 -24 12c-72.667 50.667 -117 78.667 -133 84c-37.333 -50.667 -56 -92.334 -56 -125.001c0 -3.33301 0.333008 -8.83301 1 -16.5s1 -13.167 1 -16.5c70 -8.66699 105 -28.334 105 -59.001
c0 -24.667 -14.333 -37 -43 -37c-34 0 -62 18.333 -84 55c-87.333 -12.667 -175.333 -43 -264 -91c-82.667 -44.667 -151 -96 -205 -154c246 10 467.5 67.167 664.5 171.5s295.5 215.5 295.5 333.5zM1155 1065c0 10 -15.667 16 -47 18c12.667 -17.333 25 -26 37 -26
c6.66699 0 10 2.66699 10 8zM1106 1298c-189.333 97.333 -379 146 -569 146c-137.333 0 -254 -31.333 -350 -94c-93.333 -60 -140 -130.333 -140 -211c0 -79.333 36.667 -147.333 110 -204c67.333 -51.333 150.333 -83 249 -95c54.667 74.667 137 138.667 247 192
c124 59.333 256 90 396 92c0 64 19 122 57 174zM1243 768.001c0 46.667 -27.3359 70 -82.0029 70c-50 0 -109.667 -19.333 -179 -58c-71.333 -39.333 -133.666 -88.333 -186.999 -147c-95.333 -104 -165.666 -214 -210.999 -330c36.667 -12 76 -18 118 -18
c120.667 0 236.334 49 347.001 147c58 52 105 110 141 174c35.333 62 53 116 53 162z" />
    <glyph glyph-name="Edieresis" unicode="&#xcb;" horiz-adv-x="1100" 
d="M1593 1626c0 -27.333 -14.333 -41 -43 -41c-17.333 0 -26 9 -26 27c0 28.667 14.333 43 43 43c17.333 0 26 -9.66699 26 -29zM1444 1628c0 -10.667 -4.83203 -20.5 -14.499 -29.5s-19.834 -13.5 -30.501 -13.5c-19.333 0 -29 9.66699 -29 29c0 28.667 14.333 43 43 43
c20.667 0 31 -9.66699 31 -29zM1597 1341c0 -125.333 -106.331 -245.666 -318.998 -360.999c-217.333 -117.333 -456.333 -179 -717 -185c-84.667 -108.667 -127 -209 -127 -301c0 -84 37 -143 111 -177c24 64.667 66.333 141.334 127 230.001
c65.333 95.333 145.5 174.166 240.5 236.499s182.167 93.5 261.5 93.5c74.667 0 112 -35 112 -105c0 -126 -66 -246.667 -198 -362c-128.667 -112 -257.334 -168 -386.001 -168c-38 0 -83 6 -135 18c-32.667 -91.333 -52.334 -176 -59.001 -254
c-4 -43.333 -11.667 -65 -23 -65c-10.667 0 -16 7.33301 -16 22c0 82 19.667 185 59 309c-64.667 23.333 -116 61.666 -154 114.999c-40.667 55.333 -61 121 -61 197c0 70 22.667 143.667 68 221c-108 17.333 -196 54.333 -264 111c-72.667 61.333 -109 135 -109 221
c0 92 49.333 171.667 148 239c105.333 71.333 238.333 107 399 107c191.333 0 383 -51.333 575 -154c100.667 102.667 204.667 154 312 154c44 0 80.833 -13.333 110.5 -40s44.5 -60.667 44.5 -102zM1556 1341c0 64.667 -36.667 97.001 -110 97.001
c-97.333 0 -190.333 -43 -279 -129l64.5 -44c31 -21.333 47.833 -32.666 50.5 -33.999c19.333 -12.667 29 -23.667 29 -33s-4.33301 -14 -13 -14c-8 0 -16 4 -24 12c-72.667 50.667 -117 78.667 -133 84c-37.333 -50.667 -56 -92.334 -56 -125.001
c0 -3.33301 0.333008 -8.83301 1 -16.5s1 -13.167 1 -16.5c70 -8.66699 105 -28.334 105 -59.001c0 -24.667 -14.333 -37 -43 -37c-34 0 -62 18.333 -84 55c-87.333 -12.667 -175.333 -43 -264 -91c-82.667 -44.667 -151 -96 -205 -154c246 10 467.5 67.167 664.5 171.5
s295.5 215.5 295.5 333.5zM1155 1065c0 10 -15.667 16 -47 18c12.667 -17.333 25 -26 37 -26c6.66699 0 10 2.66699 10 8zM1106 1298c-189.333 97.333 -379 146 -569 146c-137.333 0 -254 -31.333 -350 -94c-93.333 -60 -140 -130.333 -140 -211
c0 -79.333 36.667 -147.333 110 -204c67.333 -51.333 150.333 -83 249 -95c54.667 74.667 137 138.667 247 192c124 59.333 256 90 396 92c0 64 19 122 57 174zM1243 768.001c0 46.667 -27.3359 70 -82.0029 70c-50 0 -109.667 -19.333 -179 -58
c-71.333 -39.333 -133.666 -88.333 -186.999 -147c-95.333 -104 -165.666 -214 -210.999 -330c36.667 -12 76 -18 118 -18c120.667 0 236.334 49 347.001 147c58 52 105 110 141 174c35.333 62 53 116 53 162z" />
    <glyph glyph-name="Igrave" unicode="&#xcc;" horiz-adv-x="1139" 
d="M1780 1597c0 -5.33301 -3.66602 -8 -10.999 -8c-4 0 -12.667 3.33301 -26 10l-103 54c-34 17.333 -51 32.333 -51 45c0 16 8.33301 24 25 24c7.33301 0 21.666 -8 42.999 -24l112 -86c7.33301 -6.66699 11 -11.667 11 -15zM1956 1511
c0 -17.333 -8.49902 -32.499 -25.499 -45.499s-38.5 -19.5 -64.5 -19.5c-15.333 0 -46.666 5.33301 -93.999 16c-89.333 -70.667 -160.333 -134.667 -213 -192c61.333 -43.333 92 -103.333 92 -180c0 -92 -37.333 -170.667 -112 -236s-163 -98 -265 -98
c-12.667 0 -28.334 0.666992 -47.001 2c-84 -148 -205.333 -268.667 -364 -362c-164.667 -97.333 -337.667 -146 -519 -146c-143.333 0 -259.333 31 -348 93s-133 141.667 -133 239c0 92 43.167 170.5 129.5 235.5s189.166 97.5 308.499 97.5
c155.333 0 304.333 -66.667 447 -200c28.667 -27.333 43 -48 43 -62c0 -14.667 -6.33301 -22 -19 -22c-5.33301 0 -17.666 10.333 -36.999 31c-134.667 143.333 -279.334 215 -434.001 215c-106.667 0 -199.167 -29 -277.5 -87s-117.5 -126.667 -117.5 -206
c0 -76.667 29.667 -138.834 89 -186.501s136.666 -71.5 231.999 -71.5c294.667 0 584.334 156.333 869.001 469c-94.667 48 -142 132.667 -142 254c0 126 62 239.333 186 340c122 99.333 256.667 149 404 149c58 0 132.333 -10.333 223 -31c54.667 31.333 95.667 47 123 47
c44 0 66 -14.333 66 -43zM1915 1505c0 8.66699 -9 13 -27 13c-16.667 0 -38.334 -7.66699 -65.001 -23c22.667 -4 42.334 -6 59.001 -6c22 0 33 5.33301 33 16zM1718 1475c-59.333 12 -116.002 17.999 -170.002 17.999c-146 0 -273.667 -45.333 -383 -136
s-164 -195 -164 -313c0 -102.667 41.667 -175 125 -217c70.667 80 139.667 164.333 207 253c70.667 92.667 116.334 151 137.001 175c-5.33301 1.33301 -12.666 2 -21.999 2c-32 0 -63.667 -10.833 -95 -32.5s-54.333 -48.167 -69 -79.5
c-7.33301 -15.333 -15.333 -23 -24 -23c-12.667 0 -19 7 -19 21c0 34.667 26.667 70.334 80 107.001c50 35.333 93 53 129 53c8 0 27 -3 57 -9c60 62.667 130.333 123 211 181zM1604 1085c0 68 -25.334 117.333 -76.001 148c-71.333 -86.667 -141.666 -194 -210.999 -322
l-64 -114c100 0 183.5 27 250.5 81s100.5 123 100.5 207z" />
    <glyph glyph-name="Iacute" unicode="&#xcd;" horiz-adv-x="1139" 
d="M1903 1704c0 -12.667 -11.001 -25.667 -33.001 -39l-113 -68c-7.33301 -5.33301 -16.666 -8 -27.999 -8c-10 0 -15 3.33301 -15 10c0 6 6.33301 13.667 19 23l100 76c20 14.667 36.333 22 49 22c14 0 21 -5.33301 21 -16zM1956 1503
c0 -18 -8.49902 -33.3369 -25.499 -46.0039s-38.5 -19 -64.5 -19c-15.333 0 -46.666 5.33301 -93.999 16c-89.333 -70.667 -160.333 -134.667 -213 -192c61.333 -43.333 92 -103.666 92 -180.999c0 -91.333 -37.333 -169.666 -112 -234.999s-163 -98 -265 -98
c-12.667 0 -28.334 0.666992 -47.001 2c-84 -148 -205.333 -269 -364 -363c-164.667 -96.667 -337.667 -145 -519 -145c-143.333 0 -259.333 31 -348 93s-133 141.333 -133 238c0 92.667 43.167 171.5 129.5 236.5s189.166 97.5 308.499 97.5
c155.333 0 304.333 -66.667 447 -200c28.667 -27.333 43 -48 43 -62c0 -14.667 -6.33301 -22 -19 -22c-5.33301 0 -17.666 10 -36.999 30c-134.667 143.333 -279.334 215 -434.001 215c-106.667 0 -199.167 -28.833 -277.5 -86.5s-117.5 -126.5 -117.5 -206.5
c0 -76 29.667 -138 89 -186s136.666 -72 231.999 -72c294.667 0 584.334 156.333 869.001 469c-94.667 48.667 -142 133.334 -142 254.001c0 126.667 62 240.334 186 341.001c122 99.333 256.667 149 404 149c58 0 132.333 -10.333 223 -31c54.667 31.333 95.667 47 123 47
c44 0 66 -14.333 66 -43zM1915 1497c0 8 -9 12 -27 12c-16.667 0 -38.334 -7.33301 -65.001 -22c22.667 -4 42.334 -6 59.001 -6c22 0 33 5.33301 33 16zM1718 1466c-59.333 12.667 -116.002 19.001 -170.002 19.001c-146 0 -273.667 -45.333 -383 -136s-164 -195 -164 -313
c0 -102.667 41.667 -175 125 -217c70.667 79.333 139.667 163.666 207 252.999c70.667 92.667 116.334 151 137.001 175c-5.33301 1.33301 -12.666 2 -21.999 2c-32 0 -63.667 -10.833 -95 -32.5s-54.333 -48.167 -69 -79.5c-7.33301 -15.333 -15.333 -23 -24 -23
c-12.667 0 -19 7 -19 21c0 34 26.667 69.667 80 107c50 34.667 93 52 129 52c8 0 27 -2.66699 57 -8c60 62 130.333 122 211 180zM1604 1077c0 68 -25.334 117.333 -76.001 148c-71.333 -86.667 -141.666 -194 -210.999 -322l-64 -115c100 0 183.5 27.167 250.5 81.5
s100.5 123.5 100.5 207.5z" />
    <glyph glyph-name="Icircumflex" unicode="&#xce;" horiz-adv-x="1139" 
d="M1853 1610c0 -14 -3.33301 -21 -10 -21c-6 0 -11.333 7 -16 21l-31 92l-162 -105c-6 -4 -11.333 -6 -16 -6c-6.66699 0 -10 2.66699 -10 8c0 4.66699 2.66699 9.66699 8 15l129 100c24.667 19.333 45 29 61 29s26.333 -13 31 -39zM1956 1503
c0 -18 -8.49902 -33.3369 -25.499 -46.0039s-38.5 -19 -64.5 -19c-15.333 0 -46.666 5.33301 -93.999 16c-89.333 -70.667 -160.333 -134.667 -213 -192c61.333 -43.333 92 -103.666 92 -180.999c0 -91.333 -37.333 -169.666 -112 -234.999s-163 -98 -265 -98
c-12.667 0 -28.334 0.666992 -47.001 2c-84 -148 -205.333 -269 -364 -363c-164.667 -96.667 -337.667 -145 -519 -145c-143.333 0 -259.333 31 -348 93s-133 141.333 -133 238c0 92.667 43.167 171.5 129.5 236.5s189.166 97.5 308.499 97.5
c155.333 0 304.333 -66.667 447 -200c28.667 -27.333 43 -48 43 -62c0 -14.667 -6.33301 -22 -19 -22c-5.33301 0 -17.666 10 -36.999 30c-134.667 143.333 -279.334 215 -434.001 215c-106.667 0 -199.167 -28.833 -277.5 -86.5s-117.5 -126.5 -117.5 -206.5
c0 -76 29.667 -138 89 -186s136.666 -72 231.999 -72c294.667 0 584.334 156.333 869.001 469c-94.667 48.667 -142 133.334 -142 254.001c0 126.667 62 240.334 186 341.001c122 99.333 256.667 149 404 149c58 0 132.333 -10.333 223 -31c54.667 31.333 95.667 47 123 47
c44 0 66 -14.333 66 -43zM1915 1497c0 8 -9 12 -27 12c-16.667 0 -38.334 -7.33301 -65.001 -22c22.667 -4 42.334 -6 59.001 -6c22 0 33 5.33301 33 16zM1718 1466c-59.333 12.667 -116.002 19.001 -170.002 19.001c-146 0 -273.667 -45.333 -383 -136s-164 -195 -164 -313
c0 -102.667 41.667 -175 125 -217c70.667 79.333 139.667 163.666 207 252.999c70.667 92.667 116.334 151 137.001 175c-5.33301 1.33301 -12.666 2 -21.999 2c-32 0 -63.667 -10.833 -95 -32.5s-54.333 -48.167 -69 -79.5c-7.33301 -15.333 -15.333 -23 -24 -23
c-12.667 0 -19 7 -19 21c0 34 26.667 69.667 80 107c50 34.667 93 52 129 52c8 0 27 -2.66699 57 -8c60 62 130.333 122 211 180zM1604 1077c0 68 -25.334 117.333 -76.001 148c-71.333 -86.667 -141.666 -194 -210.999 -322l-64 -115c100 0 183.5 27.167 250.5 81.5
s100.5 123.5 100.5 207.5z" />
    <glyph glyph-name="Idieresis" unicode="&#xcf;" horiz-adv-x="1139" 
d="M1864 1667c0 -27.333 -17.333 -41 -52 -41c-18.667 0 -28 9 -28 27c0 28.667 16.333 43 49 43c20.667 0 31 -9.66699 31 -29zM1692 1669c0 -10.667 -5.66699 -20.5 -17 -29.5s-23 -13.5 -35 -13.5c-21.333 0 -32 9.66699 -32 29c0 28.667 16.333 43 49 43
c23.333 0 35 -9.66699 35 -29zM1956 1503c0 -18 -8.49902 -33.3369 -25.499 -46.0039s-38.5 -19 -64.5 -19c-15.333 0 -46.666 5.33301 -93.999 16c-89.333 -70.667 -160.333 -134.667 -213 -192c61.333 -43.333 92 -103.666 92 -180.999
c0 -91.333 -37.333 -169.666 -112 -234.999s-163 -98 -265 -98c-12.667 0 -28.334 0.666992 -47.001 2c-84 -148 -205.333 -269 -364 -363c-164.667 -96.667 -337.667 -145 -519 -145c-143.333 0 -259.333 31 -348 93s-133 141.333 -133 238
c0 92.667 43.167 171.5 129.5 236.5s189.166 97.5 308.499 97.5c155.333 0 304.333 -66.667 447 -200c28.667 -27.333 43 -48 43 -62c0 -14.667 -6.33301 -22 -19 -22c-5.33301 0 -17.666 10 -36.999 30c-134.667 143.333 -279.334 215 -434.001 215
c-106.667 0 -199.167 -28.833 -277.5 -86.5s-117.5 -126.5 -117.5 -206.5c0 -76 29.667 -138 89 -186s136.666 -72 231.999 -72c294.667 0 584.334 156.333 869.001 469c-94.667 48.667 -142 133.334 -142 254.001c0 126.667 62 240.334 186 341.001
c122 99.333 256.667 149 404 149c58 0 132.333 -10.333 223 -31c54.667 31.333 95.667 47 123 47c44 0 66 -14.333 66 -43zM1915 1497c0 8 -9 12 -27 12c-16.667 0 -38.334 -7.33301 -65.001 -22c22.667 -4 42.334 -6 59.001 -6c22 0 33 5.33301 33 16zM1718 1466
c-59.333 12.667 -116.002 19.001 -170.002 19.001c-146 0 -273.667 -45.333 -383 -136s-164 -195 -164 -313c0 -102.667 41.667 -175 125 -217c70.667 79.333 139.667 163.666 207 252.999c70.667 92.667 116.334 151 137.001 175c-5.33301 1.33301 -12.666 2 -21.999 2
c-32 0 -63.667 -10.833 -95 -32.5s-54.333 -48.167 -69 -79.5c-7.33301 -15.333 -15.333 -23 -24 -23c-12.667 0 -19 7 -19 21c0 34 26.667 69.667 80 107c50 34.667 93 52 129 52c8 0 27 -2.66699 57 -8c60 62 130.333 122 211 180zM1604 1077
c0 68 -25.334 117.333 -76.001 148c-71.333 -86.667 -141.666 -194 -210.999 -322l-64 -115c100 0 183.5 27.167 250.5 81.5s100.5 123.5 100.5 207.5z" />
    <glyph glyph-name="Eth" unicode="&#xd0;" horiz-adv-x="1593" 
d="M2488 1434c0 -11.333 -5.33203 -16.999 -15.999 -16.999c-8 0 -31.333 9.66699 -70 29c-68 34 -144.333 51 -229 51c-138 0 -280.667 -47 -428 -141c42 -70.667 63 -144.334 63 -221.001c0 -98 -22.333 -201.667 -67 -311c-49.333 -120 -118.333 -227.333 -207 -322
c-159.333 -170.667 -341.666 -256 -546.999 -256c-66 0 -148.667 14.333 -248 43c-100 -31.333 -212 -47 -336 -47c-112 0 -205 9.33301 -279 28c-77.333 20 -116 46 -116 78c0 53.333 78 80 234 80c93.333 0 211.333 -19 354 -57c64 20.667 136 54 216 100h-226l39 39h244
c113.333 82 241.666 212.333 384.999 391c106 132.667 168.333 210 187 232c84 96.667 164 173.667 240 231c-78.667 88.667 -193.334 133 -344.001 133c-226 0 -424.667 -61.333 -596 -184c-82 -59.333 -146.833 -127.333 -194.5 -204s-71.5 -152.667 -71.5 -228
c0 -78 21 -139.333 63 -184c40 -42.667 92.667 -64 158 -64c68 0 139.333 21.333 214 64c80 45.333 142.667 104.333 188 177c77.333 126 116 272.333 116 439c0 14.667 5 22 15 22c13.333 0 20 -24.333 20 -73c0 -174 -49.333 -326 -148 -456
c-106.667 -140 -241 -210 -403 -210c-76 0 -138.333 24.667 -187 74c-51.333 52.667 -77 123.667 -77 213c0 166 89.667 315.667 269 449c184 137.333 397.333 206 640 206c156.667 0 281.667 -49 375 -147c152 99.333 303 149 453 149c96 0 177.333 -18.333 244 -55
c48.667 -27.333 73 -44.333 73 -51zM1767 1137c0 61.333 -19.666 125.332 -58.999 191.999c-58 -48.667 -119 -120 -183 -214c-14.667 -21.333 -67.334 -105.666 -158.001 -252.999c-98 -158 -186.667 -275.333 -266 -352h238l-39 -39h-241
c-76 -65.333 -160.667 -118 -254 -158c76.667 -21.333 136 -32 178 -32c194 0 373.167 90 537.5 270s246.5 375.333 246.5 586zM516.002 344c-124 27.333 -222.332 40.999 -294.999 40.999c-116 0 -174 -13 -174 -39c0 -13.333 21.167 -25.166 63.5 -35.499
s88.166 -15.5 137.499 -15.5c68 0 157.333 16.333 268 49z" />
    <glyph glyph-name="Ntilde" unicode="&#xd1;" horiz-adv-x="1139" 
d="M1925 1612c-10.667 -41.333 -33.001 -62 -67.001 -62c-12 0 -23.667 3.66699 -35 11l-44 20c-3.33301 1.33301 -5.66602 2 -6.99902 2c-10 0 -18.333 -5.33301 -25 -16l-10 -17l-19 15c19.333 38 39.333 57 60 57l24 -8l37 -17c9.33301 -4 17 -6 23 -6
c12 0 24 6.33301 36 19l13 12zM2669 1346c0 -12.667 -5.00098 -18.999 -15.001 -18.999c-6 0 -25 10.667 -57 32c-38.667 26 -75.334 45.667 -110 59c-55.333 21.333 -115 32 -179 32c-428 0 -891.333 -385 -1390 -1155c-8 -12.667 -15.667 -19 -23 -19c-8 0 -12 5 -12 15
c0 36.667 22.667 122.667 68 258c38 114 74.667 213 110 297c62 149.333 139.667 289.333 233 420c-70.667 -76.667 -136 -167 -196 -271c-162 -276.667 -310 -469.334 -444 -578.001c-144 -116.667 -317 -175 -519 -175c-127.333 0 -240.333 30.667 -339 92
c-104 65.333 -156 144.333 -156 237c0 82 45 153.833 135 215.5s197 92.5 321 92.5c82.667 0 165.334 -16.667 248.001 -50c43.333 -16.667 83.5 -38 120.5 -64s55.5 -45.333 55.5 -58s-4.66699 -19 -14 -19c-7.33301 0 -19 7 -35 21c-101.333 87.333 -228.333 131 -381 131
c-111.333 0 -207 -26.667 -287 -80s-120 -115.666 -120 -186.999c0 -67.333 33.333 -122.333 100 -165c70 -45.333 162.667 -68 278 -68c188.667 0 356.667 53.667 504 161c133.333 98 294 275 482 531c88.667 121.333 161.667 211.666 219 270.999
c18 18 53.667 47.667 107 89c62 48 100.667 72 116 72c9.33301 0 14 -4 14 -12c0 -7.33301 -11 -22.333 -33 -45c-112 -116 -206.167 -247.333 -282.5 -394s-151.166 -341 -224.499 -583c475.333 710 921.666 1065 1339 1065c68.667 0 137 -13.667 205 -41
c46 -18.667 85.333 -39.667 118 -63c29.333 -20.667 44 -35.667 44 -45z" />
    <glyph glyph-name="Ograve" unicode="&#xd2;" horiz-adv-x="872" 
d="M1370 1597c0 -5.33301 -3.33203 -8 -9.99902 -8c-4.66699 0 -13.667 3.33301 -27 10l-102 54c-34 17.333 -51 32.333 -51 45c0 16 8 24 24 24c7.33301 0 21.666 -8 42.999 -24l113 -86c6.66699 -6.66699 10 -11.667 10 -15zM1444 1317
c0 -119.333 -82.667 -235.998 -248 -349.998c0 -2.66699 0.666992 -9.16699 2 -19.5s2 -16.833 2 -19.5c0 -134.667 -86 -282.334 -258 -443.001c-174.667 -162 -337.667 -243 -489 -243c-2.66699 0 -16.334 1.33301 -41.001 4v-27c0 -100.667 12.333 -195.667 37 -285
c1.33301 -4.66699 2 -10 2 -16c0 -12 -6.33301 -18 -19 -18c-14 0 -25.667 23 -35 69c-20 101.333 -30 188.666 -30 261.999v27c-119.333 48 -179 141.667 -179 281c0 210.667 114 416.667 342 618c114.667 101.333 238.334 182 371.001 242s253 90 361 90
c52 0 95.333 -17.5 130 -52.5s52 -74.833 52 -119.5zM1399 1319c0 34.667 -11.8311 64.834 -35.498 90.501s-53.5 38.5 -89.5 38.5c-116 0 -254.333 -59.333 -415 -178c-149.333 -110.667 -279 -242.334 -389 -395.001c-115.333 -159.333 -173 -294 -173 -404
c0 -62 24.667 -111.667 74 -149c18.667 196 92.667 375.333 222 538c133.333 168 275.666 252 426.999 252c33.333 0 65.666 -9.5 96.999 -28.5s53 -43.5 65 -73.5c64.667 37.333 117 83.833 157 139.5s60 112.167 60 169.5zM1153 948.002
c-94 -38 -168.332 -57 -222.999 -57c-19.333 0 -29 6.66699 -29 20c0 10.667 20.667 19 62 25c55.333 8.66699 115.333 27 180 55c-22 53.333 -65 80 -129 80c-136.667 0 -270.334 -86 -401.001 -258c-128.667 -169.333 -195 -341.333 -199 -516c20 -6.66699 37 -10 51 -10
c142.667 0 293.667 78 453 234c156.667 154 235 296.333 235 427z" />
    <glyph glyph-name="Oacute" unicode="&#xd3;" horiz-adv-x="872" 
d="M1458 1704c0 -12.667 -10.999 -25.667 -32.999 -39l-112 -68c-7.33301 -5.33301 -17 -8 -29 -8c-9.33301 0 -14 3.33301 -14 10c0 6 6 13.667 18 23l101 76c19.333 14.667 35.666 22 48.999 22s20 -5.33301 20 -16zM1444 1317c0 -119.333 -82.667 -235.998 -248 -349.998
c0 -2.66699 0.666992 -9.16699 2 -19.5s2 -16.833 2 -19.5c0 -134.667 -86 -282.334 -258 -443.001c-174.667 -162 -337.667 -243 -489 -243c-2.66699 0 -16.334 1.33301 -41.001 4v-27c0 -100.667 12.333 -195.667 37 -285c1.33301 -4.66699 2 -10 2 -16
c0 -12 -6.33301 -18 -19 -18c-14 0 -25.667 23 -35 69c-20 101.333 -30 188.666 -30 261.999v27c-119.333 48 -179 141.667 -179 281c0 210.667 114 416.667 342 618c114.667 101.333 238.334 182 371.001 242s253 90 361 90c52 0 95.333 -17.5 130 -52.5
s52 -74.833 52 -119.5zM1399 1319c0 34.667 -11.8311 64.834 -35.498 90.501s-53.5 38.5 -89.5 38.5c-116 0 -254.333 -59.333 -415 -178c-149.333 -110.667 -279 -242.334 -389 -395.001c-115.333 -159.333 -173 -294 -173 -404c0 -62 24.667 -111.667 74 -149
c18.667 196 92.667 375.333 222 538c133.333 168 275.666 252 426.999 252c33.333 0 65.666 -9.5 96.999 -28.5s53 -43.5 65 -73.5c64.667 37.333 117 83.833 157 139.5s60 112.167 60 169.5zM1153 948.002c-94 -38 -168.332 -57 -222.999 -57c-19.333 0 -29 6.66699 -29 20
c0 10.667 20.667 19 62 25c55.333 8.66699 115.333 27 180 55c-22 53.333 -65 80 -129 80c-136.667 0 -270.334 -86 -401.001 -258c-128.667 -169.333 -195 -341.333 -199 -516c20 -6.66699 37 -10 51 -10c142.667 0 293.667 78 453 234c156.667 154 235 296.333 235 427z
" />
    <glyph glyph-name="Ocircumflex" unicode="&#xd4;" horiz-adv-x="872" 
d="M1427 1610c0 -14 -3.33301 -21 -10 -21c-6 0 -11.333 7 -16 21l-31 92l-162 -105c-6 -4 -11.333 -6 -16 -6c-6.66699 0 -10 2.66699 -10 8c0 4.66699 2.66699 9.66699 8 15l129 100c24.667 19.333 45 29 61 29s26.333 -13 31 -39zM1444 1317
c0 -119.333 -82.667 -235.998 -248 -349.998c0 -2.66699 0.666992 -9.16699 2 -19.5s2 -16.833 2 -19.5c0 -134.667 -86 -282.334 -258 -443.001c-174.667 -162 -337.667 -243 -489 -243c-2.66699 0 -16.334 1.33301 -41.001 4v-27c0 -100.667 12.333 -195.667 37 -285
c1.33301 -4.66699 2 -10 2 -16c0 -12 -6.33301 -18 -19 -18c-14 0 -25.667 23 -35 69c-20 101.333 -30 188.666 -30 261.999v27c-119.333 48 -179 141.667 -179 281c0 210.667 114 416.667 342 618c114.667 101.333 238.334 182 371.001 242s253 90 361 90
c52 0 95.333 -17.5 130 -52.5s52 -74.833 52 -119.5zM1399 1319c0 34.667 -11.8311 64.834 -35.498 90.501s-53.5 38.5 -89.5 38.5c-116 0 -254.333 -59.333 -415 -178c-149.333 -110.667 -279 -242.334 -389 -395.001c-115.333 -159.333 -173 -294 -173 -404
c0 -62 24.667 -111.667 74 -149c18.667 196 92.667 375.333 222 538c133.333 168 275.666 252 426.999 252c33.333 0 65.666 -9.5 96.999 -28.5s53 -43.5 65 -73.5c64.667 37.333 117 83.833 157 139.5s60 112.167 60 169.5zM1153 948.002
c-94 -38 -168.332 -57 -222.999 -57c-19.333 0 -29 6.66699 -29 20c0 10.667 20.667 19 62 25c55.333 8.66699 115.333 27 180 55c-22 53.333 -65 80 -129 80c-136.667 0 -270.334 -86 -401.001 -258c-128.667 -169.333 -195 -341.333 -199 -516c20 -6.66699 37 -10 51 -10
c142.667 0 293.667 78 453 234c156.667 154 235 296.333 235 427z" />
    <glyph glyph-name="Otilde" unicode="&#xd5;" horiz-adv-x="872" 
d="M1421 1653c-10.667 -41.333 -33 -62 -67 -62c-12 0 -23.667 3.66699 -35 11l-44 20c-2.66699 1.33301 -5 2 -7 2c-10 0 -18.333 -5.33301 -25 -16l-10 -17l-19 15c19.333 38 39.333 57 60 57l24 -8l37 -17c9.33301 -4 17 -6 23 -6c12 0 24.333 6.33301 37 19l12 12z
M1444 1317c0 -119.333 -82.667 -235.998 -248 -349.998c0 -2.66699 0.666992 -9.16699 2 -19.5s2 -16.833 2 -19.5c0 -134.667 -86 -282.334 -258 -443.001c-174.667 -162 -337.667 -243 -489 -243c-2.66699 0 -16.334 1.33301 -41.001 4v-27
c0 -100.667 12.333 -195.667 37 -285c1.33301 -4.66699 2 -10 2 -16c0 -12 -6.33301 -18 -19 -18c-14 0 -25.667 23 -35 69c-20 101.333 -30 188.666 -30 261.999v27c-119.333 48 -179 141.667 -179 281c0 210.667 114 416.667 342 618
c114.667 101.333 238.334 182 371.001 242s253 90 361 90c52 0 95.333 -17.5 130 -52.5s52 -74.833 52 -119.5zM1399 1319c0 34.667 -11.8311 64.834 -35.498 90.501s-53.5 38.5 -89.5 38.5c-116 0 -254.333 -59.333 -415 -178
c-149.333 -110.667 -279 -242.334 -389 -395.001c-115.333 -159.333 -173 -294 -173 -404c0 -62 24.667 -111.667 74 -149c18.667 196 92.667 375.333 222 538c133.333 168 275.666 252 426.999 252c33.333 0 65.666 -9.5 96.999 -28.5s53 -43.5 65 -73.5
c64.667 37.333 117 83.833 157 139.5s60 112.167 60 169.5zM1153 948.002c-94 -38 -168.332 -57 -222.999 -57c-19.333 0 -29 6.66699 -29 20c0 10.667 20.667 19 62 25c55.333 8.66699 115.333 27 180 55c-22 53.333 -65 80 -129 80c-136.667 0 -270.334 -86 -401.001 -258
c-128.667 -169.333 -195 -341.333 -199 -516c20 -6.66699 37 -10 51 -10c142.667 0 293.667 78 453 234c156.667 154 235 296.333 235 427z" />
    <glyph glyph-name="Odieresis" unicode="&#xd6;" horiz-adv-x="872" 
d="M1397 1626c0 -27.333 -14.333 -41 -43 -41c-18 0 -27 9 -27 27c0 28.667 14.333 43 43 43c18 0 27 -9.66699 27 -29zM1247 1628c0 -10.667 -4.83203 -20.5 -14.499 -29.5s-19.834 -13.5 -30.501 -13.5c-18.667 0 -28 9.66699 -28 29c0 28.667 14.333 43 43 43
c20 0 30 -9.66699 30 -29zM1444 1317c0 -119.333 -82.667 -235.998 -248 -349.998c0 -2.66699 0.666992 -9.16699 2 -19.5s2 -16.833 2 -19.5c0 -134.667 -86 -282.334 -258 -443.001c-174.667 -162 -337.667 -243 -489 -243c-2.66699 0 -16.334 1.33301 -41.001 4v-27
c0 -100.667 12.333 -195.667 37 -285c1.33301 -4.66699 2 -10 2 -16c0 -12 -6.33301 -18 -19 -18c-14 0 -25.667 23 -35 69c-20 101.333 -30 188.666 -30 261.999v27c-119.333 48 -179 141.667 -179 281c0 210.667 114 416.667 342 618
c114.667 101.333 238.334 182 371.001 242s253 90 361 90c52 0 95.333 -17.5 130 -52.5s52 -74.833 52 -119.5zM1399 1319c0 34.667 -11.8311 64.834 -35.498 90.501s-53.5 38.5 -89.5 38.5c-116 0 -254.333 -59.333 -415 -178
c-149.333 -110.667 -279 -242.334 -389 -395.001c-115.333 -159.333 -173 -294 -173 -404c0 -62 24.667 -111.667 74 -149c18.667 196 92.667 375.333 222 538c133.333 168 275.666 252 426.999 252c33.333 0 65.666 -9.5 96.999 -28.5s53 -43.5 65 -73.5
c64.667 37.333 117 83.833 157 139.5s60 112.167 60 169.5zM1153 948.002c-94 -38 -168.332 -57 -222.999 -57c-19.333 0 -29 6.66699 -29 20c0 10.667 20.667 19 62 25c55.333 8.66699 115.333 27 180 55c-22 53.333 -65 80 -129 80c-136.667 0 -270.334 -86 -401.001 -258
c-128.667 -169.333 -195 -341.333 -199 -516c20 -6.66699 37 -10 51 -10c142.667 0 293.667 78 453 234c156.667 154 235 296.333 235 427z" />
    <glyph glyph-name="multiply" unicode="&#xd7;" horiz-adv-x="1024" 
d="M865 335l-43 -43l-197 198l-198 -198l-43 43l198 197l-198 198l43 43l198 -198l197 198l43 -43l-197 -198z" />
    <glyph glyph-name="Oslash" unicode="&#xd8;" horiz-adv-x="872" 
d="M1579 1513c0 -7.33301 -7.66699 -17.3311 -23 -29.998l-122 -101c6.66699 -16 10 -37.667 10 -65c0 -119.333 -82.667 -236 -248 -350c0 -2.66699 0.666992 -9.16699 2 -19.5s2 -16.833 2 -19.5c0 -134.667 -86 -282.334 -258 -443.001
c-174.667 -162 -337.667 -243 -489 -243c-62 0 -117 21.667 -165 65c-36.667 33.333 -58.334 64.666 -65.001 93.999l-157 -129c-8.66699 -6.66699 -17 -10 -25 -10c-9.33301 0 -14 4.66699 -14 14c0 8 5.33301 16.333 16 25l162 130c-11.333 33.333 -17 69.333 -17 108
c0 210.667 114 416.667 342 618c114.667 101.333 238.334 182 371.001 242s253 90 361 90c64.667 0 115 -26 151 -78l129 105c11.333 9.33301 20.333 14 27 14s10 -5.66699 10 -17zM1403 1325c0 4.66699 -0.333008 10 -1 16s-1 11 -1 15l-315 -256c46 -16 78 -46 96 -90
c64.667 37.333 117.667 84.833 159 142.5s62 115.167 62 172.5zM1381 1385c-23.333 42 -59 63 -107 63c-112 0 -245.333 -55.667 -400 -167c-144 -103.333 -271.333 -228.666 -382 -375.999c-116 -152.667 -180.333 -285.334 -193 -398.001l157 128
c62 136.667 143 249 243 337c105.333 93.333 212.333 140 321 140c7.33301 0 15 -0.666992 23 -2zM994 1070c-80 -6 -162.334 -43.999 -247.001 -113.999c-79.333 -66.667 -148.666 -151.334 -207.999 -254.001zM1153 948.003c-94 -38 -168.334 -56.999 -223.001 -56.999
c-19.333 0 -29 6.66699 -29 20c0 10.667 20.667 19 62 25c55.333 8.66699 115.333 27 180 55c-17.333 42 -50.666 66.667 -99.999 74l-531 -432c-28.667 -52.667 -43 -135.334 -43 -248.001c0 -19.333 -6.66699 -29 -20 -29c-16 0 -24.333 20.667 -25 62
c-0.666992 45.333 4.66602 97.333 15.999 156l-137 -109c-3.33301 -38.667 9.33398 -77 38.001 -115c32.667 -42 74 -63 124 -63c142.667 0 293.667 78 453 234c156.667 154 235 296.333 235 427z" />
    <glyph glyph-name="Ugrave" unicode="&#xd9;" horiz-adv-x="1442" 
d="M1608 1495c0 -5.33301 -3.66602 -7.99902 -10.999 -7.99902c-4 0 -12.667 3.33301 -26 10l-103 53c-34 18 -51 33 -51 45c0 16.667 8.33301 25 25 25c7.33301 0 21.666 -8.33301 42.999 -25l112 -86c7.33301 -6.66699 11 -11.334 11 -14.001zM1829 1237
c0 -15.333 -14.3359 -39.333 -43.0029 -72c-100 -114 -223 -267 -369 -459c-166.667 -220 -250 -346 -250 -378c0 -20.667 13 -31 39 -31c92 0 203.333 68.333 334 205c6.66699 8 14.334 12 23.001 12c9.33301 0 14 -4 14 -12c0 -15.333 -42.333 -58 -127 -128
c-97.333 -80 -180.666 -120 -249.999 -120c-84.667 0 -127 38.333 -127 115c0 24.667 3.33301 49.667 10 75c-156 -134.667 -276 -202 -360 -202c-42 0 -77.333 13 -106 39c-30.667 27.333 -46 62.666 -46 105.999c0 72.667 50.667 159.334 152 260.001
c161.333 160.667 272 283 332 367c73.333 102 110 195.333 110 280c0 63.333 -27.833 113.666 -83.5 150.999s-128.834 56 -219.501 56c-196 0 -377.667 -54 -545 -162s-251 -226 -251 -354c0 -58.667 20.333 -106.5 61 -143.5s91.334 -55.5 152.001 -55.5
c114 0 226.333 50.333 337 151c114 103.333 173 215 177 335c0.666992 35.333 7.33398 53 20.001 53c15.333 0 23 -10.333 23 -31c0 -128.667 -58.667 -251.334 -176 -368.001c-118.667 -118.667 -246.667 -178 -384 -178c-70 0 -129 22.333 -177 67s-72 102.667 -72 174
c0 137.333 87.833 263.5 263.5 378.5s365.5 172.5 569.5 172.5c236 0 354 -99 354 -297c0 -160 -121.333 -363.333 -364 -610c-94 -95.333 -143.333 -145.666 -148 -150.999c-40.667 -46 -61 -83.667 -61 -113c0 -50.667 28.667 -76 86 -76
c73.333 0 167.666 49.667 282.999 149c92.667 80.667 183.334 178.334 272.001 293.001l221 287c102 131.333 156 200.333 162 207c22.667 24.667 52 37 88 37c50.667 0 76 -9.66699 76 -29z" />
    <glyph glyph-name="Uacute" unicode="&#xda;" horiz-adv-x="1442" 
d="M1692 1602c0 -13.333 -11.001 -26.333 -33.001 -39l-113 -68c-7.33301 -5.33301 -16.666 -8 -27.999 -8c-10 0 -15 3.33301 -15 10c0 6 6.33301 13.667 19 23l100 75c20 15.333 36.333 23 49 23c14 0 21 -5.33301 21 -16zM1829 1237
c0 -15.333 -14.3359 -39.333 -43.0029 -72c-100 -114 -223 -267 -369 -459c-166.667 -220 -250 -346 -250 -378c0 -20.667 13 -31 39 -31c92 0 203.333 68.333 334 205c6.66699 8 14.334 12 23.001 12c9.33301 0 14 -4 14 -12c0 -15.333 -42.333 -58 -127 -128
c-97.333 -80 -180.666 -120 -249.999 -120c-84.667 0 -127 38.333 -127 115c0 24.667 3.33301 49.667 10 75c-156 -134.667 -276 -202 -360 -202c-42 0 -77.333 13 -106 39c-30.667 27.333 -46 62.666 -46 105.999c0 72.667 50.667 159.334 152 260.001
c161.333 160.667 272 283 332 367c73.333 102 110 195.333 110 280c0 63.333 -27.833 113.666 -83.5 150.999s-128.834 56 -219.501 56c-196 0 -377.667 -54 -545 -162s-251 -226 -251 -354c0 -58.667 20.333 -106.5 61 -143.5s91.334 -55.5 152.001 -55.5
c114 0 226.333 50.333 337 151c114 103.333 173 215 177 335c0.666992 35.333 7.33398 53 20.001 53c15.333 0 23 -10.333 23 -31c0 -128.667 -58.667 -251.334 -176 -368.001c-118.667 -118.667 -246.667 -178 -384 -178c-70 0 -129 22.333 -177 67s-72 102.667 -72 174
c0 137.333 87.833 263.5 263.5 378.5s365.5 172.5 569.5 172.5c236 0 354 -99 354 -297c0 -160 -121.333 -363.333 -364 -610c-94 -95.333 -143.333 -145.666 -148 -150.999c-40.667 -46 -61 -83.667 -61 -113c0 -50.667 28.667 -76 86 -76
c73.333 0 167.666 49.667 282.999 149c92.667 80.667 183.334 178.334 272.001 293.001l221 287c102 131.333 156 200.333 162 207c22.667 24.667 52 37 88 37c50.667 0 76 -9.66699 76 -29z" />
    <glyph glyph-name="Ucircumflex" unicode="&#xdb;" horiz-adv-x="1442" 
d="M1673 1507c0 -13.333 -3.33301 -20 -10 -20s-12 6.66699 -16 20l-31 92l-162 -104c-6 -4 -11.333 -6 -16 -6c-7.33301 0 -11 2.66699 -11 8c0 4 3 8.66699 9 14l129 101c24.667 18.667 45 28 61 28s26.333 -12.667 31 -38zM1829 1237
c0 -15.333 -14.3359 -39.333 -43.0029 -72c-100 -114 -223 -267 -369 -459c-166.667 -220 -250 -346 -250 -378c0 -20.667 13 -31 39 -31c92 0 203.333 68.333 334 205c6.66699 8 14.334 12 23.001 12c9.33301 0 14 -4 14 -12c0 -15.333 -42.333 -58 -127 -128
c-97.333 -80 -180.666 -120 -249.999 -120c-84.667 0 -127 38.333 -127 115c0 24.667 3.33301 49.667 10 75c-156 -134.667 -276 -202 -360 -202c-42 0 -77.333 13 -106 39c-30.667 27.333 -46 62.666 -46 105.999c0 72.667 50.667 159.334 152 260.001
c161.333 160.667 272 283 332 367c73.333 102 110 195.333 110 280c0 63.333 -27.833 113.666 -83.5 150.999s-128.834 56 -219.501 56c-196 0 -377.667 -54 -545 -162s-251 -226 -251 -354c0 -58.667 20.333 -106.5 61 -143.5s91.334 -55.5 152.001 -55.5
c114 0 226.333 50.333 337 151c114 103.333 173 215 177 335c0.666992 35.333 7.33398 53 20.001 53c15.333 0 23 -10.333 23 -31c0 -128.667 -58.667 -251.334 -176 -368.001c-118.667 -118.667 -246.667 -178 -384 -178c-70 0 -129 22.333 -177 67s-72 102.667 -72 174
c0 137.333 87.833 263.5 263.5 378.5s365.5 172.5 569.5 172.5c236 0 354 -99 354 -297c0 -160 -121.333 -363.333 -364 -610c-94 -95.333 -143.333 -145.666 -148 -150.999c-40.667 -46 -61 -83.667 -61 -113c0 -50.667 28.667 -76 86 -76
c73.333 0 167.666 49.667 282.999 149c92.667 80.667 183.334 178.334 272.001 293.001l221 287c102 131.333 156 200.333 162 207c22.667 24.667 52 37 88 37c50.667 0 76 -9.66699 76 -29z" />
    <glyph glyph-name="Udieresis" unicode="&#xdc;" horiz-adv-x="1442" 
d="M1692 1524c0 -27.333 -14.333 -41 -43 -41c-18 0 -27 8.66699 -27 26c0 28.667 14.333 43 43 43c18 0 27 -9.33301 27 -28zM1542 1526c0 -11.333 -4.83203 -21.333 -14.499 -30s-19.834 -13 -30.501 -13c-19.333 0 -29 9.33301 -29 28c0 28.667 14.333 43 43 43
c20.667 0 31 -9.33301 31 -28zM1829 1237c0 -15.333 -14.3359 -39.333 -43.0029 -72c-100 -114 -223 -267 -369 -459c-166.667 -220 -250 -346 -250 -378c0 -20.667 13 -31 39 -31c92 0 203.333 68.333 334 205c6.66699 8 14.334 12 23.001 12c9.33301 0 14 -4 14 -12
c0 -15.333 -42.333 -58 -127 -128c-97.333 -80 -180.666 -120 -249.999 -120c-84.667 0 -127 38.333 -127 115c0 24.667 3.33301 49.667 10 75c-156 -134.667 -276 -202 -360 -202c-42 0 -77.333 13 -106 39c-30.667 27.333 -46 62.666 -46 105.999
c0 72.667 50.667 159.334 152 260.001c161.333 160.667 272 283 332 367c73.333 102 110 195.333 110 280c0 63.333 -27.833 113.666 -83.5 150.999s-128.834 56 -219.501 56c-196 0 -377.667 -54 -545 -162s-251 -226 -251 -354c0 -58.667 20.333 -106.5 61 -143.5
s91.334 -55.5 152.001 -55.5c114 0 226.333 50.333 337 151c114 103.333 173 215 177 335c0.666992 35.333 7.33398 53 20.001 53c15.333 0 23 -10.333 23 -31c0 -128.667 -58.667 -251.334 -176 -368.001c-118.667 -118.667 -246.667 -178 -384 -178
c-70 0 -129 22.333 -177 67s-72 102.667 -72 174c0 137.333 87.833 263.5 263.5 378.5s365.5 172.5 569.5 172.5c236 0 354 -99 354 -297c0 -160 -121.333 -363.333 -364 -610c-94 -95.333 -143.333 -145.666 -148 -150.999c-40.667 -46 -61 -83.667 -61 -113
c0 -50.667 28.667 -76 86 -76c73.333 0 167.666 49.667 282.999 149c92.667 80.667 183.334 178.334 272.001 293.001l221 287c102 131.333 156 200.333 162 207c22.667 24.667 52 37 88 37c50.667 0 76 -9.66699 76 -29z" />
    <glyph glyph-name="Yacute" unicode="&#xdd;" horiz-adv-x="1251" 
d="M1706 1602c0 -13.333 -11 -26.333 -33 -39l-112 -68c-7.33301 -5.33301 -17 -8 -29 -8c-9.33301 0 -14 3.33301 -14 10c0 6 6 13.667 18 23l100 75c20 15.333 36.667 23 50 23s20 -5.33301 20 -16zM1798 1128l-559.003 -710.001c-160 -204 -270 -336.667 -330 -398
c40 -22.667 90 -61 150 -115c69.333 -63.333 104 -108 104 -134c0 -12.667 -5.33301 -19 -16 -19c-6.66699 0 -19 11 -37 33c-68 82.667 -145.667 150.334 -233 203.001c-285.333 -303.333 -579.666 -455 -882.999 -455c-112 0 -205.833 21.5 -281.5 64.5
s-113.5 96.5 -113.5 160.5c0 103.333 74.833 194 224.5 272s324.5 117 524.5 117c150 0 293.333 -23 430 -69c48 56 104 126.333 168 211c-61.333 -31.333 -118.666 -47 -171.999 -47c-122.667 0 -184 49 -184 147c0 74 50.333 160.667 151 260
c155.333 152.667 264.666 273 327.999 361c76.667 106 115 201.333 115 286c0 63.333 -27.667 113.666 -83 150.999s-128.666 56 -219.999 56c-196 0 -377.833 -54 -545.5 -162s-251.5 -226 -251.5 -354c0 -58.667 20.333 -106.5 61 -143.5s91.334 -55.5 152.001 -55.5
c119.333 0 234.666 52 345.999 156s167.333 214 168 330c0 35.333 7.66699 53 23 53c13.333 0 20 -10.333 20 -31c0 -133.333 -58.5 -257.666 -175.5 -372.999s-244.167 -173 -381.5 -173c-70.667 0 -129.667 22 -177 66c-50 46 -75 104.333 -75 175
c0 137.333 88.333 263.666 265 378.999c174.667 114.667 364.334 172 569.001 172c236 0 354 -99 354 -297c0 -113.333 -49.667 -236.333 -149 -369c-46 -61.333 -138 -161.666 -276 -300.999c-99.333 -100.667 -149 -168.667 -149 -204c0 -53.333 41 -80 123 -80
c66.667 0 128.167 21.5 184.5 64.5s135.5 129.167 237.5 258.5l406 514h188zM749.997 42.999c-123.333 40.667 -259.332 61 -407.999 61c-189.333 0 -354 -35.667 -494 -107c-136 -70 -204 -150.333 -204 -241c0 -53.333 31.167 -96 93.5 -128s142.166 -48 239.499 -48
c148 0 281.667 36.333 401 109c118 70.667 242 188.667 372 354z" />
    <glyph glyph-name="Thorn" unicode="&#xde;" horiz-adv-x="1171" 
d="M2091 1427c0 -9.33301 -6.00391 -13.998 -18.0039 -13.998c-8.66699 0 -18.334 4.66699 -29.001 14c-64.667 57.333 -165.667 86 -303 86c-101.333 0 -213.333 -51 -336 -153c-32 -26.667 -71.667 -73 -119 -139c32 -18.667 61 -53.667 87 -105
c28 -54.667 42 -109.334 42 -164.001c0 -133.333 -51 -249.166 -153 -347.499s-220.333 -147.5 -355 -147.5c-29.333 0 -62 4.66699 -98 14c-80 -76.667 -177.667 -135.334 -293 -176.001c-101.333 -35.333 -203.666 -53 -306.999 -53
c-149.333 0 -269.666 26.333 -360.999 79c-80 47.333 -120 102 -120 164c0 70 20.333 129 61 177c50 58.667 122.333 88 217 88c36.667 0 62.5 -3.83301 77.5 -11.5s22.5 -16.167 22.5 -25.5c0 -11.333 -6.66699 -17 -20 -17c-0.666992 0 -9.83398 1.83301 -27.501 5.5
s-35.834 5.5 -54.501 5.5c-67.333 0 -122 -20.167 -164 -60.5s-63 -93.5 -63 -159.5c0 -48 33.333 -91.333 100 -130c70.667 -41.333 156.667 -62 258 -62c179.333 0 360.333 80 543 240c-42.667 29.333 -64 55 -64 77c0 12.667 5 19 15 19c3.33301 0 11.333 -9 24 -27
c10.667 -14.667 30.667 -28.334 60 -41.001c32 25.333 75 69.666 129 132.999c20.667 24.667 80.334 114.334 179.001 269.001c94.667 148.667 154.334 235.667 179.001 261c-23.333 17.333 -60.666 33 -111.999 47c-57.333 16 -113 24 -167 24
c-194.667 0 -363.667 -43.667 -507 -131c-148 -90.667 -222 -201.334 -222 -332.001c0 -48 19.833 -90 59.5 -126s87.5 -54 143.5 -54c128.667 0 231.334 46.667 308.001 140c70.667 86 106 194.333 106 325c0 21.333 -2 40.333 -6 57s-6 27 -6 31c0 10 4.66699 15 14 15
c27.333 0 41 -41 41 -123c0 -134.667 -40.333 -248 -121 -340c-84 -96 -193.333 -144 -328 -144c-81.333 0 -146 23.667 -194 71c-42.667 42 -64 93 -64 153c0 138 75.333 256 226 354s335 147 553 147c129.333 0 231 -26 305 -78c40.667 47.333 86.334 90.333 137.001 129
c69.333 52 116 84.667 140 98c78 43.333 159 65 243 65c65.333 0 136.333 -12 213 -36c86 -27.333 129 -57.666 129 -90.999zM1368 950.002c0 44.667 -12.333 91.333 -37 140c-20 40 -41.667 70 -65 90c-13.333 -15.333 -57.166 -99.333 -131.499 -252
s-126.5 -247.167 -156.5 -283.5s-72.667 -83.833 -128 -142.5c19.333 -4 37.666 -6 54.999 -6c120.667 0 228 45.833 322 137.5s141 197.167 141 316.5z" />
    <glyph glyph-name="germandbls" unicode="&#xdf;" horiz-adv-x="604" 
d="M956 1206c0 -48.667 -55.667 -125.001 -167 -229.001c-105.333 -98 -191 -160 -257 -186c-21.333 -8.66699 -32 -21 -32 -37c0 -6 8.16699 -32 24.5 -78s24.5 -86.333 24.5 -121c0 -49.333 -13.667 -99.666 -41 -150.999c-22.667 -42 -44.667 -69.333 -66 -82
c50 16 106.333 43 169 81s109.667 73 141 105c14.667 14.667 26.667 22 36 22c8.66699 0 13 -3.33301 13 -10c0 -5.33301 -18.667 -25 -56 -59c-48.667 -46 -121 -91 -217 -135c-108.667 -49.333 -200.667 -74 -276 -74c-74 0 -111 19.667 -111 59
c0 17.333 6.66699 32 20 44s28 18 44 18c14 0 22 -9 24 -27c5.33301 -43.333 18.333 -65 39 -65c36 0 75.667 30.667 119 92c48 67.333 72 139 72 215c0 42.667 -2.5 81.5 -7.5 116.5s-7.5 52.833 -7.5 53.5c0 20 29.333 45.333 88 76c44 21.333 113.333 75 208 161
c107.333 98 161 166.333 161 205c0 30 -10.333 45 -31 45c-80.667 0 -209.667 -124.333 -387 -373l-780 -1093h-139l788 1048c236 314 408.667 471 518 471c23.333 0 43.5 -8.83301 60.5 -26.5s25.5 -39.5 25.5 -65.5z" />
    <glyph glyph-name="agrave" unicode="&#xe0;" horiz-adv-x="455" 
d="M412 672c0 -5.33301 -3.66504 -7.99902 -10.998 -7.99902c-4.66699 0 -13.334 3.33301 -26.001 10l-103 53c-34 18 -51 33 -51 45c0 16.667 8.33301 25 25 25c7.33301 0 21.666 -8.33301 42.999 -25l112 -86c7.33301 -6.66699 11 -11.334 11 -14.001zM612.002 520.001
c0 -8 -7.99805 -18.999 -23.998 -32.999l-147 -137c-77.333 -66.667 -137 -100 -179 -100c-35.333 0 -57 23 -65 69c-49.333 -42 -88.333 -63 -117 -63c-49.333 0 -74 24.667 -74 74c0 55.333 25.5 112.166 76.5 170.499s106.833 87.5 167.5 87.5
c25.333 0 52.666 -16.333 81.999 -49l28 34h125l-202 -264c-8.66699 -10.667 -13 -16.667 -13 -18c0 -4 3 -6 9 -6c39.333 0 124.666 65.333 255.999 196c32.667 32.667 53.667 49 63 49s14 -3.33301 14 -10zM307.004 508.002c-14.667 26 -29.667 39 -45 39
c-5.33301 0 -20.333 -13 -45 -39c-30 -32 -59.667 -69 -89 -111c-32 -45.333 -48 -75.333 -48 -90c0 -8 3.33301 -12 10 -12c28.667 0 67 29.333 115 88z" />
    <glyph glyph-name="aacute" unicode="&#xe1;" horiz-adv-x="455" 
d="M510 778c0 -12.667 -11 -25.666 -33 -38.999l-112 -67c-7.33301 -5.33301 -17 -8 -29 -8c-9.33301 0 -14 3.33301 -14 10c0 5.33301 6 12.666 18 21.999l100 76c20 15.333 36.333 23 49 23c14 0 21 -5.66699 21 -17zM612 520.001c0 -8 -7.99805 -18.999 -23.998 -32.999
l-147 -137c-77.333 -66.667 -137 -100 -179 -100c-35.333 0 -57 23 -65 69c-49.333 -42 -88.333 -63 -117 -63c-49.333 0 -74 24.667 -74 74c0 55.333 25.5 112.166 76.5 170.499s106.833 87.5 167.5 87.5c25.333 0 52.666 -16.333 81.999 -49l28 34h125l-202 -264
c-8.66699 -10.667 -13 -16.667 -13 -18c0 -4 3 -6 9 -6c39.333 0 124.666 65.333 255.999 196c32.667 32.667 53.667 49 63 49s14 -3.33301 14 -10zM307.002 508.002c-14.667 26 -29.667 39 -45 39c-5.33301 0 -20.333 -13 -45 -39c-30 -32 -59.667 -69 -89 -111
c-32 -45.333 -48 -75.333 -48 -90c0 -8 3.33301 -12 10 -12c28.667 0 67 29.333 115 88z" />
    <glyph glyph-name="acircumflex" unicode="&#xe2;" horiz-adv-x="455" 
d="M453 684c0 -13.333 -3.66797 -20 -11.001 -20c-6 0 -11.333 6.66699 -16 20l-31 92l-162 -104c-6 -4 -11.333 -6 -16 -6c-6.66699 0 -10 2.66699 -10 8c0 4 2.66699 8.66699 8 14l129 100c24.667 19.333 45.334 29 62.001 29c15.333 0 25.333 -13 30 -39zM611.999 520
c0 -8 -7.99805 -18.999 -23.998 -32.999l-147 -137c-77.333 -66.667 -137 -100 -179 -100c-35.333 0 -57 23 -65 69c-49.333 -42 -88.333 -63 -117 -63c-49.333 0 -74 24.667 -74 74c0 55.333 25.5 112.166 76.5 170.499s106.833 87.5 167.5 87.5
c25.333 0 52.666 -16.333 81.999 -49l28 34h125l-202 -264c-8.66699 -10.667 -13 -16.667 -13 -18c0 -4 3 -6 9 -6c39.333 0 124.666 65.333 255.999 196c32.667 32.667 53.667 49 63 49s14 -3.33301 14 -10zM307.001 508.001c-14.667 26 -29.667 39 -45 39
c-5.33301 0 -20.333 -13 -45 -39c-30 -32 -59.667 -69 -89 -111c-32 -45.333 -48 -75.333 -48 -90c0 -8 3.33301 -12 10 -12c28.667 0 67 29.333 115 88z" />
    <glyph glyph-name="atilde" unicode="&#xe3;" horiz-adv-x="455" 
d="M455 760c-11.333 -41.333 -34.001 -62 -68.001 -62c-8.66699 0 -30.334 8.33301 -65.001 25l-14 6c-2.66699 1.33301 -5 2 -7 2c-9.33301 0 -17.666 -5.33301 -24.999 -16l-10 -17l-18 15c18.667 38 38.334 57 59.001 57c4 0 24.667 -8.33301 62 -25
c8.66699 -4 16 -6 22 -6c12.667 0 25 6.33301 37 19l12 12zM611.999 520c0 -8 -7.99805 -18.999 -23.998 -32.999l-147 -137c-77.333 -66.667 -137 -100 -179 -100c-35.333 0 -57 23 -65 69c-49.333 -42 -88.333 -63 -117 -63c-49.333 0 -74 24.667 -74 74
c0 55.333 25.5 112.166 76.5 170.499s106.833 87.5 167.5 87.5c25.333 0 52.666 -16.333 81.999 -49l28 34h125l-202 -264c-8.66699 -10.667 -13 -16.667 -13 -18c0 -4 3 -6 9 -6c39.333 0 124.666 65.333 255.999 196c32.667 32.667 53.667 49 63 49s14 -3.33301 14 -10z
M307.001 508.001c-14.667 26 -29.667 39 -45 39c-5.33301 0 -20.333 -13 -45 -39c-30 -32 -59.667 -69 -89 -111c-32 -45.333 -48 -75.333 -48 -90c0 -8 3.33301 -12 10 -12c28.667 0 67 29.333 115 88z" />
    <glyph glyph-name="adieresis" unicode="&#xe4;" horiz-adv-x="455" 
d="M504 741c0 -27.333 -14.333 -41 -43 -41c-18 0 -27 9 -27 27c0 28.667 14.333 43 43 43c18 0 27 -9.66699 27 -29zM354 743c0 -10.667 -4.83203 -20.5 -14.499 -29.5s-19.834 -13.5 -30.501 -13.5c-18.667 0 -28 9.66699 -28 29c0 28.667 14.333 43 43 43
c20 0 30 -9.66699 30 -29zM612.001 520c0 -8 -7.99805 -18.999 -23.998 -32.999l-147 -137c-77.333 -66.667 -137 -100 -179 -100c-35.333 0 -57 23 -65 69c-49.333 -42 -88.333 -63 -117 -63c-49.333 0 -74 24.667 -74 74c0 55.333 25.5 112.166 76.5 170.499
s106.833 87.5 167.5 87.5c25.333 0 52.666 -16.333 81.999 -49l28 34h125l-202 -264c-8.66699 -10.667 -13 -16.667 -13 -18c0 -4 3 -6 9 -6c39.333 0 124.666 65.333 255.999 196c32.667 32.667 53.667 49 63 49s14 -3.33301 14 -10zM307.003 508.001
c-14.667 26 -29.667 39 -45 39c-5.33301 0 -20.333 -13 -45 -39c-30 -32 -59.667 -69 -89 -111c-32 -45.333 -48 -75.333 -48 -90c0 -8 3.33301 -12 10 -12c28.667 0 67 29.333 115 88z" />
    <glyph glyph-name="aring" unicode="&#xe5;" horiz-adv-x="455" 
d="M395 745c0 -15.333 -7 -29.333 -21 -42s-28.667 -19 -44 -19c-28.667 0 -43 13.667 -43 41c0 15.333 7 29.333 21 42s28.667 19 44 19c28.667 0 43 -13.667 43 -41zM612 520c0 -8 -7.99805 -18.999 -23.998 -32.999l-147 -137c-77.333 -66.667 -137 -100 -179 -100
c-35.333 0 -57 23 -65 69c-49.333 -42 -88.333 -63 -117 -63c-49.333 0 -74 24.667 -74 74c0 55.333 25.5 112.166 76.5 170.499s106.833 87.5 167.5 87.5c25.333 0 52.666 -16.333 81.999 -49l28 34h125l-202 -264c-8.66699 -10.667 -13 -16.667 -13 -18c0 -4 3 -6 9 -6
c39.333 0 124.666 65.333 255.999 196c32.667 32.667 53.667 49 63 49s14 -3.33301 14 -10zM373.002 741.001c0 16.667 -8.33301 25 -25 25c-26 0 -39 -12.333 -39 -37c0 -18 8.33301 -27 25 -27c26 0 39 13 39 39zM307.002 508.001c-14.667 26 -29.667 39 -45 39
c-5.33301 0 -20.333 -13 -45 -39c-30 -32 -59.667 -69 -89 -111c-32 -45.333 -48 -75.333 -48 -90c0 -8 3.33301 -12 10 -12c28.667 0 67 29.333 115 88z" />
    <glyph glyph-name="ae" unicode="&#xe6;" horiz-adv-x="588" 
d="M715 492c0 -17.333 -42.334 -54.3311 -127.001 -110.998c-135.333 -90 -238.333 -135 -309 -135c-31.333 0 -53.333 6.66699 -66 20c-4 4.66699 -10.667 19 -20 43c-42.667 -42 -81.667 -63 -117 -63c-49.333 0 -74 24.333 -74 73c0 59.333 26.667 119.666 80 180.999
c60.667 69.333 120.667 104 180 104c22 0 49.333 -16.333 82 -49c68.667 32.667 123.334 49 164.001 49c50.667 0 76 -18.333 76 -55c0 -38 -33 -78.667 -99 -122c-62 -40.667 -117.333 -62.334 -166 -65.001c-17.333 -24 -26 -43 -26 -57c0 -10.667 5.33301 -16 16 -16
c22.667 0 63.667 14 123 42c70 34 138.333 76 205 126l65 49c8.66699 0 13 -4.66699 13 -14zM544.999 547.002c0 18.667 -11.667 28 -35 28c-22.667 0 -52 -23.667 -88 -71l-80 -107c38.667 5.33301 82.167 25.5 130.5 60.5s72.5 64.833 72.5 89.5zM321.999 524.002
c-15.333 26 -30.667 39 -46 39c-5.33301 0 -20.333 -13 -45 -39c-103.333 -109.333 -155 -184.333 -155 -225c0 -9.33301 4 -14 12 -14c24 0 63 32.667 117 98z" />
    <glyph glyph-name="ccedilla" unicode="&#xe7;" 
d="M528 483c0 -18.667 -36.667 -53.332 -110 -103.999c-132.667 -91.333 -248 -137 -346 -137l-37 -47c36.667 -6.66699 55 -18.334 55 -35.001c0 -46 -63.333 -74.667 -190 -86l-2 22c96.667 10 145 27 145 51c0 12.667 -10.333 19 -31 19h-32l65 82
c-30 19.333 -45 45.333 -45 78c-0 84.667 53.333 160.334 160 227.001c43.333 27.333 86.333 41 129 41c42 0 63 -22 63 -66c0 -20.667 -8.83301 -41.167 -26.5 -61.5s-36.167 -30.5 -55.5 -30.5c-32 0 -49 24 -51 72c-95.333 -107.333 -143 -178.333 -143 -213
c0 -12.667 8 -19 24 -19c42 0 106.5 22.667 193.5 68s152.167 89.666 195.5 132.999c11.333 11.333 20.333 17 27 17c8 0 12 -3.66699 12 -11z" />
    <glyph glyph-name="egrave" unicode="&#xe8;" horiz-adv-x="379" 
d="M387 672c0 -5.33301 -3.33203 -7.99902 -9.99902 -7.99902c-4.66699 0 -13.667 3.33301 -27 10l-102 53c-34 18 -51 33 -51 45c0 16.667 8 25 24 25c7.33301 0 21.666 -8.33301 42.999 -25l113 -86c6.66699 -6.66699 10 -11.334 10 -14.001zM506.001 492.001
c0 -17.333 -42.334 -54.333 -127.001 -111c-131.333 -87.333 -229.666 -131 -294.999 -131c-21.333 0 -40.333 7.83301 -57 23.5s-25 35.167 -25 58.5c0 56 30.833 111.667 92.5 167s123.167 83 184.5 83c50 0 75 -18.667 75 -56c0 -33.333 -30.667 -69 -92 -107
c-57.333 -35.333 -107.666 -54.333 -150.999 -57c-16.667 -22 -25 -39 -25 -51s5.33301 -18 16 -18c29.333 0 79.666 18.333 150.999 55c65.333 34 123 69.667 173 107l68 51c8 0 12 -4.66699 12 -14zM315 524.001c0 19.333 -11.332 29.001 -33.999 29.001
c-20.667 0 -43.334 -16.333 -68.001 -49l-80 -107c36.667 5.33301 76.167 22.666 118.5 51.999s63.5 54.333 63.5 75z" />
    <glyph glyph-name="eacute" unicode="&#xe9;" horiz-adv-x="379" 
d="M428 778c0 -12.667 -11 -25.666 -33 -38.999l-112 -67c-7.33301 -5.33301 -17 -8 -29 -8c-9.33301 0 -14 3.33301 -14 10c0 5.33301 6 12.666 18 21.999l100 76c20 15.333 36.667 23 50 23s20 -5.66699 20 -17zM506 492.001c0 -17.333 -42.334 -54.333 -127.001 -111
c-131.333 -87.333 -229.666 -131 -294.999 -131c-21.333 0 -40.333 7.83301 -57 23.5s-25 35.167 -25 58.5c0 56 30.833 111.667 92.5 167s123.167 83 184.5 83c50 0 75 -18.667 75 -56c0 -33.333 -30.667 -69 -92 -107c-57.333 -35.333 -107.666 -54.333 -150.999 -57
c-16.667 -22 -25 -39 -25 -51s5.33301 -18 16 -18c29.333 0 79.666 18.333 150.999 55c65.333 34 123 69.667 173 107l68 51c8 0 12 -4.66699 12 -14zM314.999 524.001c0 19.333 -11.332 29.001 -33.999 29.001c-20.667 0 -43.334 -16.333 -68.001 -49l-80 -107
c36.667 5.33301 76.167 22.666 118.5 51.999s63.5 54.333 63.5 75z" />
    <glyph glyph-name="ecircumflex" unicode="&#xea;" horiz-adv-x="379" 
d="M401 684c0 -13.333 -3.33301 -20 -10 -20c-6 0 -11.333 6.66699 -16 20l-31 92l-162 -104c-6 -4 -11.333 -6 -16 -6c-6.66699 0 -10 2.66699 -10 8c0 4 2.66699 8.66699 8 14l129 100c24.667 19.333 45 29 61 29s26.333 -13 31 -39zM506 492
c0 -17.333 -42.334 -54.333 -127.001 -111c-131.333 -87.333 -229.666 -131 -294.999 -131c-21.333 0 -40.333 7.83301 -57 23.5s-25 35.167 -25 58.5c0 56 30.833 111.667 92.5 167s123.167 83 184.5 83c50 0 75 -18.667 75 -56c0 -33.333 -30.667 -69 -92 -107
c-57.333 -35.333 -107.666 -54.333 -150.999 -57c-16.667 -22 -25 -39 -25 -51s5.33301 -18 16 -18c29.333 0 79.666 18.333 150.999 55c65.333 34 123 69.667 173 107l68 51c8 0 12 -4.66699 12 -14zM314.999 524c0 19.333 -11.332 29.001 -33.999 29.001
c-20.667 0 -43.334 -16.333 -68.001 -49l-80 -107c36.667 5.33301 76.167 22.666 118.5 51.999s63.5 54.333 63.5 75z" />
    <glyph glyph-name="edieresis" unicode="&#xeb;" horiz-adv-x="379" 
d="M414 741c0 -27.333 -14.333 -41 -43 -41c-18 0 -27 9 -27 27c0 28.667 14.333 43 43 43c18 0 27 -9.66699 27 -29zM264 743c0 -10.667 -4.83203 -20.5 -14.499 -29.5s-19.834 -13.5 -30.501 -13.5c-19.333 0 -29 9.66699 -29 29c0 28.667 14.333 43 43 43
c20.667 0 31 -9.66699 31 -29zM506.001 492c0 -17.333 -42.334 -54.333 -127.001 -111c-131.333 -87.333 -229.666 -131 -294.999 -131c-21.333 0 -40.333 7.83301 -57 23.5s-25 35.167 -25 58.5c0 56 30.833 111.667 92.5 167s123.167 83 184.5 83c50 0 75 -18.667 75 -56
c0 -33.333 -30.667 -69 -92 -107c-57.333 -35.333 -107.666 -54.333 -150.999 -57c-16.667 -22 -25 -39 -25 -51s5.33301 -18 16 -18c29.333 0 79.666 18.333 150.999 55c65.333 34 123 69.667 173 107l68 51c8 0 12 -4.66699 12 -14zM315 524
c0 19.333 -11.332 29.001 -33.999 29.001c-20.667 0 -43.334 -16.333 -68.001 -49l-80 -107c36.667 5.33301 76.167 22.666 118.5 51.999s63.5 54.333 63.5 75z" />
    <glyph glyph-name="igrave" unicode="&#xec;" horiz-adv-x="303" 
d="M379 672c0 -5.33301 -3.33203 -7.99902 -9.99902 -7.99902c-4.66699 0 -13.667 3.33301 -27 10l-102 53c-34.667 18 -52 33 -52 45c0 16.667 8.33301 25 25 25c7.33301 0 21.666 -8.33301 42.999 -25l113 -86c6.66699 -6.66699 10 -11.334 10 -14.001zM461.001 518.001
c0 -4.66699 -6.33203 -12.667 -18.999 -24c-176 -162.667 -295.333 -244 -358 -244c-24.667 0 -45.167 8.83301 -61.5 26.5s-24.5 39.5 -24.5 65.5c0 34 20.333 73.667 61 119l121 133h127l-188 -223c-23.333 -28 -35 -47.333 -35 -58c0 -8 4.66699 -12 14 -12
c45.333 0 150.666 69.667 315.999 209c16 13.333 26.667 20 32 20c10 0 15 -4 15 -12z" />
    <glyph glyph-name="iacute" unicode="&#xed;" horiz-adv-x="303" 
d="M428 778c0 -12.667 -11 -25.666 -33 -38.999l-112 -67c-7.33301 -5.33301 -17 -8 -29 -8c-9.33301 0 -14 3.33301 -14 10c0 5.33301 6 12.666 18 21.999l100 76c20 15.333 36.667 23 50 23s20 -5.66699 20 -17zM461 518.001c0 -4.66699 -6.33203 -12.667 -18.999 -24
c-176 -162.667 -295.333 -244 -358 -244c-24.667 0 -45.167 8.83301 -61.5 26.5s-24.5 39.5 -24.5 65.5c0 34 20.333 73.667 61 119l121 133h127l-188 -223c-23.333 -28 -35 -47.333 -35 -58c0 -8 4.66699 -12 14 -12c45.333 0 150.666 69.667 315.999 209
c16 13.333 26.667 20 32 20c10 0 15 -4 15 -12z" />
    </font>
</defs>
</svg>
